<?xml version="1.0" encoding="utf-8" standalone="no"?>
<!DOCTYPE svg PUBLIC "-//W3C//DTD SVG 1.1//EN"
  "http://www.w3.org/Graphics/SVG/1.1/DTD/svg11.dtd">
<svg height="432pt" version="1.1" viewBox="0 0 648 432" width="648pt" xmlns="http://www.w3.org/2000/svg" xmlns:xlink="http://www.w3.org/1999/xlink">
 <metadata>
  <rdf:RDF xmlns:cc="http://creativecommons.org/ns#" xmlns:dc="http://purl.org/dc/elements/1.1/" xmlns:rdf="http://www.w3.org/1999/02/22-rdf-syntax-ns#">
   <cc:Work>
    <dc:type rdf:resource="http://purl.org/dc/dcmitype/StillImage"/>
    <dc:date>2021-11-14T15:50:59.917028</dc:date>
    <dc:format>image/svg+xml</dc:format>
    <dc:creator>
     <cc:Agent>
      <dc:title>Matplotlib v3.4.3, https://matplotlib.org/</dc:title>
     </cc:Agent>
    </dc:creator>
   </cc:Work>
  </rdf:RDF>
 </metadata>
 <defs>
  <style type="text/css">*{stroke-linecap:butt;stroke-linejoin:round;}</style>
 </defs>
 <g id="figure_1">
  <g id="patch_1">
   <path d="M 0 432 
L 648 432 
L 648 0 
L 0 0 
z
" style="fill:#ffffff;"/>
  </g>
  <g id="axes_1">
   <g id="patch_2">
    <path d="M 81 384.48 
L 583.2 384.48 
L 583.2 51.84 
L 81 51.84 
z
" style="fill:#ffffff;"/>
   </g>
   <g id="matplotlib.axis_1">
    <g id="xtick_1">
     <g id="line2d_1">
      <defs>
       <path d="M 0 0 
L 0 3.5 
" id="m5dca95afca" style="stroke:#000000;stroke-width:0.8;"/>
      </defs>
      <g>
       <use style="stroke:#000000;stroke-width:0.8;" x="103.827273" xlink:href="#m5dca95afca" y="384.48"/>
      </g>
     </g>
     <g id="text_1">
      <!-- 0 -->
      <g transform="translate(100.646023 399.078438)scale(0.1 -0.1)">
       <defs>
        <path d="M 2034 4250 
Q 1547 4250 1301 3770 
Q 1056 3291 1056 2328 
Q 1056 1369 1301 889 
Q 1547 409 2034 409 
Q 2525 409 2770 889 
Q 3016 1369 3016 2328 
Q 3016 3291 2770 3770 
Q 2525 4250 2034 4250 
z
M 2034 4750 
Q 2819 4750 3233 4129 
Q 3647 3509 3647 2328 
Q 3647 1150 3233 529 
Q 2819 -91 2034 -91 
Q 1250 -91 836 529 
Q 422 1150 422 2328 
Q 422 3509 836 4129 
Q 1250 4750 2034 4750 
z
" id="DejaVuSans-30" transform="scale(0.015625)"/>
       </defs>
       <use xlink:href="#DejaVuSans-30"/>
      </g>
     </g>
    </g>
    <g id="xtick_2">
     <g id="line2d_2">
      <g>
       <use style="stroke:#000000;stroke-width:0.8;" x="195.136364" xlink:href="#m5dca95afca" y="384.48"/>
      </g>
     </g>
     <g id="text_2">
      <!-- 200 -->
      <g transform="translate(185.592614 399.078438)scale(0.1 -0.1)">
       <defs>
        <path d="M 1228 531 
L 3431 531 
L 3431 0 
L 469 0 
L 469 531 
Q 828 903 1448 1529 
Q 2069 2156 2228 2338 
Q 2531 2678 2651 2914 
Q 2772 3150 2772 3378 
Q 2772 3750 2511 3984 
Q 2250 4219 1831 4219 
Q 1534 4219 1204 4116 
Q 875 4013 500 3803 
L 500 4441 
Q 881 4594 1212 4672 
Q 1544 4750 1819 4750 
Q 2544 4750 2975 4387 
Q 3406 4025 3406 3419 
Q 3406 3131 3298 2873 
Q 3191 2616 2906 2266 
Q 2828 2175 2409 1742 
Q 1991 1309 1228 531 
z
" id="DejaVuSans-32" transform="scale(0.015625)"/>
       </defs>
       <use xlink:href="#DejaVuSans-32"/>
       <use x="63.623047" xlink:href="#DejaVuSans-30"/>
       <use x="127.246094" xlink:href="#DejaVuSans-30"/>
      </g>
     </g>
    </g>
    <g id="xtick_3">
     <g id="line2d_3">
      <g>
       <use style="stroke:#000000;stroke-width:0.8;" x="286.445455" xlink:href="#m5dca95afca" y="384.48"/>
      </g>
     </g>
     <g id="text_3">
      <!-- 400 -->
      <g transform="translate(276.901705 399.078438)scale(0.1 -0.1)">
       <defs>
        <path d="M 2419 4116 
L 825 1625 
L 2419 1625 
L 2419 4116 
z
M 2253 4666 
L 3047 4666 
L 3047 1625 
L 3713 1625 
L 3713 1100 
L 3047 1100 
L 3047 0 
L 2419 0 
L 2419 1100 
L 313 1100 
L 313 1709 
L 2253 4666 
z
" id="DejaVuSans-34" transform="scale(0.015625)"/>
       </defs>
       <use xlink:href="#DejaVuSans-34"/>
       <use x="63.623047" xlink:href="#DejaVuSans-30"/>
       <use x="127.246094" xlink:href="#DejaVuSans-30"/>
      </g>
     </g>
    </g>
    <g id="xtick_4">
     <g id="line2d_4">
      <g>
       <use style="stroke:#000000;stroke-width:0.8;" x="377.754545" xlink:href="#m5dca95afca" y="384.48"/>
      </g>
     </g>
     <g id="text_4">
      <!-- 600 -->
      <g transform="translate(368.210795 399.078438)scale(0.1 -0.1)">
       <defs>
        <path d="M 2113 2584 
Q 1688 2584 1439 2293 
Q 1191 2003 1191 1497 
Q 1191 994 1439 701 
Q 1688 409 2113 409 
Q 2538 409 2786 701 
Q 3034 994 3034 1497 
Q 3034 2003 2786 2293 
Q 2538 2584 2113 2584 
z
M 3366 4563 
L 3366 3988 
Q 3128 4100 2886 4159 
Q 2644 4219 2406 4219 
Q 1781 4219 1451 3797 
Q 1122 3375 1075 2522 
Q 1259 2794 1537 2939 
Q 1816 3084 2150 3084 
Q 2853 3084 3261 2657 
Q 3669 2231 3669 1497 
Q 3669 778 3244 343 
Q 2819 -91 2113 -91 
Q 1303 -91 875 529 
Q 447 1150 447 2328 
Q 447 3434 972 4092 
Q 1497 4750 2381 4750 
Q 2619 4750 2861 4703 
Q 3103 4656 3366 4563 
z
" id="DejaVuSans-36" transform="scale(0.015625)"/>
       </defs>
       <use xlink:href="#DejaVuSans-36"/>
       <use x="63.623047" xlink:href="#DejaVuSans-30"/>
       <use x="127.246094" xlink:href="#DejaVuSans-30"/>
      </g>
     </g>
    </g>
    <g id="xtick_5">
     <g id="line2d_5">
      <g>
       <use style="stroke:#000000;stroke-width:0.8;" x="469.063636" xlink:href="#m5dca95afca" y="384.48"/>
      </g>
     </g>
     <g id="text_5">
      <!-- 800 -->
      <g transform="translate(459.519886 399.078438)scale(0.1 -0.1)">
       <defs>
        <path d="M 2034 2216 
Q 1584 2216 1326 1975 
Q 1069 1734 1069 1313 
Q 1069 891 1326 650 
Q 1584 409 2034 409 
Q 2484 409 2743 651 
Q 3003 894 3003 1313 
Q 3003 1734 2745 1975 
Q 2488 2216 2034 2216 
z
M 1403 2484 
Q 997 2584 770 2862 
Q 544 3141 544 3541 
Q 544 4100 942 4425 
Q 1341 4750 2034 4750 
Q 2731 4750 3128 4425 
Q 3525 4100 3525 3541 
Q 3525 3141 3298 2862 
Q 3072 2584 2669 2484 
Q 3125 2378 3379 2068 
Q 3634 1759 3634 1313 
Q 3634 634 3220 271 
Q 2806 -91 2034 -91 
Q 1263 -91 848 271 
Q 434 634 434 1313 
Q 434 1759 690 2068 
Q 947 2378 1403 2484 
z
M 1172 3481 
Q 1172 3119 1398 2916 
Q 1625 2713 2034 2713 
Q 2441 2713 2670 2916 
Q 2900 3119 2900 3481 
Q 2900 3844 2670 4047 
Q 2441 4250 2034 4250 
Q 1625 4250 1398 4047 
Q 1172 3844 1172 3481 
z
" id="DejaVuSans-38" transform="scale(0.015625)"/>
       </defs>
       <use xlink:href="#DejaVuSans-38"/>
       <use x="63.623047" xlink:href="#DejaVuSans-30"/>
       <use x="127.246094" xlink:href="#DejaVuSans-30"/>
      </g>
     </g>
    </g>
    <g id="xtick_6">
     <g id="line2d_6">
      <g>
       <use style="stroke:#000000;stroke-width:0.8;" x="560.372727" xlink:href="#m5dca95afca" y="384.48"/>
      </g>
     </g>
     <g id="text_6">
      <!-- 1000 -->
      <g transform="translate(547.647727 399.078438)scale(0.1 -0.1)">
       <defs>
        <path d="M 794 531 
L 1825 531 
L 1825 4091 
L 703 3866 
L 703 4441 
L 1819 4666 
L 2450 4666 
L 2450 531 
L 3481 531 
L 3481 0 
L 794 0 
L 794 531 
z
" id="DejaVuSans-31" transform="scale(0.015625)"/>
       </defs>
       <use xlink:href="#DejaVuSans-31"/>
       <use x="63.623047" xlink:href="#DejaVuSans-30"/>
       <use x="127.246094" xlink:href="#DejaVuSans-30"/>
       <use x="190.869141" xlink:href="#DejaVuSans-30"/>
      </g>
     </g>
    </g>
    <g id="text_7">
     <!-- Nombre de phrases considérées -->
     <g transform="translate(251.546875 413.156563)scale(0.1 -0.1)">
      <defs>
       <path d="M 628 4666 
L 1478 4666 
L 3547 763 
L 3547 4666 
L 4159 4666 
L 4159 0 
L 3309 0 
L 1241 3903 
L 1241 0 
L 628 0 
L 628 4666 
z
" id="DejaVuSans-4e" transform="scale(0.015625)"/>
       <path d="M 1959 3097 
Q 1497 3097 1228 2736 
Q 959 2375 959 1747 
Q 959 1119 1226 758 
Q 1494 397 1959 397 
Q 2419 397 2687 759 
Q 2956 1122 2956 1747 
Q 2956 2369 2687 2733 
Q 2419 3097 1959 3097 
z
M 1959 3584 
Q 2709 3584 3137 3096 
Q 3566 2609 3566 1747 
Q 3566 888 3137 398 
Q 2709 -91 1959 -91 
Q 1206 -91 779 398 
Q 353 888 353 1747 
Q 353 2609 779 3096 
Q 1206 3584 1959 3584 
z
" id="DejaVuSans-6f" transform="scale(0.015625)"/>
       <path d="M 3328 2828 
Q 3544 3216 3844 3400 
Q 4144 3584 4550 3584 
Q 5097 3584 5394 3201 
Q 5691 2819 5691 2113 
L 5691 0 
L 5113 0 
L 5113 2094 
Q 5113 2597 4934 2840 
Q 4756 3084 4391 3084 
Q 3944 3084 3684 2787 
Q 3425 2491 3425 1978 
L 3425 0 
L 2847 0 
L 2847 2094 
Q 2847 2600 2669 2842 
Q 2491 3084 2119 3084 
Q 1678 3084 1418 2786 
Q 1159 2488 1159 1978 
L 1159 0 
L 581 0 
L 581 3500 
L 1159 3500 
L 1159 2956 
Q 1356 3278 1631 3431 
Q 1906 3584 2284 3584 
Q 2666 3584 2933 3390 
Q 3200 3197 3328 2828 
z
" id="DejaVuSans-6d" transform="scale(0.015625)"/>
       <path d="M 3116 1747 
Q 3116 2381 2855 2742 
Q 2594 3103 2138 3103 
Q 1681 3103 1420 2742 
Q 1159 2381 1159 1747 
Q 1159 1113 1420 752 
Q 1681 391 2138 391 
Q 2594 391 2855 752 
Q 3116 1113 3116 1747 
z
M 1159 2969 
Q 1341 3281 1617 3432 
Q 1894 3584 2278 3584 
Q 2916 3584 3314 3078 
Q 3713 2572 3713 1747 
Q 3713 922 3314 415 
Q 2916 -91 2278 -91 
Q 1894 -91 1617 61 
Q 1341 213 1159 525 
L 1159 0 
L 581 0 
L 581 4863 
L 1159 4863 
L 1159 2969 
z
" id="DejaVuSans-62" transform="scale(0.015625)"/>
       <path d="M 2631 2963 
Q 2534 3019 2420 3045 
Q 2306 3072 2169 3072 
Q 1681 3072 1420 2755 
Q 1159 2438 1159 1844 
L 1159 0 
L 581 0 
L 581 3500 
L 1159 3500 
L 1159 2956 
Q 1341 3275 1631 3429 
Q 1922 3584 2338 3584 
Q 2397 3584 2469 3576 
Q 2541 3569 2628 3553 
L 2631 2963 
z
" id="DejaVuSans-72" transform="scale(0.015625)"/>
       <path d="M 3597 1894 
L 3597 1613 
L 953 1613 
Q 991 1019 1311 708 
Q 1631 397 2203 397 
Q 2534 397 2845 478 
Q 3156 559 3463 722 
L 3463 178 
Q 3153 47 2828 -22 
Q 2503 -91 2169 -91 
Q 1331 -91 842 396 
Q 353 884 353 1716 
Q 353 2575 817 3079 
Q 1281 3584 2069 3584 
Q 2775 3584 3186 3129 
Q 3597 2675 3597 1894 
z
M 3022 2063 
Q 3016 2534 2758 2815 
Q 2500 3097 2075 3097 
Q 1594 3097 1305 2825 
Q 1016 2553 972 2059 
L 3022 2063 
z
" id="DejaVuSans-65" transform="scale(0.015625)"/>
       <path id="DejaVuSans-20" transform="scale(0.015625)"/>
       <path d="M 2906 2969 
L 2906 4863 
L 3481 4863 
L 3481 0 
L 2906 0 
L 2906 525 
Q 2725 213 2448 61 
Q 2172 -91 1784 -91 
Q 1150 -91 751 415 
Q 353 922 353 1747 
Q 353 2572 751 3078 
Q 1150 3584 1784 3584 
Q 2172 3584 2448 3432 
Q 2725 3281 2906 2969 
z
M 947 1747 
Q 947 1113 1208 752 
Q 1469 391 1925 391 
Q 2381 391 2643 752 
Q 2906 1113 2906 1747 
Q 2906 2381 2643 2742 
Q 2381 3103 1925 3103 
Q 1469 3103 1208 2742 
Q 947 2381 947 1747 
z
" id="DejaVuSans-64" transform="scale(0.015625)"/>
       <path d="M 1159 525 
L 1159 -1331 
L 581 -1331 
L 581 3500 
L 1159 3500 
L 1159 2969 
Q 1341 3281 1617 3432 
Q 1894 3584 2278 3584 
Q 2916 3584 3314 3078 
Q 3713 2572 3713 1747 
Q 3713 922 3314 415 
Q 2916 -91 2278 -91 
Q 1894 -91 1617 61 
Q 1341 213 1159 525 
z
M 3116 1747 
Q 3116 2381 2855 2742 
Q 2594 3103 2138 3103 
Q 1681 3103 1420 2742 
Q 1159 2381 1159 1747 
Q 1159 1113 1420 752 
Q 1681 391 2138 391 
Q 2594 391 2855 752 
Q 3116 1113 3116 1747 
z
" id="DejaVuSans-70" transform="scale(0.015625)"/>
       <path d="M 3513 2113 
L 3513 0 
L 2938 0 
L 2938 2094 
Q 2938 2591 2744 2837 
Q 2550 3084 2163 3084 
Q 1697 3084 1428 2787 
Q 1159 2491 1159 1978 
L 1159 0 
L 581 0 
L 581 4863 
L 1159 4863 
L 1159 2956 
Q 1366 3272 1645 3428 
Q 1925 3584 2291 3584 
Q 2894 3584 3203 3211 
Q 3513 2838 3513 2113 
z
" id="DejaVuSans-68" transform="scale(0.015625)"/>
       <path d="M 2194 1759 
Q 1497 1759 1228 1600 
Q 959 1441 959 1056 
Q 959 750 1161 570 
Q 1363 391 1709 391 
Q 2188 391 2477 730 
Q 2766 1069 2766 1631 
L 2766 1759 
L 2194 1759 
z
M 3341 1997 
L 3341 0 
L 2766 0 
L 2766 531 
Q 2569 213 2275 61 
Q 1981 -91 1556 -91 
Q 1019 -91 701 211 
Q 384 513 384 1019 
Q 384 1609 779 1909 
Q 1175 2209 1959 2209 
L 2766 2209 
L 2766 2266 
Q 2766 2663 2505 2880 
Q 2244 3097 1772 3097 
Q 1472 3097 1187 3025 
Q 903 2953 641 2809 
L 641 3341 
Q 956 3463 1253 3523 
Q 1550 3584 1831 3584 
Q 2591 3584 2966 3190 
Q 3341 2797 3341 1997 
z
" id="DejaVuSans-61" transform="scale(0.015625)"/>
       <path d="M 2834 3397 
L 2834 2853 
Q 2591 2978 2328 3040 
Q 2066 3103 1784 3103 
Q 1356 3103 1142 2972 
Q 928 2841 928 2578 
Q 928 2378 1081 2264 
Q 1234 2150 1697 2047 
L 1894 2003 
Q 2506 1872 2764 1633 
Q 3022 1394 3022 966 
Q 3022 478 2636 193 
Q 2250 -91 1575 -91 
Q 1294 -91 989 -36 
Q 684 19 347 128 
L 347 722 
Q 666 556 975 473 
Q 1284 391 1588 391 
Q 1994 391 2212 530 
Q 2431 669 2431 922 
Q 2431 1156 2273 1281 
Q 2116 1406 1581 1522 
L 1381 1569 
Q 847 1681 609 1914 
Q 372 2147 372 2553 
Q 372 3047 722 3315 
Q 1072 3584 1716 3584 
Q 2034 3584 2315 3537 
Q 2597 3491 2834 3397 
z
" id="DejaVuSans-73" transform="scale(0.015625)"/>
       <path d="M 3122 3366 
L 3122 2828 
Q 2878 2963 2633 3030 
Q 2388 3097 2138 3097 
Q 1578 3097 1268 2742 
Q 959 2388 959 1747 
Q 959 1106 1268 751 
Q 1578 397 2138 397 
Q 2388 397 2633 464 
Q 2878 531 3122 666 
L 3122 134 
Q 2881 22 2623 -34 
Q 2366 -91 2075 -91 
Q 1284 -91 818 406 
Q 353 903 353 1747 
Q 353 2603 823 3093 
Q 1294 3584 2113 3584 
Q 2378 3584 2631 3529 
Q 2884 3475 3122 3366 
z
" id="DejaVuSans-63" transform="scale(0.015625)"/>
       <path d="M 3513 2113 
L 3513 0 
L 2938 0 
L 2938 2094 
Q 2938 2591 2744 2837 
Q 2550 3084 2163 3084 
Q 1697 3084 1428 2787 
Q 1159 2491 1159 1978 
L 1159 0 
L 581 0 
L 581 3500 
L 1159 3500 
L 1159 2956 
Q 1366 3272 1645 3428 
Q 1925 3584 2291 3584 
Q 2894 3584 3203 3211 
Q 3513 2838 3513 2113 
z
" id="DejaVuSans-6e" transform="scale(0.015625)"/>
       <path d="M 603 3500 
L 1178 3500 
L 1178 0 
L 603 0 
L 603 3500 
z
M 603 4863 
L 1178 4863 
L 1178 4134 
L 603 4134 
L 603 4863 
z
" id="DejaVuSans-69" transform="scale(0.015625)"/>
       <path d="M 3597 1894 
L 3597 1613 
L 953 1613 
Q 991 1019 1311 708 
Q 1631 397 2203 397 
Q 2534 397 2845 478 
Q 3156 559 3463 722 
L 3463 178 
Q 3153 47 2828 -22 
Q 2503 -91 2169 -91 
Q 1331 -91 842 396 
Q 353 884 353 1716 
Q 353 2575 817 3079 
Q 1281 3584 2069 3584 
Q 2775 3584 3186 3129 
Q 3597 2675 3597 1894 
z
M 3022 2063 
Q 3016 2534 2758 2815 
Q 2500 3097 2075 3097 
Q 1594 3097 1305 2825 
Q 1016 2553 972 2059 
L 3022 2063 
z
M 2466 5119 
L 3088 5119 
L 2070 3944 
L 1591 3944 
L 2466 5119 
z
" id="DejaVuSans-e9" transform="scale(0.015625)"/>
      </defs>
      <use xlink:href="#DejaVuSans-4e"/>
      <use x="74.804688" xlink:href="#DejaVuSans-6f"/>
      <use x="135.986328" xlink:href="#DejaVuSans-6d"/>
      <use x="233.398438" xlink:href="#DejaVuSans-62"/>
      <use x="296.875" xlink:href="#DejaVuSans-72"/>
      <use x="335.738281" xlink:href="#DejaVuSans-65"/>
      <use x="397.261719" xlink:href="#DejaVuSans-20"/>
      <use x="429.048828" xlink:href="#DejaVuSans-64"/>
      <use x="492.525391" xlink:href="#DejaVuSans-65"/>
      <use x="554.048828" xlink:href="#DejaVuSans-20"/>
      <use x="585.835938" xlink:href="#DejaVuSans-70"/>
      <use x="649.3125" xlink:href="#DejaVuSans-68"/>
      <use x="712.691406" xlink:href="#DejaVuSans-72"/>
      <use x="753.804688" xlink:href="#DejaVuSans-61"/>
      <use x="815.083984" xlink:href="#DejaVuSans-73"/>
      <use x="867.183594" xlink:href="#DejaVuSans-65"/>
      <use x="928.707031" xlink:href="#DejaVuSans-73"/>
      <use x="980.806641" xlink:href="#DejaVuSans-20"/>
      <use x="1012.59375" xlink:href="#DejaVuSans-63"/>
      <use x="1067.574219" xlink:href="#DejaVuSans-6f"/>
      <use x="1128.755859" xlink:href="#DejaVuSans-6e"/>
      <use x="1192.134766" xlink:href="#DejaVuSans-73"/>
      <use x="1244.234375" xlink:href="#DejaVuSans-69"/>
      <use x="1272.017578" xlink:href="#DejaVuSans-64"/>
      <use x="1335.494141" xlink:href="#DejaVuSans-e9"/>
      <use x="1397.017578" xlink:href="#DejaVuSans-72"/>
      <use x="1435.880859" xlink:href="#DejaVuSans-e9"/>
      <use x="1497.404297" xlink:href="#DejaVuSans-65"/>
      <use x="1558.927734" xlink:href="#DejaVuSans-73"/>
     </g>
    </g>
   </g>
   <g id="matplotlib.axis_2">
    <g id="ytick_1">
     <g id="line2d_7">
      <defs>
       <path d="M 0 0 
L -3.5 0 
" id="m59b5b3baf9" style="stroke:#000000;stroke-width:0.8;"/>
      </defs>
      <g>
       <use style="stroke:#000000;stroke-width:0.8;" x="81" xlink:href="#m59b5b3baf9" y="369.36"/>
      </g>
     </g>
     <g id="text_8">
      <!-- 0 -->
      <g transform="translate(67.6375 373.159219)scale(0.1 -0.1)">
       <use xlink:href="#DejaVuSans-30"/>
      </g>
     </g>
    </g>
    <g id="ytick_2">
     <g id="line2d_8">
      <g>
       <use style="stroke:#000000;stroke-width:0.8;" x="81" xlink:href="#m59b5b3baf9" y="309.492832"/>
      </g>
     </g>
     <g id="text_9">
      <!-- 2 -->
      <g transform="translate(67.6375 313.292051)scale(0.1 -0.1)">
       <use xlink:href="#DejaVuSans-32"/>
      </g>
     </g>
    </g>
    <g id="ytick_3">
     <g id="line2d_9">
      <g>
       <use style="stroke:#000000;stroke-width:0.8;" x="81" xlink:href="#m59b5b3baf9" y="249.625664"/>
      </g>
     </g>
     <g id="text_10">
      <!-- 4 -->
      <g transform="translate(67.6375 253.424882)scale(0.1 -0.1)">
       <use xlink:href="#DejaVuSans-34"/>
      </g>
     </g>
    </g>
    <g id="ytick_4">
     <g id="line2d_10">
      <g>
       <use style="stroke:#000000;stroke-width:0.8;" x="81" xlink:href="#m59b5b3baf9" y="189.758495"/>
      </g>
     </g>
     <g id="text_11">
      <!-- 6 -->
      <g transform="translate(67.6375 193.557714)scale(0.1 -0.1)">
       <use xlink:href="#DejaVuSans-36"/>
      </g>
     </g>
    </g>
    <g id="ytick_5">
     <g id="line2d_11">
      <g>
       <use style="stroke:#000000;stroke-width:0.8;" x="81" xlink:href="#m59b5b3baf9" y="129.891327"/>
      </g>
     </g>
     <g id="text_12">
      <!-- 8 -->
      <g transform="translate(67.6375 133.690546)scale(0.1 -0.1)">
       <use xlink:href="#DejaVuSans-38"/>
      </g>
     </g>
    </g>
    <g id="ytick_6">
     <g id="line2d_12">
      <g>
       <use style="stroke:#000000;stroke-width:0.8;" x="81" xlink:href="#m59b5b3baf9" y="70.024159"/>
      </g>
     </g>
     <g id="text_13">
      <!-- 10 -->
      <g transform="translate(61.275 73.823378)scale(0.1 -0.1)">
       <use xlink:href="#DejaVuSans-31"/>
       <use x="63.623047" xlink:href="#DejaVuSans-30"/>
      </g>
     </g>
    </g>
    <g id="text_14">
     <!-- Le temps d'analyse (en sec) -->
     <g transform="translate(55.195312 288.429531)rotate(-90)scale(0.1 -0.1)">
      <defs>
       <path d="M 628 4666 
L 1259 4666 
L 1259 531 
L 3531 531 
L 3531 0 
L 628 0 
L 628 4666 
z
" id="DejaVuSans-4c" transform="scale(0.015625)"/>
       <path d="M 1172 4494 
L 1172 3500 
L 2356 3500 
L 2356 3053 
L 1172 3053 
L 1172 1153 
Q 1172 725 1289 603 
Q 1406 481 1766 481 
L 2356 481 
L 2356 0 
L 1766 0 
Q 1100 0 847 248 
Q 594 497 594 1153 
L 594 3053 
L 172 3053 
L 172 3500 
L 594 3500 
L 594 4494 
L 1172 4494 
z
" id="DejaVuSans-74" transform="scale(0.015625)"/>
       <path d="M 1147 4666 
L 1147 2931 
L 616 2931 
L 616 4666 
L 1147 4666 
z
" id="DejaVuSans-27" transform="scale(0.015625)"/>
       <path d="M 603 4863 
L 1178 4863 
L 1178 0 
L 603 0 
L 603 4863 
z
" id="DejaVuSans-6c" transform="scale(0.015625)"/>
       <path d="M 2059 -325 
Q 1816 -950 1584 -1140 
Q 1353 -1331 966 -1331 
L 506 -1331 
L 506 -850 
L 844 -850 
Q 1081 -850 1212 -737 
Q 1344 -625 1503 -206 
L 1606 56 
L 191 3500 
L 800 3500 
L 1894 763 
L 2988 3500 
L 3597 3500 
L 2059 -325 
z
" id="DejaVuSans-79" transform="scale(0.015625)"/>
       <path d="M 1984 4856 
Q 1566 4138 1362 3434 
Q 1159 2731 1159 2009 
Q 1159 1288 1364 580 
Q 1569 -128 1984 -844 
L 1484 -844 
Q 1016 -109 783 600 
Q 550 1309 550 2009 
Q 550 2706 781 3412 
Q 1013 4119 1484 4856 
L 1984 4856 
z
" id="DejaVuSans-28" transform="scale(0.015625)"/>
       <path d="M 513 4856 
L 1013 4856 
Q 1481 4119 1714 3412 
Q 1947 2706 1947 2009 
Q 1947 1309 1714 600 
Q 1481 -109 1013 -844 
L 513 -844 
Q 928 -128 1133 580 
Q 1338 1288 1338 2009 
Q 1338 2731 1133 3434 
Q 928 4138 513 4856 
z
" id="DejaVuSans-29" transform="scale(0.015625)"/>
      </defs>
      <use xlink:href="#DejaVuSans-4c"/>
      <use x="53.962891" xlink:href="#DejaVuSans-65"/>
      <use x="115.486328" xlink:href="#DejaVuSans-20"/>
      <use x="147.273438" xlink:href="#DejaVuSans-74"/>
      <use x="186.482422" xlink:href="#DejaVuSans-65"/>
      <use x="248.005859" xlink:href="#DejaVuSans-6d"/>
      <use x="345.417969" xlink:href="#DejaVuSans-70"/>
      <use x="408.894531" xlink:href="#DejaVuSans-73"/>
      <use x="460.994141" xlink:href="#DejaVuSans-20"/>
      <use x="492.78125" xlink:href="#DejaVuSans-64"/>
      <use x="556.257812" xlink:href="#DejaVuSans-27"/>
      <use x="583.748047" xlink:href="#DejaVuSans-61"/>
      <use x="645.027344" xlink:href="#DejaVuSans-6e"/>
      <use x="708.40625" xlink:href="#DejaVuSans-61"/>
      <use x="769.685547" xlink:href="#DejaVuSans-6c"/>
      <use x="797.46875" xlink:href="#DejaVuSans-79"/>
      <use x="856.648438" xlink:href="#DejaVuSans-73"/>
      <use x="908.748047" xlink:href="#DejaVuSans-65"/>
      <use x="970.271484" xlink:href="#DejaVuSans-20"/>
      <use x="1002.058594" xlink:href="#DejaVuSans-28"/>
      <use x="1041.072266" xlink:href="#DejaVuSans-65"/>
      <use x="1102.595703" xlink:href="#DejaVuSans-6e"/>
      <use x="1165.974609" xlink:href="#DejaVuSans-20"/>
      <use x="1197.761719" xlink:href="#DejaVuSans-73"/>
      <use x="1249.861328" xlink:href="#DejaVuSans-65"/>
      <use x="1311.384766" xlink:href="#DejaVuSans-63"/>
      <use x="1366.365234" xlink:href="#DejaVuSans-29"/>
     </g>
    </g>
   </g>
   <g id="line2d_13">
    <path clip-path="url(#pfd51c7152e)" d="M 103.827273 369.36 
L 104.283818 364.600448 
L 105.196909 363.960877 
L 106.566545 363.20033 
L 108.392727 361.949655 
L 112.045091 359.815661 
L 112.501636 359.431235 
L 113.414727 358.877496 
L 114.327818 358.287546 
L 117.523636 356.508276 
L 118.893273 355.55568 
L 122.545636 353.493553 
L 124.371818 352.379682 
L 126.654545 350.975332 
L 127.111091 348.91658 
L 134.415818 344.479794 
L 135.785455 343.684306 
L 136.698545 343.172674 
L 138.068182 342.330777 
L 141.720545 340.183615 
L 143.546727 339.147777 
L 144.916364 338.302825 
L 146.286 337.465616 
L 146.742545 336.957217 
L 148.568727 335.913992 
L 150.851455 334.505517 
L 153.590727 332.925547 
L 154.503818 332.297044 
L 155.873455 331.503812 
L 168.656727 323.505287 
L 172.765636 321.123406 
L 178.700727 317.432543 
L 179.613818 316.94908 
L 180.526909 316.338083 
L 181.44 315.718673 
L 183.266182 314.573843 
L 184.635818 313.794063 
L 191.484 309.486523 
L 194.223273 307.835371 
L 196.962545 306.114471 
L 198.332182 305.403154 
L 200.614909 303.999439 
L 203.354182 302.328447 
L 210.658909 298.140554 
L 211.572 297.599277 
L 222.985636 290.768099 
L 228.007636 287.871246 
L 230.290364 286.598311 
L 231.203455 286.018674 
L 233.942727 284.485228 
L 238.051636 282.033949 
L 239.421273 281.239332 
L 240.790909 280.475325 
L 242.617091 279.337146 
L 259.965818 269.193344 
L 264.074727 266.749816 
L 266.357455 265.532498 
L 268.183636 264.467442 
L 269.553273 263.677035 
L 270.922909 262.811651 
L 272.749091 261.792612 
L 275.944909 259.892724 
L 276.858 259.344581 
L 278.227636 258.444697 
L 288.728182 252.377256 
L 289.184727 251.893507 
L 306.99 241.435575 
L 307.903091 240.750871 
L 314.294727 237.001993 
L 315.664364 236.191761 
L 317.034 235.430087 
L 318.860182 234.365916 
L 321.599455 232.897721 
L 322.512545 232.213267 
L 325.251818 230.735337 
L 327.078 229.565243 
L 330.273818 227.743923 
L 338.035091 223.343905 
L 339.861273 222.273225 
L 340.774364 221.731484 
L 346.252909 218.435395 
L 347.622545 217.692127 
L 348.992182 216.810778 
L 352.644545 214.791092 
L 354.014182 213.98814 
L 360.405818 210.29445 
L 360.862364 209.556413 
L 372.276 202.716914 
L 373.189091 202.082445 
L 374.558727 201.29495 
L 386.885455 194.267634 
L 389.168182 193.046762 
L 392.364 191.22896 
L 395.103273 189.61504 
L 396.929455 188.598393 
L 398.755636 187.537569 
L 401.951455 185.5649 
L 406.516909 182.891991 
L 412.908545 178.929204 
L 435.735818 165.844066 
L 436.192364 165.339692 
L 439.844727 163.227144 
L 443.953636 160.81997 
L 449.432182 157.863854 
L 450.801818 157.076352 
L 452.628 156.012867 
L 454.454182 154.82548 
L 456.280364 153.760674 
L 464.498182 148.930454 
L 466.324364 147.889749 
L 469.063636 146.282252 
L 470.433273 145.519558 
L 472.259455 144.440664 
L 475.455273 142.679314 
L 479.107636 140.636841 
L 483.216545 138.229745 
L 485.042727 137.228192 
L 491.890909 133.212465 
L 492.804 132.649356 
L 497.826 129.680094 
L 499.652182 128.489975 
L 520.196727 116.827164 
L 527.501455 112.796436 
L 528.414545 112.209783 
L 528.871091 111.952704 
L 529.327636 111.519227 
L 534.349636 108.649351 
L 535.262727 108.066216 
L 538.915091 105.968526 
L 541.654364 104.514355 
L 543.937091 103.299806 
L 550.328727 99.250208 
L 555.807273 95.983923 
L 557.633455 95.008926 
L 559.459636 94.05678 
L 560.372727 93.511891 
L 560.372727 93.511891 
" style="fill:none;stroke:#1f77b4;stroke-linecap:square;stroke-width:1.5;"/>
   </g>
   <g id="line2d_14">
    <path clip-path="url(#pfd51c7152e)" d="M 103.827273 369.36 
L 104.740364 368.405371 
L 108.849273 365.59226 
L 110.218909 364.734683 
L 111.132 364.072459 
L 113.414727 362.468973 
L 114.327818 361.80266 
L 118.436727 359.086766 
L 119.349818 358.443205 
L 121.176 357.326722 
L 124.371818 355.170932 
L 126.654545 353.602388 
L 128.024182 352.652197 
L 135.785455 347.425583 
L 136.698545 346.853674 
L 138.068182 345.912512 
L 141.720545 343.521667 
L 143.546727 342.372162 
L 144.459818 341.705642 
L 146.286 340.501263 
L 146.742545 339.941801 
L 148.568727 338.777538 
L 150.851455 337.208144 
L 153.590727 335.450555 
L 154.503818 334.753575 
L 155.873455 333.872604 
L 169.113273 324.805769 
L 171.852545 323.054674 
L 176.418 320.02024 
L 177.331091 319.329491 
L 178.244182 318.735951 
L 179.157273 318.133298 
L 180.983455 316.897281 
L 182.353091 315.88897 
L 183.722727 314.986167 
L 185.548909 313.798374 
L 190.570909 310.241781 
L 194.223273 307.807809 
L 196.962545 305.916948 
L 198.332182 305.122624 
L 200.158364 303.840198 
L 201.984545 302.676248 
L 202.897636 302.039717 
L 204.723818 300.859888 
L 206.093455 299.923308 
L 210.658909 297.001091 
L 211.572 296.397089 
L 222.529091 289.042882 
L 224.811818 287.651742 
L 230.290364 284.102128 
L 231.203455 283.456384 
L 233.942727 281.741272 
L 241.247455 276.899434 
L 242.617091 275.979582 
L 248.552182 272.058823 
L 249.921818 271.168696 
L 259.965818 264.625427 
L 264.531273 261.653767 
L 266.814 260.221306 
L 268.183636 259.366441 
L 269.553273 258.478076 
L 270.922909 257.521391 
L 272.292545 256.670037 
L 276.858 253.677152 
L 278.227636 252.689087 
L 288.728182 245.91212 
L 289.184727 245.393965 
L 313.381636 229.324136 
L 315.664364 227.812185 
L 317.034 226.952403 
L 318.860182 225.768749 
L 321.599455 224.132234 
L 322.512545 223.392913 
L 325.708364 221.46133 
L 328.447636 219.570291 
L 330.730364 218.210617 
L 332.1 217.353304 
L 333.469636 216.519542 
L 336.665455 214.542306 
L 338.948182 212.961001 
L 350.361818 205.493077 
L 351.274909 204.91895 
L 356.753455 201.454513 
L 358.123091 200.620844 
L 360.405818 199.077328 
L 360.862364 198.302951 
L 368.623636 193.174174 
L 371.362909 191.296031 
L 372.276 190.65698 
L 373.189091 189.788498 
L 374.558727 188.910246 
L 388.255091 180.296172 
L 391.450909 178.35995 
L 394.646727 176.188931 
L 397.386 174.517989 
L 398.299091 173.900291 
L 399.668727 172.981659 
L 414.734727 162.957333 
L 435.735818 149.482616 
L 436.192364 148.921227 
L 440.757818 145.941081 
L 441.670909 145.258725 
L 443.953636 143.796603 
L 445.779818 142.603671 
L 451.714909 138.909154 
L 465.867818 129.510626 
L 494.173636 111.341565 
L 501.934909 106.183477 
L 505.130727 104.109653 
L 517.000909 96.542836 
L 522.479455 93.353284 
L 523.849091 92.484353 
L 527.044909 90.545184 
L 530.240727 88.204817 
L 534.349636 85.560897 
L 535.262727 84.894812 
L 538.915091 82.547801 
L 540.741273 81.452878 
L 543.024 80.102146 
L 545.763273 78.294529 
L 550.785273 74.767896 
L 554.894182 72.054656 
L 555.807273 71.437073 
L 557.633455 70.346996 
L 559.459636 69.282025 
L 560.372727 68.677716 
L 560.372727 68.677716 
" style="fill:none;stroke:#ff7f0e;stroke-linecap:square;stroke-width:1.5;"/>
   </g>
   <g id="line2d_15">
    <path clip-path="url(#pfd51c7152e)" d="M 103.827273 369.36 
L 104.740364 368.514484 
L 108.849273 365.694686 
L 110.218909 364.82088 
L 111.132 364.153904 
L 113.414727 362.543838 
L 114.327818 361.87442 
L 117.523636 359.876124 
L 118.893273 358.812631 
L 122.545636 356.489998 
L 123.915273 355.607814 
L 126.654545 353.742389 
L 127.567636 353.082192 
L 128.937273 352.100208 
L 130.306909 351.237435 
L 133.046182 349.364052 
L 134.415818 348.439254 
L 135.328909 347.808818 
L 136.698545 346.990821 
L 138.068182 346.061848 
L 139.894364 344.688985 
L 141.264 343.693662 
L 143.090182 342.586435 
L 145.829455 340.763424 
L 146.286 340.45005 
L 146.742545 339.896398 
L 148.568727 338.741947 
L 150.851455 337.190302 
L 153.590727 335.446815 
L 154.503818 334.755531 
L 155.873455 333.869585 
L 160.438909 330.837313 
L 162.265091 329.57938 
L 167.743636 325.713068 
L 173.222182 322.214304 
L 174.591818 321.258047 
L 176.418 320.111861 
L 177.331091 319.423389 
L 178.244182 318.83396 
L 179.157273 318.232013 
L 180.983455 316.987989 
L 182.353091 315.994336 
L 183.722727 315.094795 
L 185.548909 313.889645 
L 190.114364 310.635364 
L 194.679818 307.561492 
L 196.962545 306.015956 
L 198.332182 305.229432 
L 200.158364 303.952615 
L 201.984545 302.795981 
L 202.897636 302.164538 
L 204.723818 300.992217 
L 206.093455 300.073172 
L 212.028545 296.276985 
L 215.224364 294.021359 
L 217.963636 292.22935 
L 218.876727 291.551489 
L 220.246364 290.712404 
L 221.616 289.810486 
L 230.290364 284.318799 
L 231.203455 283.676195 
L 233.942727 281.965194 
L 238.051636 279.23554 
L 239.421273 278.356182 
L 240.790909 277.502594 
L 242.617091 276.239223 
L 248.552182 272.336735 
L 249.921818 271.442018 
L 260.422364 264.654631 
L 264.074727 262.275283 
L 265.900909 261.207394 
L 269.553273 258.875584 
L 270.922909 257.917686 
L 272.749091 256.794815 
L 282.336545 250.421901 
L 284.162727 249.354711 
L 288.728182 246.357501 
L 289.184727 245.836942 
L 329.360727 219.690752 
L 337.122 214.86894 
L 339.861273 213.072263 
L 340.774364 212.470408 
L 342.600545 211.335241 
L 348.535636 207.415425 
L 349.905273 206.526732 
L 353.101091 204.597911 
L 354.014182 203.968431 
L 356.753455 202.240409 
L 358.123091 201.410166 
L 360.405818 199.878347 
L 360.862364 199.105932 
L 369.080182 193.648081 
L 373.645636 190.588775 
L 378.667636 187.37296 
L 379.124182 183.972555 
L 385.515818 179.879102 
L 388.711636 177.972955 
L 392.364 175.639211 
L 395.559818 173.531636 
L 397.386 172.437912 
L 398.299091 171.816297 
L 399.668727 170.897365 
L 415.647818 160.219822 
L 417.017455 159.29992 
L 417.930545 158.667884 
L 419.300182 157.796433 
L 435.735818 147.384862 
L 436.192364 146.853219 
L 438.931636 145.086216 
L 443.040545 142.334467 
L 444.866727 141.239515 
L 452.171455 136.717153 
L 453.997636 135.443433 
L 455.823818 134.219364 
L 464.041636 128.832494 
L 475.455273 121.551753 
L 476.824909 120.669347 
L 478.651091 119.541952 
L 485.042727 115.447814 
L 495.543273 108.589481 
L 496.456364 107.957424 
L 497.369455 107.422948 
L 499.195636 106.100834 
L 506.956909 101.06791 
L 508.326545 100.170332 
L 517.000909 94.714486 
L 522.479455 91.525099 
L 523.849091 90.647425 
L 527.044909 88.717541 
L 530.240727 86.39261 
L 534.349636 83.788663 
L 535.262727 83.146073 
L 538.915091 80.813285 
L 541.654364 79.19048 
L 543.937091 77.839784 
L 546.676364 75.935728 
L 547.132909 75.659622 
L 548.502545 74.558326 
L 549.872182 73.6415 
L 555.807273 69.704898 
L 557.176909 68.918873 
L 560.372727 66.96 
L 560.372727 66.96 
" style="fill:none;stroke:#2ca02c;stroke-linecap:square;stroke-width:1.5;"/>
   </g>
   <g id="patch_3">
    <path d="M 81 384.48 
L 81 51.84 
" style="fill:none;stroke:#000000;stroke-linecap:square;stroke-linejoin:miter;stroke-width:0.8;"/>
   </g>
   <g id="patch_4">
    <path d="M 583.2 384.48 
L 583.2 51.84 
" style="fill:none;stroke:#000000;stroke-linecap:square;stroke-linejoin:miter;stroke-width:0.8;"/>
   </g>
   <g id="patch_5">
    <path d="M 81 384.48 
L 583.2 384.48 
" style="fill:none;stroke:#000000;stroke-linecap:square;stroke-linejoin:miter;stroke-width:0.8;"/>
   </g>
   <g id="patch_6">
    <path d="M 81 51.84 
L 583.2 51.84 
" style="fill:none;stroke:#000000;stroke-linecap:square;stroke-linejoin:miter;stroke-width:0.8;"/>
   </g>
   <g id="text_15">
    <!-- Le temps d'amalyse en fonction du nombre de phrases considérées -->
    <g transform="translate(128.7525 45.84)scale(0.12 -0.12)">
     <defs>
      <path d="M 2375 4863 
L 2375 4384 
L 1825 4384 
Q 1516 4384 1395 4259 
Q 1275 4134 1275 3809 
L 1275 3500 
L 2222 3500 
L 2222 3053 
L 1275 3053 
L 1275 0 
L 697 0 
L 697 3053 
L 147 3053 
L 147 3500 
L 697 3500 
L 697 3744 
Q 697 4328 969 4595 
Q 1241 4863 1831 4863 
L 2375 4863 
z
" id="DejaVuSans-66" transform="scale(0.015625)"/>
      <path d="M 544 1381 
L 544 3500 
L 1119 3500 
L 1119 1403 
Q 1119 906 1312 657 
Q 1506 409 1894 409 
Q 2359 409 2629 706 
Q 2900 1003 2900 1516 
L 2900 3500 
L 3475 3500 
L 3475 0 
L 2900 0 
L 2900 538 
Q 2691 219 2414 64 
Q 2138 -91 1772 -91 
Q 1169 -91 856 284 
Q 544 659 544 1381 
z
M 1991 3584 
L 1991 3584 
z
" id="DejaVuSans-75" transform="scale(0.015625)"/>
     </defs>
     <use xlink:href="#DejaVuSans-4c"/>
     <use x="53.962891" xlink:href="#DejaVuSans-65"/>
     <use x="115.486328" xlink:href="#DejaVuSans-20"/>
     <use x="147.273438" xlink:href="#DejaVuSans-74"/>
     <use x="186.482422" xlink:href="#DejaVuSans-65"/>
     <use x="248.005859" xlink:href="#DejaVuSans-6d"/>
     <use x="345.417969" xlink:href="#DejaVuSans-70"/>
     <use x="408.894531" xlink:href="#DejaVuSans-73"/>
     <use x="460.994141" xlink:href="#DejaVuSans-20"/>
     <use x="492.78125" xlink:href="#DejaVuSans-64"/>
     <use x="556.257812" xlink:href="#DejaVuSans-27"/>
     <use x="583.748047" xlink:href="#DejaVuSans-61"/>
     <use x="645.027344" xlink:href="#DejaVuSans-6d"/>
     <use x="742.439453" xlink:href="#DejaVuSans-61"/>
     <use x="803.71875" xlink:href="#DejaVuSans-6c"/>
     <use x="831.501953" xlink:href="#DejaVuSans-79"/>
     <use x="890.681641" xlink:href="#DejaVuSans-73"/>
     <use x="942.78125" xlink:href="#DejaVuSans-65"/>
     <use x="1004.304688" xlink:href="#DejaVuSans-20"/>
     <use x="1036.091797" xlink:href="#DejaVuSans-65"/>
     <use x="1097.615234" xlink:href="#DejaVuSans-6e"/>
     <use x="1160.994141" xlink:href="#DejaVuSans-20"/>
     <use x="1192.78125" xlink:href="#DejaVuSans-66"/>
     <use x="1227.986328" xlink:href="#DejaVuSans-6f"/>
     <use x="1289.167969" xlink:href="#DejaVuSans-6e"/>
     <use x="1352.546875" xlink:href="#DejaVuSans-63"/>
     <use x="1407.527344" xlink:href="#DejaVuSans-74"/>
     <use x="1446.736328" xlink:href="#DejaVuSans-69"/>
     <use x="1474.519531" xlink:href="#DejaVuSans-6f"/>
     <use x="1535.701172" xlink:href="#DejaVuSans-6e"/>
     <use x="1599.080078" xlink:href="#DejaVuSans-20"/>
     <use x="1630.867188" xlink:href="#DejaVuSans-64"/>
     <use x="1694.34375" xlink:href="#DejaVuSans-75"/>
     <use x="1757.722656" xlink:href="#DejaVuSans-20"/>
     <use x="1789.509766" xlink:href="#DejaVuSans-6e"/>
     <use x="1852.888672" xlink:href="#DejaVuSans-6f"/>
     <use x="1914.070312" xlink:href="#DejaVuSans-6d"/>
     <use x="2011.482422" xlink:href="#DejaVuSans-62"/>
     <use x="2074.958984" xlink:href="#DejaVuSans-72"/>
     <use x="2113.822266" xlink:href="#DejaVuSans-65"/>
     <use x="2175.345703" xlink:href="#DejaVuSans-20"/>
     <use x="2207.132812" xlink:href="#DejaVuSans-64"/>
     <use x="2270.609375" xlink:href="#DejaVuSans-65"/>
     <use x="2332.132812" xlink:href="#DejaVuSans-20"/>
     <use x="2363.919922" xlink:href="#DejaVuSans-70"/>
     <use x="2427.396484" xlink:href="#DejaVuSans-68"/>
     <use x="2490.775391" xlink:href="#DejaVuSans-72"/>
     <use x="2531.888672" xlink:href="#DejaVuSans-61"/>
     <use x="2593.167969" xlink:href="#DejaVuSans-73"/>
     <use x="2645.267578" xlink:href="#DejaVuSans-65"/>
     <use x="2706.791016" xlink:href="#DejaVuSans-73"/>
     <use x="2758.890625" xlink:href="#DejaVuSans-20"/>
     <use x="2790.677734" xlink:href="#DejaVuSans-63"/>
     <use x="2845.658203" xlink:href="#DejaVuSans-6f"/>
     <use x="2906.839844" xlink:href="#DejaVuSans-6e"/>
     <use x="2970.21875" xlink:href="#DejaVuSans-73"/>
     <use x="3022.318359" xlink:href="#DejaVuSans-69"/>
     <use x="3050.101562" xlink:href="#DejaVuSans-64"/>
     <use x="3113.578125" xlink:href="#DejaVuSans-e9"/>
     <use x="3175.101562" xlink:href="#DejaVuSans-72"/>
     <use x="3213.964844" xlink:href="#DejaVuSans-e9"/>
     <use x="3275.488281" xlink:href="#DejaVuSans-65"/>
     <use x="3337.011719" xlink:href="#DejaVuSans-73"/>
    </g>
   </g>
   <g id="legend_1">
    <g id="patch_7">
     <path d="M 88 104.70875 
L 205.915625 104.70875 
Q 207.915625 104.70875 207.915625 102.70875 
L 207.915625 58.84 
Q 207.915625 56.84 205.915625 56.84 
L 88 56.84 
Q 86 56.84 86 58.84 
L 86 102.70875 
Q 86 104.70875 88 104.70875 
z
" style="fill:#ffffff;opacity:0.8;stroke:#cccccc;stroke-linejoin:miter;"/>
    </g>
    <g id="line2d_16">
     <path d="M 90 64.938438 
L 110 64.938438 
" style="fill:none;stroke:#1f77b4;stroke-linecap:square;stroke-width:1.5;"/>
    </g>
    <g id="line2d_17"/>
    <g id="text_16">
     <!-- en_core_web_sm -->
     <g transform="translate(118 68.438438)scale(0.1 -0.1)">
      <defs>
       <path d="M 3263 -1063 
L 3263 -1509 
L -63 -1509 
L -63 -1063 
L 3263 -1063 
z
" id="DejaVuSans-5f" transform="scale(0.015625)"/>
       <path d="M 269 3500 
L 844 3500 
L 1563 769 
L 2278 3500 
L 2956 3500 
L 3675 769 
L 4391 3500 
L 4966 3500 
L 4050 0 
L 3372 0 
L 2619 2869 
L 1863 0 
L 1184 0 
L 269 3500 
z
" id="DejaVuSans-77" transform="scale(0.015625)"/>
      </defs>
      <use xlink:href="#DejaVuSans-65"/>
      <use x="61.523438" xlink:href="#DejaVuSans-6e"/>
      <use x="124.902344" xlink:href="#DejaVuSans-5f"/>
      <use x="174.902344" xlink:href="#DejaVuSans-63"/>
      <use x="229.882812" xlink:href="#DejaVuSans-6f"/>
      <use x="291.064453" xlink:href="#DejaVuSans-72"/>
      <use x="329.927734" xlink:href="#DejaVuSans-65"/>
      <use x="391.451172" xlink:href="#DejaVuSans-5f"/>
      <use x="441.451172" xlink:href="#DejaVuSans-77"/>
      <use x="523.238281" xlink:href="#DejaVuSans-65"/>
      <use x="584.761719" xlink:href="#DejaVuSans-62"/>
      <use x="648.238281" xlink:href="#DejaVuSans-5f"/>
      <use x="698.238281" xlink:href="#DejaVuSans-73"/>
      <use x="750.337891" xlink:href="#DejaVuSans-6d"/>
     </g>
    </g>
    <g id="line2d_18">
     <path d="M 90 79.894688 
L 110 79.894688 
" style="fill:none;stroke:#ff7f0e;stroke-linecap:square;stroke-width:1.5;"/>
    </g>
    <g id="line2d_19"/>
    <g id="text_17">
     <!-- en_core_web_md -->
     <g transform="translate(118 83.394688)scale(0.1 -0.1)">
      <use xlink:href="#DejaVuSans-65"/>
      <use x="61.523438" xlink:href="#DejaVuSans-6e"/>
      <use x="124.902344" xlink:href="#DejaVuSans-5f"/>
      <use x="174.902344" xlink:href="#DejaVuSans-63"/>
      <use x="229.882812" xlink:href="#DejaVuSans-6f"/>
      <use x="291.064453" xlink:href="#DejaVuSans-72"/>
      <use x="329.927734" xlink:href="#DejaVuSans-65"/>
      <use x="391.451172" xlink:href="#DejaVuSans-5f"/>
      <use x="441.451172" xlink:href="#DejaVuSans-77"/>
      <use x="523.238281" xlink:href="#DejaVuSans-65"/>
      <use x="584.761719" xlink:href="#DejaVuSans-62"/>
      <use x="648.238281" xlink:href="#DejaVuSans-5f"/>
      <use x="698.238281" xlink:href="#DejaVuSans-6d"/>
      <use x="795.650391" xlink:href="#DejaVuSans-64"/>
     </g>
    </g>
    <g id="line2d_20">
     <path d="M 90 94.850938 
L 110 94.850938 
" style="fill:none;stroke:#2ca02c;stroke-linecap:square;stroke-width:1.5;"/>
    </g>
    <g id="line2d_21"/>
    <g id="text_18">
     <!-- en_core_web_lg -->
     <g transform="translate(118 98.350938)scale(0.1 -0.1)">
      <defs>
       <path d="M 2906 1791 
Q 2906 2416 2648 2759 
Q 2391 3103 1925 3103 
Q 1463 3103 1205 2759 
Q 947 2416 947 1791 
Q 947 1169 1205 825 
Q 1463 481 1925 481 
Q 2391 481 2648 825 
Q 2906 1169 2906 1791 
z
M 3481 434 
Q 3481 -459 3084 -895 
Q 2688 -1331 1869 -1331 
Q 1566 -1331 1297 -1286 
Q 1028 -1241 775 -1147 
L 775 -588 
Q 1028 -725 1275 -790 
Q 1522 -856 1778 -856 
Q 2344 -856 2625 -561 
Q 2906 -266 2906 331 
L 2906 616 
Q 2728 306 2450 153 
Q 2172 0 1784 0 
Q 1141 0 747 490 
Q 353 981 353 1791 
Q 353 2603 747 3093 
Q 1141 3584 1784 3584 
Q 2172 3584 2450 3431 
Q 2728 3278 2906 2969 
L 2906 3500 
L 3481 3500 
L 3481 434 
z
" id="DejaVuSans-67" transform="scale(0.015625)"/>
      </defs>
      <use xlink:href="#DejaVuSans-65"/>
      <use x="61.523438" xlink:href="#DejaVuSans-6e"/>
      <use x="124.902344" xlink:href="#DejaVuSans-5f"/>
      <use x="174.902344" xlink:href="#DejaVuSans-63"/>
      <use x="229.882812" xlink:href="#DejaVuSans-6f"/>
      <use x="291.064453" xlink:href="#DejaVuSans-72"/>
      <use x="329.927734" xlink:href="#DejaVuSans-65"/>
      <use x="391.451172" xlink:href="#DejaVuSans-5f"/>
      <use x="441.451172" xlink:href="#DejaVuSans-77"/>
      <use x="523.238281" xlink:href="#DejaVuSans-65"/>
      <use x="584.761719" xlink:href="#DejaVuSans-62"/>
      <use x="648.238281" xlink:href="#DejaVuSans-5f"/>
      <use x="698.238281" xlink:href="#DejaVuSans-6c"/>
      <use x="726.021484" xlink:href="#DejaVuSans-67"/>
     </g>
    </g>
   </g>
  </g>
 </g>
 <defs>
  <clipPath id="pfd51c7152e">
   <rect height="332.64" width="502.2" x="81" y="51.84"/>
  </clipPath>
 </defs>
</svg>
