<?xml version="1.0" encoding="utf-8" standalone="no"?>
<!DOCTYPE svg PUBLIC "-//W3C//DTD SVG 1.1//EN"
  "http://www.w3.org/Graphics/SVG/1.1/DTD/svg11.dtd">
<!-- Created with matplotlib (https://matplotlib.org/) -->
<svg height="432pt" version="1.1" viewBox="0 0 648 432" width="648pt" xmlns="http://www.w3.org/2000/svg" xmlns:xlink="http://www.w3.org/1999/xlink">
 <metadata>
  <rdf:RDF xmlns:cc="http://creativecommons.org/ns#" xmlns:dc="http://purl.org/dc/elements/1.1/" xmlns:rdf="http://www.w3.org/1999/02/22-rdf-syntax-ns#">
   <cc:Work>
    <dc:type rdf:resource="http://purl.org/dc/dcmitype/StillImage"/>
    <dc:date>2021-11-06T14:33:08.010532</dc:date>
    <dc:format>image/svg+xml</dc:format>
    <dc:creator>
     <cc:Agent>
      <dc:title>Matplotlib v3.3.2, https://matplotlib.org/</dc:title>
     </cc:Agent>
    </dc:creator>
   </cc:Work>
  </rdf:RDF>
 </metadata>
 <defs>
  <style type="text/css">*{stroke-linecap:butt;stroke-linejoin:round;}</style>
 </defs>
 <g id="figure_1">
  <g id="patch_1">
   <path d="M 0 432 
L 648 432 
L 648 0 
L 0 0 
z
" style="fill:#ffffff;"/>
  </g>
  <g id="axes_1">
   <g id="patch_2">
    <path d="M 81 384.48 
L 583.2 384.48 
L 583.2 51.84 
L 81 51.84 
z
" style="fill:#ffffff;"/>
   </g>
   <g id="matplotlib.axis_1">
    <g id="xtick_1">
     <g id="line2d_1">
      <defs>
       <path d="M 0 0 
L 0 3.5 
" id="m037b1e870e" style="stroke:#000000;stroke-width:0.8;"/>
      </defs>
      <g>
       <use style="stroke:#000000;stroke-width:0.8;" x="103.827273" xlink:href="#m037b1e870e" y="384.48"/>
      </g>
     </g>
     <g id="text_1">
      <!-- 0 -->
      <g transform="translate(100.646023 399.078438)scale(0.1 -0.1)">
       <defs>
        <path d="M 31.78125 66.40625 
Q 24.171875 66.40625 20.328125 58.90625 
Q 16.5 51.421875 16.5 36.375 
Q 16.5 21.390625 20.328125 13.890625 
Q 24.171875 6.390625 31.78125 6.390625 
Q 39.453125 6.390625 43.28125 13.890625 
Q 47.125 21.390625 47.125 36.375 
Q 47.125 51.421875 43.28125 58.90625 
Q 39.453125 66.40625 31.78125 66.40625 
z
M 31.78125 74.21875 
Q 44.046875 74.21875 50.515625 64.515625 
Q 56.984375 54.828125 56.984375 36.375 
Q 56.984375 17.96875 50.515625 8.265625 
Q 44.046875 -1.421875 31.78125 -1.421875 
Q 19.53125 -1.421875 13.0625 8.265625 
Q 6.59375 17.96875 6.59375 36.375 
Q 6.59375 54.828125 13.0625 64.515625 
Q 19.53125 74.21875 31.78125 74.21875 
z
" id="DejaVuSans-48"/>
       </defs>
       <use xlink:href="#DejaVuSans-48"/>
      </g>
     </g>
    </g>
    <g id="xtick_2">
     <g id="line2d_2">
      <g>
       <use style="stroke:#000000;stroke-width:0.8;" x="195.136364" xlink:href="#m037b1e870e" y="384.48"/>
      </g>
     </g>
     <g id="text_2">
      <!-- 10000 -->
      <g transform="translate(179.230114 399.078438)scale(0.1 -0.1)">
       <defs>
        <path d="M 12.40625 8.296875 
L 28.515625 8.296875 
L 28.515625 63.921875 
L 10.984375 60.40625 
L 10.984375 69.390625 
L 28.421875 72.90625 
L 38.28125 72.90625 
L 38.28125 8.296875 
L 54.390625 8.296875 
L 54.390625 0 
L 12.40625 0 
z
" id="DejaVuSans-49"/>
       </defs>
       <use xlink:href="#DejaVuSans-49"/>
       <use x="63.623047" xlink:href="#DejaVuSans-48"/>
       <use x="127.246094" xlink:href="#DejaVuSans-48"/>
       <use x="190.869141" xlink:href="#DejaVuSans-48"/>
       <use x="254.492188" xlink:href="#DejaVuSans-48"/>
      </g>
     </g>
    </g>
    <g id="xtick_3">
     <g id="line2d_3">
      <g>
       <use style="stroke:#000000;stroke-width:0.8;" x="286.445455" xlink:href="#m037b1e870e" y="384.48"/>
      </g>
     </g>
     <g id="text_3">
      <!-- 20000 -->
      <g transform="translate(270.539205 399.078438)scale(0.1 -0.1)">
       <defs>
        <path d="M 19.1875 8.296875 
L 53.609375 8.296875 
L 53.609375 0 
L 7.328125 0 
L 7.328125 8.296875 
Q 12.9375 14.109375 22.625 23.890625 
Q 32.328125 33.6875 34.8125 36.53125 
Q 39.546875 41.84375 41.421875 45.53125 
Q 43.3125 49.21875 43.3125 52.78125 
Q 43.3125 58.59375 39.234375 62.25 
Q 35.15625 65.921875 28.609375 65.921875 
Q 23.96875 65.921875 18.8125 64.3125 
Q 13.671875 62.703125 7.8125 59.421875 
L 7.8125 69.390625 
Q 13.765625 71.78125 18.9375 73 
Q 24.125 74.21875 28.421875 74.21875 
Q 39.75 74.21875 46.484375 68.546875 
Q 53.21875 62.890625 53.21875 53.421875 
Q 53.21875 48.921875 51.53125 44.890625 
Q 49.859375 40.875 45.40625 35.40625 
Q 44.1875 33.984375 37.640625 27.21875 
Q 31.109375 20.453125 19.1875 8.296875 
z
" id="DejaVuSans-50"/>
       </defs>
       <use xlink:href="#DejaVuSans-50"/>
       <use x="63.623047" xlink:href="#DejaVuSans-48"/>
       <use x="127.246094" xlink:href="#DejaVuSans-48"/>
       <use x="190.869141" xlink:href="#DejaVuSans-48"/>
       <use x="254.492188" xlink:href="#DejaVuSans-48"/>
      </g>
     </g>
    </g>
    <g id="xtick_4">
     <g id="line2d_4">
      <g>
       <use style="stroke:#000000;stroke-width:0.8;" x="377.754545" xlink:href="#m037b1e870e" y="384.48"/>
      </g>
     </g>
     <g id="text_4">
      <!-- 30000 -->
      <g transform="translate(361.848295 399.078438)scale(0.1 -0.1)">
       <defs>
        <path d="M 40.578125 39.3125 
Q 47.65625 37.796875 51.625 33 
Q 55.609375 28.21875 55.609375 21.1875 
Q 55.609375 10.40625 48.1875 4.484375 
Q 40.765625 -1.421875 27.09375 -1.421875 
Q 22.515625 -1.421875 17.65625 -0.515625 
Q 12.796875 0.390625 7.625 2.203125 
L 7.625 11.71875 
Q 11.71875 9.328125 16.59375 8.109375 
Q 21.484375 6.890625 26.8125 6.890625 
Q 36.078125 6.890625 40.9375 10.546875 
Q 45.796875 14.203125 45.796875 21.1875 
Q 45.796875 27.640625 41.28125 31.265625 
Q 36.765625 34.90625 28.71875 34.90625 
L 20.21875 34.90625 
L 20.21875 43.015625 
L 29.109375 43.015625 
Q 36.375 43.015625 40.234375 45.921875 
Q 44.09375 48.828125 44.09375 54.296875 
Q 44.09375 59.90625 40.109375 62.90625 
Q 36.140625 65.921875 28.71875 65.921875 
Q 24.65625 65.921875 20.015625 65.03125 
Q 15.375 64.15625 9.8125 62.3125 
L 9.8125 71.09375 
Q 15.4375 72.65625 20.34375 73.4375 
Q 25.25 74.21875 29.59375 74.21875 
Q 40.828125 74.21875 47.359375 69.109375 
Q 53.90625 64.015625 53.90625 55.328125 
Q 53.90625 49.265625 50.4375 45.09375 
Q 46.96875 40.921875 40.578125 39.3125 
z
" id="DejaVuSans-51"/>
       </defs>
       <use xlink:href="#DejaVuSans-51"/>
       <use x="63.623047" xlink:href="#DejaVuSans-48"/>
       <use x="127.246094" xlink:href="#DejaVuSans-48"/>
       <use x="190.869141" xlink:href="#DejaVuSans-48"/>
       <use x="254.492188" xlink:href="#DejaVuSans-48"/>
      </g>
     </g>
    </g>
    <g id="xtick_5">
     <g id="line2d_5">
      <g>
       <use style="stroke:#000000;stroke-width:0.8;" x="469.063636" xlink:href="#m037b1e870e" y="384.48"/>
      </g>
     </g>
     <g id="text_5">
      <!-- 40000 -->
      <g transform="translate(453.157386 399.078438)scale(0.1 -0.1)">
       <defs>
        <path d="M 37.796875 64.3125 
L 12.890625 25.390625 
L 37.796875 25.390625 
z
M 35.203125 72.90625 
L 47.609375 72.90625 
L 47.609375 25.390625 
L 58.015625 25.390625 
L 58.015625 17.1875 
L 47.609375 17.1875 
L 47.609375 0 
L 37.796875 0 
L 37.796875 17.1875 
L 4.890625 17.1875 
L 4.890625 26.703125 
z
" id="DejaVuSans-52"/>
       </defs>
       <use xlink:href="#DejaVuSans-52"/>
       <use x="63.623047" xlink:href="#DejaVuSans-48"/>
       <use x="127.246094" xlink:href="#DejaVuSans-48"/>
       <use x="190.869141" xlink:href="#DejaVuSans-48"/>
       <use x="254.492188" xlink:href="#DejaVuSans-48"/>
      </g>
     </g>
    </g>
    <g id="xtick_6">
     <g id="line2d_6">
      <g>
       <use style="stroke:#000000;stroke-width:0.8;" x="560.372727" xlink:href="#m037b1e870e" y="384.48"/>
      </g>
     </g>
     <g id="text_6">
      <!-- 50000 -->
      <g transform="translate(544.466477 399.078438)scale(0.1 -0.1)">
       <defs>
        <path d="M 10.796875 72.90625 
L 49.515625 72.90625 
L 49.515625 64.59375 
L 19.828125 64.59375 
L 19.828125 46.734375 
Q 21.96875 47.46875 24.109375 47.828125 
Q 26.265625 48.1875 28.421875 48.1875 
Q 40.625 48.1875 47.75 41.5 
Q 54.890625 34.8125 54.890625 23.390625 
Q 54.890625 11.625 47.5625 5.09375 
Q 40.234375 -1.421875 26.90625 -1.421875 
Q 22.3125 -1.421875 17.546875 -0.640625 
Q 12.796875 0.140625 7.71875 1.703125 
L 7.71875 11.625 
Q 12.109375 9.234375 16.796875 8.0625 
Q 21.484375 6.890625 26.703125 6.890625 
Q 35.15625 6.890625 40.078125 11.328125 
Q 45.015625 15.765625 45.015625 23.390625 
Q 45.015625 31 40.078125 35.4375 
Q 35.15625 39.890625 26.703125 39.890625 
Q 22.75 39.890625 18.8125 39.015625 
Q 14.890625 38.140625 10.796875 36.28125 
z
" id="DejaVuSans-53"/>
       </defs>
       <use xlink:href="#DejaVuSans-53"/>
       <use x="63.623047" xlink:href="#DejaVuSans-48"/>
       <use x="127.246094" xlink:href="#DejaVuSans-48"/>
       <use x="190.869141" xlink:href="#DejaVuSans-48"/>
       <use x="254.492188" xlink:href="#DejaVuSans-48"/>
      </g>
     </g>
    </g>
    <g id="text_7">
     <!-- Nombre de phrases considérées -->
     <g transform="translate(251.546875 413.156563)scale(0.1 -0.1)">
      <defs>
       <path d="M 9.8125 72.90625 
L 23.09375 72.90625 
L 55.421875 11.921875 
L 55.421875 72.90625 
L 64.984375 72.90625 
L 64.984375 0 
L 51.703125 0 
L 19.390625 60.984375 
L 19.390625 0 
L 9.8125 0 
z
" id="DejaVuSans-78"/>
       <path d="M 30.609375 48.390625 
Q 23.390625 48.390625 19.1875 42.75 
Q 14.984375 37.109375 14.984375 27.296875 
Q 14.984375 17.484375 19.15625 11.84375 
Q 23.34375 6.203125 30.609375 6.203125 
Q 37.796875 6.203125 41.984375 11.859375 
Q 46.1875 17.53125 46.1875 27.296875 
Q 46.1875 37.015625 41.984375 42.703125 
Q 37.796875 48.390625 30.609375 48.390625 
z
M 30.609375 56 
Q 42.328125 56 49.015625 48.375 
Q 55.71875 40.765625 55.71875 27.296875 
Q 55.71875 13.875 49.015625 6.21875 
Q 42.328125 -1.421875 30.609375 -1.421875 
Q 18.84375 -1.421875 12.171875 6.21875 
Q 5.515625 13.875 5.515625 27.296875 
Q 5.515625 40.765625 12.171875 48.375 
Q 18.84375 56 30.609375 56 
z
" id="DejaVuSans-111"/>
       <path d="M 52 44.1875 
Q 55.375 50.25 60.0625 53.125 
Q 64.75 56 71.09375 56 
Q 79.640625 56 84.28125 50.015625 
Q 88.921875 44.046875 88.921875 33.015625 
L 88.921875 0 
L 79.890625 0 
L 79.890625 32.71875 
Q 79.890625 40.578125 77.09375 44.375 
Q 74.3125 48.1875 68.609375 48.1875 
Q 61.625 48.1875 57.5625 43.546875 
Q 53.515625 38.921875 53.515625 30.90625 
L 53.515625 0 
L 44.484375 0 
L 44.484375 32.71875 
Q 44.484375 40.625 41.703125 44.40625 
Q 38.921875 48.1875 33.109375 48.1875 
Q 26.21875 48.1875 22.15625 43.53125 
Q 18.109375 38.875 18.109375 30.90625 
L 18.109375 0 
L 9.078125 0 
L 9.078125 54.6875 
L 18.109375 54.6875 
L 18.109375 46.1875 
Q 21.1875 51.21875 25.484375 53.609375 
Q 29.78125 56 35.6875 56 
Q 41.65625 56 45.828125 52.96875 
Q 50 49.953125 52 44.1875 
z
" id="DejaVuSans-109"/>
       <path d="M 48.6875 27.296875 
Q 48.6875 37.203125 44.609375 42.84375 
Q 40.53125 48.484375 33.40625 48.484375 
Q 26.265625 48.484375 22.1875 42.84375 
Q 18.109375 37.203125 18.109375 27.296875 
Q 18.109375 17.390625 22.1875 11.75 
Q 26.265625 6.109375 33.40625 6.109375 
Q 40.53125 6.109375 44.609375 11.75 
Q 48.6875 17.390625 48.6875 27.296875 
z
M 18.109375 46.390625 
Q 20.953125 51.265625 25.265625 53.625 
Q 29.59375 56 35.59375 56 
Q 45.5625 56 51.78125 48.09375 
Q 58.015625 40.1875 58.015625 27.296875 
Q 58.015625 14.40625 51.78125 6.484375 
Q 45.5625 -1.421875 35.59375 -1.421875 
Q 29.59375 -1.421875 25.265625 0.953125 
Q 20.953125 3.328125 18.109375 8.203125 
L 18.109375 0 
L 9.078125 0 
L 9.078125 75.984375 
L 18.109375 75.984375 
z
" id="DejaVuSans-98"/>
       <path d="M 41.109375 46.296875 
Q 39.59375 47.171875 37.8125 47.578125 
Q 36.03125 48 33.890625 48 
Q 26.265625 48 22.1875 43.046875 
Q 18.109375 38.09375 18.109375 28.8125 
L 18.109375 0 
L 9.078125 0 
L 9.078125 54.6875 
L 18.109375 54.6875 
L 18.109375 46.1875 
Q 20.953125 51.171875 25.484375 53.578125 
Q 30.03125 56 36.53125 56 
Q 37.453125 56 38.578125 55.875 
Q 39.703125 55.765625 41.0625 55.515625 
z
" id="DejaVuSans-114"/>
       <path d="M 56.203125 29.59375 
L 56.203125 25.203125 
L 14.890625 25.203125 
Q 15.484375 15.921875 20.484375 11.0625 
Q 25.484375 6.203125 34.421875 6.203125 
Q 39.59375 6.203125 44.453125 7.46875 
Q 49.3125 8.734375 54.109375 11.28125 
L 54.109375 2.78125 
Q 49.265625 0.734375 44.1875 -0.34375 
Q 39.109375 -1.421875 33.890625 -1.421875 
Q 20.796875 -1.421875 13.15625 6.1875 
Q 5.515625 13.8125 5.515625 26.8125 
Q 5.515625 40.234375 12.765625 48.109375 
Q 20.015625 56 32.328125 56 
Q 43.359375 56 49.78125 48.890625 
Q 56.203125 41.796875 56.203125 29.59375 
z
M 47.21875 32.234375 
Q 47.125 39.59375 43.09375 43.984375 
Q 39.0625 48.390625 32.421875 48.390625 
Q 24.90625 48.390625 20.390625 44.140625 
Q 15.875 39.890625 15.1875 32.171875 
z
" id="DejaVuSans-101"/>
       <path id="DejaVuSans-32"/>
       <path d="M 45.40625 46.390625 
L 45.40625 75.984375 
L 54.390625 75.984375 
L 54.390625 0 
L 45.40625 0 
L 45.40625 8.203125 
Q 42.578125 3.328125 38.25 0.953125 
Q 33.9375 -1.421875 27.875 -1.421875 
Q 17.96875 -1.421875 11.734375 6.484375 
Q 5.515625 14.40625 5.515625 27.296875 
Q 5.515625 40.1875 11.734375 48.09375 
Q 17.96875 56 27.875 56 
Q 33.9375 56 38.25 53.625 
Q 42.578125 51.265625 45.40625 46.390625 
z
M 14.796875 27.296875 
Q 14.796875 17.390625 18.875 11.75 
Q 22.953125 6.109375 30.078125 6.109375 
Q 37.203125 6.109375 41.296875 11.75 
Q 45.40625 17.390625 45.40625 27.296875 
Q 45.40625 37.203125 41.296875 42.84375 
Q 37.203125 48.484375 30.078125 48.484375 
Q 22.953125 48.484375 18.875 42.84375 
Q 14.796875 37.203125 14.796875 27.296875 
z
" id="DejaVuSans-100"/>
       <path d="M 18.109375 8.203125 
L 18.109375 -20.796875 
L 9.078125 -20.796875 
L 9.078125 54.6875 
L 18.109375 54.6875 
L 18.109375 46.390625 
Q 20.953125 51.265625 25.265625 53.625 
Q 29.59375 56 35.59375 56 
Q 45.5625 56 51.78125 48.09375 
Q 58.015625 40.1875 58.015625 27.296875 
Q 58.015625 14.40625 51.78125 6.484375 
Q 45.5625 -1.421875 35.59375 -1.421875 
Q 29.59375 -1.421875 25.265625 0.953125 
Q 20.953125 3.328125 18.109375 8.203125 
z
M 48.6875 27.296875 
Q 48.6875 37.203125 44.609375 42.84375 
Q 40.53125 48.484375 33.40625 48.484375 
Q 26.265625 48.484375 22.1875 42.84375 
Q 18.109375 37.203125 18.109375 27.296875 
Q 18.109375 17.390625 22.1875 11.75 
Q 26.265625 6.109375 33.40625 6.109375 
Q 40.53125 6.109375 44.609375 11.75 
Q 48.6875 17.390625 48.6875 27.296875 
z
" id="DejaVuSans-112"/>
       <path d="M 54.890625 33.015625 
L 54.890625 0 
L 45.90625 0 
L 45.90625 32.71875 
Q 45.90625 40.484375 42.875 44.328125 
Q 39.84375 48.1875 33.796875 48.1875 
Q 26.515625 48.1875 22.3125 43.546875 
Q 18.109375 38.921875 18.109375 30.90625 
L 18.109375 0 
L 9.078125 0 
L 9.078125 75.984375 
L 18.109375 75.984375 
L 18.109375 46.1875 
Q 21.34375 51.125 25.703125 53.5625 
Q 30.078125 56 35.796875 56 
Q 45.21875 56 50.046875 50.171875 
Q 54.890625 44.34375 54.890625 33.015625 
z
" id="DejaVuSans-104"/>
       <path d="M 34.28125 27.484375 
Q 23.390625 27.484375 19.1875 25 
Q 14.984375 22.515625 14.984375 16.5 
Q 14.984375 11.71875 18.140625 8.90625 
Q 21.296875 6.109375 26.703125 6.109375 
Q 34.1875 6.109375 38.703125 11.40625 
Q 43.21875 16.703125 43.21875 25.484375 
L 43.21875 27.484375 
z
M 52.203125 31.203125 
L 52.203125 0 
L 43.21875 0 
L 43.21875 8.296875 
Q 40.140625 3.328125 35.546875 0.953125 
Q 30.953125 -1.421875 24.3125 -1.421875 
Q 15.921875 -1.421875 10.953125 3.296875 
Q 6 8.015625 6 15.921875 
Q 6 25.140625 12.171875 29.828125 
Q 18.359375 34.515625 30.609375 34.515625 
L 43.21875 34.515625 
L 43.21875 35.40625 
Q 43.21875 41.609375 39.140625 45 
Q 35.0625 48.390625 27.6875 48.390625 
Q 23 48.390625 18.546875 47.265625 
Q 14.109375 46.140625 10.015625 43.890625 
L 10.015625 52.203125 
Q 14.9375 54.109375 19.578125 55.046875 
Q 24.21875 56 28.609375 56 
Q 40.484375 56 46.34375 49.84375 
Q 52.203125 43.703125 52.203125 31.203125 
z
" id="DejaVuSans-97"/>
       <path d="M 44.28125 53.078125 
L 44.28125 44.578125 
Q 40.484375 46.53125 36.375 47.5 
Q 32.28125 48.484375 27.875 48.484375 
Q 21.1875 48.484375 17.84375 46.4375 
Q 14.5 44.390625 14.5 40.28125 
Q 14.5 37.15625 16.890625 35.375 
Q 19.28125 33.59375 26.515625 31.984375 
L 29.59375 31.296875 
Q 39.15625 29.25 43.1875 25.515625 
Q 47.21875 21.78125 47.21875 15.09375 
Q 47.21875 7.46875 41.1875 3.015625 
Q 35.15625 -1.421875 24.609375 -1.421875 
Q 20.21875 -1.421875 15.453125 -0.5625 
Q 10.6875 0.296875 5.421875 2 
L 5.421875 11.28125 
Q 10.40625 8.6875 15.234375 7.390625 
Q 20.0625 6.109375 24.8125 6.109375 
Q 31.15625 6.109375 34.5625 8.28125 
Q 37.984375 10.453125 37.984375 14.40625 
Q 37.984375 18.0625 35.515625 20.015625 
Q 33.0625 21.96875 24.703125 23.78125 
L 21.578125 24.515625 
Q 13.234375 26.265625 9.515625 29.90625 
Q 5.8125 33.546875 5.8125 39.890625 
Q 5.8125 47.609375 11.28125 51.796875 
Q 16.75 56 26.8125 56 
Q 31.78125 56 36.171875 55.265625 
Q 40.578125 54.546875 44.28125 53.078125 
z
" id="DejaVuSans-115"/>
       <path d="M 48.78125 52.59375 
L 48.78125 44.1875 
Q 44.96875 46.296875 41.140625 47.34375 
Q 37.3125 48.390625 33.40625 48.390625 
Q 24.65625 48.390625 19.8125 42.84375 
Q 14.984375 37.3125 14.984375 27.296875 
Q 14.984375 17.28125 19.8125 11.734375 
Q 24.65625 6.203125 33.40625 6.203125 
Q 37.3125 6.203125 41.140625 7.25 
Q 44.96875 8.296875 48.78125 10.40625 
L 48.78125 2.09375 
Q 45.015625 0.34375 40.984375 -0.53125 
Q 36.96875 -1.421875 32.421875 -1.421875 
Q 20.0625 -1.421875 12.78125 6.34375 
Q 5.515625 14.109375 5.515625 27.296875 
Q 5.515625 40.671875 12.859375 48.328125 
Q 20.21875 56 33.015625 56 
Q 37.15625 56 41.109375 55.140625 
Q 45.0625 54.296875 48.78125 52.59375 
z
" id="DejaVuSans-99"/>
       <path d="M 54.890625 33.015625 
L 54.890625 0 
L 45.90625 0 
L 45.90625 32.71875 
Q 45.90625 40.484375 42.875 44.328125 
Q 39.84375 48.1875 33.796875 48.1875 
Q 26.515625 48.1875 22.3125 43.546875 
Q 18.109375 38.921875 18.109375 30.90625 
L 18.109375 0 
L 9.078125 0 
L 9.078125 54.6875 
L 18.109375 54.6875 
L 18.109375 46.1875 
Q 21.34375 51.125 25.703125 53.5625 
Q 30.078125 56 35.796875 56 
Q 45.21875 56 50.046875 50.171875 
Q 54.890625 44.34375 54.890625 33.015625 
z
" id="DejaVuSans-110"/>
       <path d="M 9.421875 54.6875 
L 18.40625 54.6875 
L 18.40625 0 
L 9.421875 0 
z
M 9.421875 75.984375 
L 18.40625 75.984375 
L 18.40625 64.59375 
L 9.421875 64.59375 
z
" id="DejaVuSans-105"/>
       <path d="M 56.203125 29.59375 
L 56.203125 25.203125 
L 14.890625 25.203125 
Q 15.484375 15.921875 20.484375 11.0625 
Q 25.484375 6.203125 34.421875 6.203125 
Q 39.59375 6.203125 44.453125 7.46875 
Q 49.3125 8.734375 54.109375 11.28125 
L 54.109375 2.78125 
Q 49.265625 0.734375 44.1875 -0.34375 
Q 39.109375 -1.421875 33.890625 -1.421875 
Q 20.796875 -1.421875 13.15625 6.1875 
Q 5.515625 13.8125 5.515625 26.8125 
Q 5.515625 40.234375 12.765625 48.109375 
Q 20.015625 56 32.328125 56 
Q 43.359375 56 49.78125 48.890625 
Q 56.203125 41.796875 56.203125 29.59375 
z
M 47.21875 32.234375 
Q 47.125 39.59375 43.09375 43.984375 
Q 39.0625 48.390625 32.421875 48.390625 
Q 24.90625 48.390625 20.390625 44.140625 
Q 15.875 39.890625 15.1875 32.171875 
z
M 38.578125 79.984375 
L 48.296875 79.984375 
L 32.375 61.625 
L 24.90625 61.625 
z
" id="DejaVuSans-233"/>
      </defs>
      <use xlink:href="#DejaVuSans-78"/>
      <use x="74.804688" xlink:href="#DejaVuSans-111"/>
      <use x="135.986328" xlink:href="#DejaVuSans-109"/>
      <use x="233.398438" xlink:href="#DejaVuSans-98"/>
      <use x="296.875" xlink:href="#DejaVuSans-114"/>
      <use x="335.738281" xlink:href="#DejaVuSans-101"/>
      <use x="397.261719" xlink:href="#DejaVuSans-32"/>
      <use x="429.048828" xlink:href="#DejaVuSans-100"/>
      <use x="492.525391" xlink:href="#DejaVuSans-101"/>
      <use x="554.048828" xlink:href="#DejaVuSans-32"/>
      <use x="585.835938" xlink:href="#DejaVuSans-112"/>
      <use x="649.3125" xlink:href="#DejaVuSans-104"/>
      <use x="712.691406" xlink:href="#DejaVuSans-114"/>
      <use x="753.804688" xlink:href="#DejaVuSans-97"/>
      <use x="815.083984" xlink:href="#DejaVuSans-115"/>
      <use x="867.183594" xlink:href="#DejaVuSans-101"/>
      <use x="928.707031" xlink:href="#DejaVuSans-115"/>
      <use x="980.806641" xlink:href="#DejaVuSans-32"/>
      <use x="1012.59375" xlink:href="#DejaVuSans-99"/>
      <use x="1067.574219" xlink:href="#DejaVuSans-111"/>
      <use x="1128.755859" xlink:href="#DejaVuSans-110"/>
      <use x="1192.134766" xlink:href="#DejaVuSans-115"/>
      <use x="1244.234375" xlink:href="#DejaVuSans-105"/>
      <use x="1272.017578" xlink:href="#DejaVuSans-100"/>
      <use x="1335.494141" xlink:href="#DejaVuSans-233"/>
      <use x="1397.017578" xlink:href="#DejaVuSans-114"/>
      <use x="1435.880859" xlink:href="#DejaVuSans-233"/>
      <use x="1497.404297" xlink:href="#DejaVuSans-101"/>
      <use x="1558.927734" xlink:href="#DejaVuSans-115"/>
     </g>
    </g>
   </g>
   <g id="matplotlib.axis_2">
    <g id="ytick_1">
     <g id="line2d_7">
      <defs>
       <path d="M 0 0 
L -3.5 0 
" id="m1eda7acd53" style="stroke:#000000;stroke-width:0.8;"/>
      </defs>
      <g>
       <use style="stroke:#000000;stroke-width:0.8;" x="81" xlink:href="#m1eda7acd53" y="369.36"/>
      </g>
     </g>
     <g id="text_8">
      <!-- 0 -->
      <g transform="translate(67.6375 373.159219)scale(0.1 -0.1)">
       <use xlink:href="#DejaVuSans-48"/>
      </g>
     </g>
    </g>
    <g id="ytick_2">
     <g id="line2d_8">
      <g>
       <use style="stroke:#000000;stroke-width:0.8;" x="81" xlink:href="#m1eda7acd53" y="299.246719"/>
      </g>
     </g>
     <g id="text_9">
      <!-- 100 -->
      <g transform="translate(54.9125 303.045938)scale(0.1 -0.1)">
       <use xlink:href="#DejaVuSans-49"/>
       <use x="63.623047" xlink:href="#DejaVuSans-48"/>
       <use x="127.246094" xlink:href="#DejaVuSans-48"/>
      </g>
     </g>
    </g>
    <g id="ytick_3">
     <g id="line2d_9">
      <g>
       <use style="stroke:#000000;stroke-width:0.8;" x="81" xlink:href="#m1eda7acd53" y="229.133439"/>
      </g>
     </g>
     <g id="text_10">
      <!-- 200 -->
      <g transform="translate(54.9125 232.932658)scale(0.1 -0.1)">
       <use xlink:href="#DejaVuSans-50"/>
       <use x="63.623047" xlink:href="#DejaVuSans-48"/>
       <use x="127.246094" xlink:href="#DejaVuSans-48"/>
      </g>
     </g>
    </g>
    <g id="ytick_4">
     <g id="line2d_10">
      <g>
       <use style="stroke:#000000;stroke-width:0.8;" x="81" xlink:href="#m1eda7acd53" y="159.020158"/>
      </g>
     </g>
     <g id="text_11">
      <!-- 300 -->
      <g transform="translate(54.9125 162.819377)scale(0.1 -0.1)">
       <use xlink:href="#DejaVuSans-51"/>
       <use x="63.623047" xlink:href="#DejaVuSans-48"/>
       <use x="127.246094" xlink:href="#DejaVuSans-48"/>
      </g>
     </g>
    </g>
    <g id="ytick_5">
     <g id="line2d_11">
      <g>
       <use style="stroke:#000000;stroke-width:0.8;" x="81" xlink:href="#m1eda7acd53" y="88.906878"/>
      </g>
     </g>
     <g id="text_12">
      <!-- 400 -->
      <g transform="translate(54.9125 92.706097)scale(0.1 -0.1)">
       <use xlink:href="#DejaVuSans-52"/>
       <use x="63.623047" xlink:href="#DejaVuSans-48"/>
       <use x="127.246094" xlink:href="#DejaVuSans-48"/>
      </g>
     </g>
    </g>
    <g id="text_13">
     <!-- Le temps d'analyse (en sec) -->
     <g transform="translate(48.832812 288.429531)rotate(-90)scale(0.1 -0.1)">
      <defs>
       <path d="M 9.8125 72.90625 
L 19.671875 72.90625 
L 19.671875 8.296875 
L 55.171875 8.296875 
L 55.171875 0 
L 9.8125 0 
z
" id="DejaVuSans-76"/>
       <path d="M 18.3125 70.21875 
L 18.3125 54.6875 
L 36.8125 54.6875 
L 36.8125 47.703125 
L 18.3125 47.703125 
L 18.3125 18.015625 
Q 18.3125 11.328125 20.140625 9.421875 
Q 21.96875 7.515625 27.59375 7.515625 
L 36.8125 7.515625 
L 36.8125 0 
L 27.59375 0 
Q 17.1875 0 13.234375 3.875 
Q 9.28125 7.765625 9.28125 18.015625 
L 9.28125 47.703125 
L 2.6875 47.703125 
L 2.6875 54.6875 
L 9.28125 54.6875 
L 9.28125 70.21875 
z
" id="DejaVuSans-116"/>
       <path d="M 17.921875 72.90625 
L 17.921875 45.796875 
L 9.625 45.796875 
L 9.625 72.90625 
z
" id="DejaVuSans-39"/>
       <path d="M 9.421875 75.984375 
L 18.40625 75.984375 
L 18.40625 0 
L 9.421875 0 
z
" id="DejaVuSans-108"/>
       <path d="M 32.171875 -5.078125 
Q 28.375 -14.84375 24.75 -17.8125 
Q 21.140625 -20.796875 15.09375 -20.796875 
L 7.90625 -20.796875 
L 7.90625 -13.28125 
L 13.1875 -13.28125 
Q 16.890625 -13.28125 18.9375 -11.515625 
Q 21 -9.765625 23.484375 -3.21875 
L 25.09375 0.875 
L 2.984375 54.6875 
L 12.5 54.6875 
L 29.59375 11.921875 
L 46.6875 54.6875 
L 56.203125 54.6875 
z
" id="DejaVuSans-121"/>
       <path d="M 31 75.875 
Q 24.46875 64.65625 21.28125 53.65625 
Q 18.109375 42.671875 18.109375 31.390625 
Q 18.109375 20.125 21.3125 9.0625 
Q 24.515625 -2 31 -13.1875 
L 23.1875 -13.1875 
Q 15.875 -1.703125 12.234375 9.375 
Q 8.59375 20.453125 8.59375 31.390625 
Q 8.59375 42.28125 12.203125 53.3125 
Q 15.828125 64.359375 23.1875 75.875 
z
" id="DejaVuSans-40"/>
       <path d="M 8.015625 75.875 
L 15.828125 75.875 
Q 23.140625 64.359375 26.78125 53.3125 
Q 30.421875 42.28125 30.421875 31.390625 
Q 30.421875 20.453125 26.78125 9.375 
Q 23.140625 -1.703125 15.828125 -13.1875 
L 8.015625 -13.1875 
Q 14.5 -2 17.703125 9.0625 
Q 20.90625 20.125 20.90625 31.390625 
Q 20.90625 42.671875 17.703125 53.65625 
Q 14.5 64.65625 8.015625 75.875 
z
" id="DejaVuSans-41"/>
      </defs>
      <use xlink:href="#DejaVuSans-76"/>
      <use x="53.962891" xlink:href="#DejaVuSans-101"/>
      <use x="115.486328" xlink:href="#DejaVuSans-32"/>
      <use x="147.273438" xlink:href="#DejaVuSans-116"/>
      <use x="186.482422" xlink:href="#DejaVuSans-101"/>
      <use x="248.005859" xlink:href="#DejaVuSans-109"/>
      <use x="345.417969" xlink:href="#DejaVuSans-112"/>
      <use x="408.894531" xlink:href="#DejaVuSans-115"/>
      <use x="460.994141" xlink:href="#DejaVuSans-32"/>
      <use x="492.78125" xlink:href="#DejaVuSans-100"/>
      <use x="556.257812" xlink:href="#DejaVuSans-39"/>
      <use x="583.748047" xlink:href="#DejaVuSans-97"/>
      <use x="645.027344" xlink:href="#DejaVuSans-110"/>
      <use x="708.40625" xlink:href="#DejaVuSans-97"/>
      <use x="769.685547" xlink:href="#DejaVuSans-108"/>
      <use x="797.46875" xlink:href="#DejaVuSans-121"/>
      <use x="856.648438" xlink:href="#DejaVuSans-115"/>
      <use x="908.748047" xlink:href="#DejaVuSans-101"/>
      <use x="970.271484" xlink:href="#DejaVuSans-32"/>
      <use x="1002.058594" xlink:href="#DejaVuSans-40"/>
      <use x="1041.072266" xlink:href="#DejaVuSans-101"/>
      <use x="1102.595703" xlink:href="#DejaVuSans-110"/>
      <use x="1165.974609" xlink:href="#DejaVuSans-32"/>
      <use x="1197.761719" xlink:href="#DejaVuSans-115"/>
      <use x="1249.861328" xlink:href="#DejaVuSans-101"/>
      <use x="1311.384766" xlink:href="#DejaVuSans-99"/>
      <use x="1366.365234" xlink:href="#DejaVuSans-41"/>
     </g>
    </g>
   </g>
   <g id="line2d_12">
    <path clip-path="url(#p22fcfa299c)" d="M 103.827273 369.36 
L 104.183378 369.135351 
L 104.813411 368.725517 
L 106.064345 367.816471 
L 111.698116 364.226384 
L 112.218578 363.862232 
L 112.848611 363.452428 
L 113.177324 363.240443 
L 113.670393 362.860511 
L 113.84388 362.662718 
L 114.428258 362.240003 
L 116.920996 360.657187 
L 117.651469 360.200172 
L 133.703607 350.217344 
L 133.858833 350.117595 
L 134.315378 349.841387 
L 134.461473 349.714804 
L 134.689745 349.595584 
L 136.333309 348.589781 
L 137.155091 348.089319 
L 139.364771 346.695254 
L 139.976542 346.347468 
L 140.150029 346.229488 
L 140.506135 346.005417 
L 141.127036 345.624362 
L 141.7662 345.260128 
L 142.222745 344.981179 
L 143.857178 343.97647 
L 144.651567 343.489902 
L 144.898102 343.323849 
L 147.774338 341.426704 
L 147.975218 341.313477 
L 148.650905 340.825607 
L 149.09832 340.535342 
L 153.125051 337.895207 
L 154.001618 337.284161 
L 154.631651 336.769813 
L 155.179505 336.412881 
L 155.544742 336.185941 
L 156.220429 335.805759 
L 157.13352 335.266758 
L 157.480495 335.033632 
L 167.57928 328.706407 
L 167.807553 328.502151 
L 168.291491 328.200611 
L 169.277629 327.42361 
L 170.108542 326.920276 
L 170.336815 326.772004 
L 170.99424 326.29413 
L 171.59688 325.927374 
L 172.053425 325.635392 
L 172.363876 325.444516 
L 173.660465 324.626335 
L 173.980047 324.406603 
L 174.664865 323.974219 
L 175.605349 323.387948 
L 176.408869 322.89703 
L 177.093687 322.479652 
L 177.787636 322.038697 
L 183.85056 318.000091 
L 184.142749 317.804486 
L 184.444069 317.557827 
L 184.918876 317.218495 
L 186.86376 315.870134 
L 187.512055 315.448345 
L 189.466069 314.21484 
L 189.730865 314.041371 
L 192.059247 312.485134 
L 192.433615 312.221167 
L 193.255396 311.721962 
L 194.807651 310.665978 
L 195.291589 310.323391 
L 195.766396 310.058101 
L 196.20468 309.734915 
L 196.60644 309.488623 
L 197.218211 309.135247 
L 197.884767 308.653218 
L 198.250004 308.397537 
L 198.861775 307.997129 
L 199.41876 307.631394 
L 199.902698 307.326662 
L 200.432291 306.960142 
L 201.263204 306.401453 
L 201.783665 306.085402 
L 219.588938 293.93669 
L 220.666385 293.234053 
L 224.857473 290.220148 
L 227.395865 288.31325 
L 228.171993 287.835058 
L 229.130738 287.23912 
L 230.85648 286.183014 
L 231.084753 286.014599 
L 234.527105 283.778274 
L 234.718855 283.660202 
L 235.467589 283.196104 
L 235.905873 282.913022 
L 236.627215 282.460314 
L 236.828095 282.321363 
L 239.384749 280.620617 
L 239.79564 280.36584 
L 240.343495 280.038127 
L 240.790909 279.747617 
L 241.512251 279.239963 
L 241.840964 279.011421 
L 242.297509 278.755788 
L 242.781447 278.428026 
L 245.2194 276.811489 
L 245.739862 276.514564 
L 246.278585 276.192181 
L 247.219069 275.586964 
L 248.022589 275.094445 
L 248.296516 274.911822 
L 251.419287 272.865418 
L 252.45108 272.211537 
L 253.172422 271.763739 
L 253.510265 271.541517 
L 253.985073 271.241372 
L 254.96208 270.632097 
L 255.46428 270.321479 
L 260.029735 267.2994 
L 260.376709 267.048568 
L 261.207622 266.492339 
L 262.266807 265.820211 
L 262.769007 265.473413 
L 263.033804 265.302117 
L 264.978687 263.982427 
L 265.161305 263.861331 
L 265.727422 263.527056 
L 266.092658 263.304954 
L 266.603989 262.95265 
L 266.814 262.820577 
L 270.210698 260.610395 
L 270.448102 260.461264 
L 270.977695 260.139913 
L 271.324669 259.941579 
L 271.872524 259.612362 
L 272.292545 259.302614 
L 272.575604 259.125692 
L 272.904316 258.890317 
L 273.159982 258.70561 
L 273.908716 258.184216 
L 274.100465 258.057756 
L 274.429178 257.818283 
L 274.776153 257.619897 
L 275.132258 257.367606 
L 275.45184 257.145451 
L 280.985171 253.45625 
L 283.797491 251.605813 
L 283.98924 251.481584 
L 284.372738 251.22412 
L 284.555356 251.088675 
L 285.313222 250.574957 
L 286.271967 250.007585 
L 288.801229 248.329863 
L 289.129942 248.10214 
L 291.869215 246.550233 
L 292.590556 246.153299 
L 296.078564 244.153322 
L 298.479993 242.627324 
L 299.046109 242.291843 
L 300.041378 241.711107 
L 303.9768 239.48521 
L 304.232465 239.341 
L 304.862498 238.980189 
L 307.446545 237.521296 
L 308.916622 236.720198 
L 314.185156 233.760556 
L 315.299127 233.12127 
L 315.965684 232.751264 
L 316.367444 232.530446 
L 317.13444 232.120364 
L 317.782735 231.751239 
L 321.745549 229.496542 
L 322.329927 229.150632 
L 323.370851 228.551151 
L 324.283942 227.986997 
L 325.260949 227.333882 
L 325.827065 226.989868 
L 326.941036 226.268589 
L 327.397582 225.946724 
L 328.639385 225.248973 
L 329.397251 224.806605 
L 331.771287 223.407731 
L 332.428713 223.043771 
L 334.364465 221.8779 
L 334.729702 221.643884 
L 336.135862 220.623662 
L 336.382396 220.453707 
L 337.496367 219.731337 
L 338.153793 219.272975 
L 338.875135 218.824299 
L 340.062153 218.13853 
L 340.473044 217.864059 
L 342.052691 216.900338 
L 342.774033 216.447512 
L 343.294495 216.126042 
L 344.006705 215.73265 
L 344.928927 215.186433 
L 345.695924 214.762474 
L 346.298564 214.446688 
L 348.581291 213.098509 
L 349.284371 212.686544 
L 350.343556 212.083935 
L 350.672269 211.8271 
L 356.013851 208.830818 
L 356.470396 208.558903 
L 360.551913 206.239628 
L 361.675015 205.550782 
L 364.103836 204.119437 
L 369.500204 200.927585 
L 370.248938 200.522374 
L 372.805593 199.022613 
L 374.595251 197.96808 
L 375.097451 197.657158 
L 376.585789 196.839035 
L 377.325393 196.413337 
L 377.462356 196.290664 
L 378.293269 195.781181 
L 379.662905 194.967162 
L 380.137713 194.706339 
L 380.649044 194.349526 
L 380.959495 194.143449 
L 382.840462 193.116512 
L 383.707898 192.666382 
L 384.547942 192.218399 
L 385.095796 191.930537 
L 388.474233 190.227566 
L 389.241229 189.831981 
L 395.002833 186.601355 
L 398.49084 184.358211 
L 398.883469 184.080402 
L 402.417131 182.039193 
L 403.11108 181.660393 
L 403.439793 181.426581 
L 404.955524 180.488062 
L 405.183796 180.356017 
L 405.996447 179.756415 
L 408.196996 178.535411 
L 408.662673 178.241226 
L 408.845291 178.096525 
L 409.466193 177.741068 
L 409.758382 177.55678 
L 410.753651 176.977117 
L 411.429338 176.54869 
L 412.068502 176.133104 
L 416.816575 173.350094 
L 417.565309 172.883389 
L 418.551447 172.340155 
L 420.240665 171.378263 
L 420.797651 171.046252 
L 421.281589 170.784978 
L 421.555516 170.635817 
L 422.578178 170.063703 
L 427.901498 166.932244 
L 428.549793 166.564415 
L 430.092916 165.613495 
L 430.321189 165.470397 
L 431.23428 164.930798 
L 431.745611 164.608806 
L 438.128116 160.817543 
L 439.908644 159.883553 
L 440.136916 159.75613 
L 440.87652 159.367832 
L 442.100062 158.655699 
L 442.465298 158.42781 
L 443.661447 157.753905 
L 443.944505 157.593992 
L 444.620193 157.216164 
L 444.958036 157.051627 
L 445.633724 156.675594 
L 446.145055 156.412326 
L 446.948575 155.985408 
L 447.861665 155.488696 
L 448.473436 155.136888 
L 448.957375 154.845834 
L 457.567822 150.092052 
L 465.621284 145.2753 
L 468.068367 144.084212 
L 468.762316 143.755378 
L 471.483327 142.380508 
L 471.949004 142.101388 
L 473.154284 141.422914 
L 474.195207 140.899403 
L 475.619629 140.233706 
L 475.911818 140.094054 
L 479.774193 138.19861 
L 479.975073 138.098218 
L 480.468142 137.858176 
L 480.906425 137.608791 
L 482.193884 136.585965 
L 483.070451 135.773763 
L 483.344378 135.472424 
L 484.960549 133.841025 
L 485.435356 133.243215 
L 487.471549 131.334223 
L 487.745476 131.085772 
L 488.38464 130.513901 
L 488.649436 130.324532 
L 488.98728 130.076961 
L 489.635575 129.608193 
L 489.955156 129.392458 
L 490.247345 129.18799 
L 491.434364 128.406236 
L 491.763076 128.190779 
L 492.383978 127.791231 
L 495.059335 126.226948 
L 495.744153 125.888147 
L 499.606527 123.688594 
L 499.926109 123.505519 
L 500.547011 123.150979 
L 501.998825 122.17363 
L 502.94844 121.614702 
L 503.779353 121.172857 
L 504.65592 120.716831 
L 504.920716 120.548091 
L 505.824676 120.086213 
L 525.054371 109.875032 
L 525.620487 109.586157 
L 526.9536 108.898007 
L 529.638087 107.54117 
L 530.012455 107.321603 
L 531.199473 106.72172 
L 533.911353 105.292702 
L 534.395291 104.974958 
L 535.810582 104.13199 
L 536.623233 103.635826 
L 538.951615 102.449547 
L 539.791658 102.009373 
L 541.626971 101.105954 
L 542.777465 100.544898 
L 544.192756 99.771229 
L 544.421029 99.648872 
L 546.274604 98.672783 
L 548.292535 97.566062 
L 551.689233 95.865476 
L 552.227956 95.584309 
L 553.287142 95.065643 
L 553.497153 94.954869 
L 554.127185 94.599388 
L 554.510684 94.370648 
L 555.898582 93.646947 
L 557.806942 92.649425 
L 558.135655 92.45749 
L 558.99396 92.079703 
L 560.372727 91.391529 
L 560.372727 91.391529 
" style="fill:none;stroke:#1f77b4;stroke-linecap:square;stroke-width:1.5;"/>
   </g>
   <g id="line2d_13">
    <path clip-path="url(#p22fcfa299c)" d="M 103.827273 369.36 
L 104.210771 369.104981 
L 104.722102 368.789667 
L 106.548284 367.662498 
L 107.178316 367.301703 
L 109.196247 365.938063 
L 109.433651 365.792438 
L 110.091076 365.367916 
L 110.666324 365.026991 
L 111.497236 364.523197 
L 112.976444 363.635725 
L 113.880404 363.093901 
L 114.282164 362.872707 
L 116.144869 361.746119 
L 117.05796 361.184206 
L 118.126276 360.486706 
L 118.409335 360.314519 
L 119.212855 359.828352 
L 119.514175 359.631536 
L 122.153007 358.096138 
L 122.390411 357.96562 
L 125.065767 356.453981 
L 126.417142 355.601863 
L 126.618022 355.474765 
L 128.498989 354.338172 
L 128.919011 354.093859 
L 129.804709 353.564301 
L 132.799647 351.596687 
L 133.119229 351.33607 
L 134.826709 350.161629 
L 135.201076 349.896982 
L 137.355971 348.541033 
L 138.059051 348.097646 
L 138.278193 347.96716 
L 141.346178 346.201208 
L 141.610975 345.990679 
L 142.67016 345.313818 
L 143.747607 344.696433 
L 151.143644 339.720753 
L 152.540673 338.927294 
L 153.052004 338.61277 
L 155.8278 336.963731 
L 156.074335 336.787244 
L 157.562673 335.74373 
L 157.882255 335.517666 
L 158.430109 335.144014 
L 159.863662 334.16193 
L 160.530218 333.742169 
L 160.694575 333.59445 
L 161.543749 333.0121 
L 163.689513 331.067453 
L 164.045618 330.755886 
L 164.346938 330.441177 
L 167.113604 328.278879 
L 167.433185 328.069596 
L 170.081149 325.794152 
L 170.59248 325.396693 
L 171.560356 324.551142 
L 174.034833 322.902005 
L 177.02064 320.729866 
L 177.458924 320.449493 
L 177.668935 320.306407 
L 181.878284 317.215379 
L 182.34396 316.879879 
L 183.165742 316.159474 
L 184.4532 315.064601 
L 184.9554 314.619183 
L 191.904022 309.355532 
L 192.579709 308.926884 
L 192.835375 308.786707 
L 194.09544 307.985183 
L 194.332844 307.841347 
L 195.282458 307.284473 
L 195.5016 307.163358 
L 195.994669 306.863164 
L 196.323382 306.630519 
L 197.145164 306.062602 
L 199.400498 304.547979 
L 199.729211 304.334313 
L 200.003138 304.110689 
L 200.295327 303.937298 
L 200.706218 303.662879 
L 202.33152 302.533994 
L 203.198956 301.945188 
L 203.682895 301.616141 
L 204.194225 301.260575 
L 204.74208 300.872191 
L 205.362982 300.465347 
L 205.719087 300.242816 
L 207.718756 299.044634 
L 208.230087 298.65272 
L 208.805335 298.314206 
L 211.005884 296.844118 
L 211.526345 296.446996 
L 212.165509 296.032682 
L 212.5764 295.778056 
L 214.731295 294.582134 
L 215.260887 294.260889 
L 217.077938 293.01177 
L 217.616662 292.686947 
L 217.927113 292.531954 
L 218.429313 292.224402 
L 218.675847 292.016821 
L 219.661985 291.331372 
L 221.278156 290.208568 
L 221.734702 289.879642 
L 224.22744 288.336746 
L 224.747902 288.006371 
L 225.414458 287.578444 
L 228.701585 285.338093 
L 229.039429 285.097864 
L 229.578153 284.731106 
L 229.897735 284.491507 
L 231.395204 283.32706 
L 231.577822 283.151059 
L 232.198724 282.693898 
L 232.646138 282.341294 
L 232.947458 282.109563 
L 233.376611 281.774386 
L 233.787502 281.462479 
L 235.138876 280.394676 
L 237.604222 277.966792 
L 237.905542 277.510336 
L 238.298171 277.132245 
L 238.919073 276.571913 
L 239.320833 276.09678 
L 240.142615 275.268735 
L 240.325233 275.078942 
L 240.562636 274.849852 
L 241.375287 273.914403 
L 242.370556 272.679504 
L 242.598829 272.418611 
L 243.055375 271.914176 
L 243.995858 270.698971 
L 244.351964 270.353339 
L 244.744593 269.906552 
L 250.305316 264.560651 
L 250.661422 264.237342 
L 251.802785 263.298164 
L 252.204545 262.955046 
L 252.55152 262.673845 
L 252.971542 262.249742 
L 253.464611 261.818851 
L 258.37704 257.907708 
L 258.57792 257.752876 
L 258.952287 257.45941 
L 260.148436 256.500582 
L 261.143705 255.407542 
L 261.581989 254.910078 
L 262.084189 254.419735 
L 262.385509 254.211363 
L 262.787269 253.870226 
L 265.8096 251.649858 
L 266.247884 251.257519 
L 266.558335 251.006303 
L 267.078796 250.602737 
L 268.804538 249.121169 
L 269.379785 248.740469 
L 269.598927 248.594777 
L 271.269884 247.403324 
L 271.744691 246.981727 
L 272.283415 246.52915 
L 274.182644 245.092718 
L 274.365262 244.948698 
L 274.794415 244.629049 
L 275.324007 244.221492 
L 276.118396 243.604262 
L 279.862069 240.871776 
L 280.747767 240.344331 
L 281.240836 240.03974 
L 283.596611 238.546137 
L 284.244905 238.126162 
L 284.454916 237.974411 
L 286.116742 236.955172 
L 287.20332 236.261139 
L 288.792098 235.281127 
L 289.51344 234.85115 
L 306.926084 224.013005 
L 307.236535 223.805836 
L 308.816182 222.841835 
L 309.455345 222.454442 
L 310.514531 221.77886 
L 333.460505 207.638209 
L 333.971836 207.3159 
L 335.487567 206.376837 
L 337.843342 204.9306 
L 338.281625 204.644407 
L 350.809233 196.818465 
L 351.594491 196.302077 
L 352.142345 195.976292 
L 352.79064 195.572609 
L 353.448065 195.149814 
L 354.288109 194.644788 
L 355.922542 193.668063 
L 356.60736 193.232761 
L 358.2144 192.245939 
L 358.826171 191.870102 
L 359.282716 191.575945 
L 361.154553 190.411219 
L 374.997011 181.779969 
L 375.143105 181.670154 
L 376.019673 181.133187 
L 449.550884 136.10532 
L 450.427451 135.583162 
L 450.893127 135.303853 
L 457.887404 130.883952 
L 459.247909 130.026779 
L 483.700484 114.975918 
L 484.321385 114.597458 
L 484.841847 114.278955 
L 491.607851 110.145809 
L 492.183098 109.806893 
L 492.849655 109.387296 
L 493.415771 109.050962 
L 494.876716 108.173829 
L 495.835462 107.613218 
L 496.337662 107.299608 
L 497.72556 106.477918 
L 499.113458 105.609361 
L 499.688705 105.266612 
L 551.323996 73.423388 
L 551.588793 73.12703 
L 552.045338 72.65755 
L 552.739287 72.036768 
L 553.97196 71.194515 
L 554.939836 70.384486 
L 555.770749 69.867238 
L 556.145116 69.594876 
L 556.976029 69.091293 
L 558.920913 67.882077 
L 560.372727 66.96 
L 560.372727 66.96 
" style="fill:none;stroke:#ff7f0e;stroke-linecap:square;stroke-width:1.5;"/>
   </g>
   <g id="line2d_14">
    <path clip-path="url(#p22fcfa299c)" d="M 103.827273 369.36 
L 104.247295 369.068659 
L 105.343004 368.269056 
L 105.854335 367.879708 
L 117.468851 359.963041 
L 118.281502 359.404214 
L 118.747178 359.094247 
L 119.861149 358.372381 
L 120.409004 358.018619 
L 121.541236 357.24543 
L 121.970389 356.965139 
L 122.78304 356.423867 
L 123.760047 355.774384 
L 124.143545 355.519532 
L 124.79184 355.09939 
L 125.522313 354.626741 
L 126.161476 354.212611 
L 126.992389 353.656398 
L 127.576767 353.26525 
L 128.380287 352.727424 
L 129.101629 352.273716 
L 133.758393 349.285266 
L 134.087105 349.075429 
L 134.762793 348.647401 
L 135.045851 348.45305 
L 136.123298 347.749605 
L 136.698545 347.367906 
L 137.337709 346.951049 
L 142.131436 343.885396 
L 142.67016 343.535825 
L 143.738476 342.838104 
L 144.313724 342.456268 
L 145.601182 341.63877 
L 146.578189 341.027864 
L 147.829124 340.229132 
L 148.203491 339.993826 
L 148.623513 339.71387 
L 149.19876 339.33553 
L 149.463556 339.126034 
L 149.774007 338.914446 
L 150.824062 338.25427 
L 155.380385 335.238651 
L 156.211298 334.716119 
L 156.613058 334.470413 
L 157.389185 333.990816 
L 157.73616 333.769157 
L 158.119658 333.519914 
L 158.923178 333.029462 
L 161.315476 331.50759 
L 161.689844 331.281243 
L 162.25596 330.904624 
L 163.652989 330.03383 
L 163.872131 329.904305 
L 164.502164 329.47127 
L 165.013495 329.115606 
L 165.725705 328.572776 
L 166.300953 328.18625 
L 166.867069 327.816998 
L 167.935385 327.116948 
L 168.437585 326.718467 
L 168.647596 326.523994 
L 169.204582 326.115263 
L 172.016902 324.166843 
L 172.50084 323.863574 
L 182.261782 317.736428 
L 184.800175 316.118759 
L 185.631087 315.613939 
L 185.932407 315.415918 
L 186.416345 315.113313 
L 188.050778 314.118144 
L 188.77212 313.662678 
L 198.533062 307.538353 
L 199.236142 307.089199 
L 210.841527 299.840214 
L 211.060669 299.679912 
L 220.931182 293.487925 
L 221.689047 292.992533 
L 223.058684 292.132204 
L 224.136131 291.442735 
L 224.638331 291.131382 
L 225.323149 290.698412 
L 241.137884 280.854015 
L 242.023582 280.31148 
L 257.820055 270.48026 
L 258.504873 270.044547 
L 259.947556 269.143724 
L 260.696291 268.657506 
L 262.321593 267.678502 
L 262.513342 267.521427 
L 262.988149 267.223067 
L 264.156905 266.490676 
L 266.047004 265.347198 
L 266.722691 264.919358 
L 267.736222 264.249981 
L 268.201898 263.943004 
L 269.799807 262.961015 
L 271.352062 261.997494 
L 272.046011 261.49767 
L 282.236105 255.108319 
L 283.231375 254.482919 
L 283.998371 254.006789 
L 286.262836 252.576057 
L 287.513771 251.783188 
L 288.152935 251.38707 
L 288.938193 250.904885 
L 290.965255 249.638147 
L 292.535771 248.670667 
L 293.293636 248.176234 
L 294.23412 247.621169 
L 295.558102 246.784802 
L 296.197265 246.389871 
L 297.502985 245.562889 
L 298.416076 245.000766 
L 299.018716 244.604227 
L 336.081076 221.709272 
L 336.428051 221.495658 
L 337.039822 221.092569 
L 338.939051 219.917495 
L 339.696916 219.446746 
L 341.1396 218.515837 
L 374.997011 197.507206 
L 375.133975 197.398096 
L 376.083589 196.807984 
L 376.89624 196.310489 
L 379.352455 194.747243 
L 380.922971 193.783497 
L 382.511749 192.818456 
L 383.333531 192.319145 
L 384.840131 191.407587 
L 385.23276 191.172258 
L 436.420636 159.858749 
L 436.995884 159.522979 
L 437.698964 159.073819 
L 438.5664 158.555756 
L 440.785211 157.155678 
L 441.552207 156.681705 
L 443.816673 155.251555 
L 445.368927 154.295087 
L 445.642855 154.091506 
L 469.182338 139.508369 
L 469.392349 139.367154 
L 471.264185 138.208852 
L 471.638553 137.980972 
L 472.022051 137.750589 
L 472.432942 137.510768 
L 473.327771 136.963864 
L 474.916549 135.985299 
L 475.52832 135.611897 
L 477.317978 134.526349 
L 478.002796 134.091745 
L 492.657905 125.203688 
L 493.315331 124.834907 
L 494.00928 124.440139 
L 497.953833 122.199496 
L 498.3282 121.974225 
L 499.807407 121.165716 
L 500.948771 120.511476 
L 504.728967 118.327429 
L 505.130727 118.096434 
L 505.541618 117.812433 
L 506.299484 117.357698 
L 509.522695 115.513517 
L 512.471978 113.804448 
L 513.49464 113.197661 
L 516.526102 111.4443 
L 517.064825 111.130275 
L 518.434462 110.380067 
L 519.840622 109.535545 
L 520.507178 109.161775 
L 521.402007 108.613803 
L 526.378353 105.792096 
L 527.090564 105.385154 
L 529.053709 104.254471 
L 529.638087 103.912691 
L 530.103764 103.664676 
L 531.126425 103.069745 
L 535.007062 100.816334 
L 535.974938 100.252996 
L 536.175818 100.1316 
L 536.805851 99.770827 
L 537.19848 99.557181 
L 538.558985 98.80896 
L 539.198149 98.455075 
L 539.91036 98.06274 
L 541.106509 97.369917 
L 543.462284 96.015684 
L 544.019269 95.677014 
L 544.594516 95.338363 
L 545.854582 94.636206 
L 548.566462 93.053141 
L 551.150509 91.596206 
L 552.173171 91.004023 
L 553.314535 90.35492 
L 553.880651 90.020663 
L 557.724764 87.787951 
L 558.363927 87.425146 
L 559.989229 86.483479 
L 560.372727 86.272873 
L 560.372727 86.272873 
" style="fill:none;stroke:#2ca02c;stroke-linecap:square;stroke-width:1.5;"/>
   </g>
   <g id="patch_3">
    <path d="M 81 384.48 
L 81 51.84 
" style="fill:none;stroke:#000000;stroke-linecap:square;stroke-linejoin:miter;stroke-width:0.8;"/>
   </g>
   <g id="patch_4">
    <path d="M 583.2 384.48 
L 583.2 51.84 
" style="fill:none;stroke:#000000;stroke-linecap:square;stroke-linejoin:miter;stroke-width:0.8;"/>
   </g>
   <g id="patch_5">
    <path d="M 81 384.48 
L 583.2 384.48 
" style="fill:none;stroke:#000000;stroke-linecap:square;stroke-linejoin:miter;stroke-width:0.8;"/>
   </g>
   <g id="patch_6">
    <path d="M 81 51.84 
L 583.2 51.84 
" style="fill:none;stroke:#000000;stroke-linecap:square;stroke-linejoin:miter;stroke-width:0.8;"/>
   </g>
   <g id="text_14">
    <!-- Le temps d'amalyse en fonction du nombre de phrases considérées -->
    <g transform="translate(128.7525 45.84)scale(0.12 -0.12)">
     <defs>
      <path d="M 37.109375 75.984375 
L 37.109375 68.5 
L 28.515625 68.5 
Q 23.6875 68.5 21.796875 66.546875 
Q 19.921875 64.59375 19.921875 59.515625 
L 19.921875 54.6875 
L 34.71875 54.6875 
L 34.71875 47.703125 
L 19.921875 47.703125 
L 19.921875 0 
L 10.890625 0 
L 10.890625 47.703125 
L 2.296875 47.703125 
L 2.296875 54.6875 
L 10.890625 54.6875 
L 10.890625 58.5 
Q 10.890625 67.625 15.140625 71.796875 
Q 19.390625 75.984375 28.609375 75.984375 
z
" id="DejaVuSans-102"/>
      <path d="M 8.5 21.578125 
L 8.5 54.6875 
L 17.484375 54.6875 
L 17.484375 21.921875 
Q 17.484375 14.15625 20.5 10.265625 
Q 23.53125 6.390625 29.59375 6.390625 
Q 36.859375 6.390625 41.078125 11.03125 
Q 45.3125 15.671875 45.3125 23.6875 
L 45.3125 54.6875 
L 54.296875 54.6875 
L 54.296875 0 
L 45.3125 0 
L 45.3125 8.40625 
Q 42.046875 3.421875 37.71875 1 
Q 33.40625 -1.421875 27.6875 -1.421875 
Q 18.265625 -1.421875 13.375 4.4375 
Q 8.5 10.296875 8.5 21.578125 
z
M 31.109375 56 
z
" id="DejaVuSans-117"/>
     </defs>
     <use xlink:href="#DejaVuSans-76"/>
     <use x="53.962891" xlink:href="#DejaVuSans-101"/>
     <use x="115.486328" xlink:href="#DejaVuSans-32"/>
     <use x="147.273438" xlink:href="#DejaVuSans-116"/>
     <use x="186.482422" xlink:href="#DejaVuSans-101"/>
     <use x="248.005859" xlink:href="#DejaVuSans-109"/>
     <use x="345.417969" xlink:href="#DejaVuSans-112"/>
     <use x="408.894531" xlink:href="#DejaVuSans-115"/>
     <use x="460.994141" xlink:href="#DejaVuSans-32"/>
     <use x="492.78125" xlink:href="#DejaVuSans-100"/>
     <use x="556.257812" xlink:href="#DejaVuSans-39"/>
     <use x="583.748047" xlink:href="#DejaVuSans-97"/>
     <use x="645.027344" xlink:href="#DejaVuSans-109"/>
     <use x="742.439453" xlink:href="#DejaVuSans-97"/>
     <use x="803.71875" xlink:href="#DejaVuSans-108"/>
     <use x="831.501953" xlink:href="#DejaVuSans-121"/>
     <use x="890.681641" xlink:href="#DejaVuSans-115"/>
     <use x="942.78125" xlink:href="#DejaVuSans-101"/>
     <use x="1004.304688" xlink:href="#DejaVuSans-32"/>
     <use x="1036.091797" xlink:href="#DejaVuSans-101"/>
     <use x="1097.615234" xlink:href="#DejaVuSans-110"/>
     <use x="1160.994141" xlink:href="#DejaVuSans-32"/>
     <use x="1192.78125" xlink:href="#DejaVuSans-102"/>
     <use x="1227.986328" xlink:href="#DejaVuSans-111"/>
     <use x="1289.167969" xlink:href="#DejaVuSans-110"/>
     <use x="1352.546875" xlink:href="#DejaVuSans-99"/>
     <use x="1407.527344" xlink:href="#DejaVuSans-116"/>
     <use x="1446.736328" xlink:href="#DejaVuSans-105"/>
     <use x="1474.519531" xlink:href="#DejaVuSans-111"/>
     <use x="1535.701172" xlink:href="#DejaVuSans-110"/>
     <use x="1599.080078" xlink:href="#DejaVuSans-32"/>
     <use x="1630.867188" xlink:href="#DejaVuSans-100"/>
     <use x="1694.34375" xlink:href="#DejaVuSans-117"/>
     <use x="1757.722656" xlink:href="#DejaVuSans-32"/>
     <use x="1789.509766" xlink:href="#DejaVuSans-110"/>
     <use x="1852.888672" xlink:href="#DejaVuSans-111"/>
     <use x="1914.070312" xlink:href="#DejaVuSans-109"/>
     <use x="2011.482422" xlink:href="#DejaVuSans-98"/>
     <use x="2074.958984" xlink:href="#DejaVuSans-114"/>
     <use x="2113.822266" xlink:href="#DejaVuSans-101"/>
     <use x="2175.345703" xlink:href="#DejaVuSans-32"/>
     <use x="2207.132812" xlink:href="#DejaVuSans-100"/>
     <use x="2270.609375" xlink:href="#DejaVuSans-101"/>
     <use x="2332.132812" xlink:href="#DejaVuSans-32"/>
     <use x="2363.919922" xlink:href="#DejaVuSans-112"/>
     <use x="2427.396484" xlink:href="#DejaVuSans-104"/>
     <use x="2490.775391" xlink:href="#DejaVuSans-114"/>
     <use x="2531.888672" xlink:href="#DejaVuSans-97"/>
     <use x="2593.167969" xlink:href="#DejaVuSans-115"/>
     <use x="2645.267578" xlink:href="#DejaVuSans-101"/>
     <use x="2706.791016" xlink:href="#DejaVuSans-115"/>
     <use x="2758.890625" xlink:href="#DejaVuSans-32"/>
     <use x="2790.677734" xlink:href="#DejaVuSans-99"/>
     <use x="2845.658203" xlink:href="#DejaVuSans-111"/>
     <use x="2906.839844" xlink:href="#DejaVuSans-110"/>
     <use x="2970.21875" xlink:href="#DejaVuSans-115"/>
     <use x="3022.318359" xlink:href="#DejaVuSans-105"/>
     <use x="3050.101562" xlink:href="#DejaVuSans-100"/>
     <use x="3113.578125" xlink:href="#DejaVuSans-233"/>
     <use x="3175.101562" xlink:href="#DejaVuSans-114"/>
     <use x="3213.964844" xlink:href="#DejaVuSans-233"/>
     <use x="3275.488281" xlink:href="#DejaVuSans-101"/>
     <use x="3337.011719" xlink:href="#DejaVuSans-115"/>
    </g>
   </g>
   <g id="legend_1">
    <g id="patch_7">
     <path d="M 88 104.70875 
L 205.915625 104.70875 
Q 207.915625 104.70875 207.915625 102.70875 
L 207.915625 58.84 
Q 207.915625 56.84 205.915625 56.84 
L 88 56.84 
Q 86 56.84 86 58.84 
L 86 102.70875 
Q 86 104.70875 88 104.70875 
z
" style="fill:#ffffff;opacity:0.8;stroke:#cccccc;stroke-linejoin:miter;"/>
    </g>
    <g id="line2d_15">
     <path d="M 90 64.938438 
L 110 64.938438 
" style="fill:none;stroke:#1f77b4;stroke-linecap:square;stroke-width:1.5;"/>
    </g>
    <g id="line2d_16"/>
    <g id="text_15">
     <!-- en_core_web_sm -->
     <g transform="translate(118 68.438438)scale(0.1 -0.1)">
      <defs>
       <path d="M 50.984375 -16.609375 
L 50.984375 -23.578125 
L -0.984375 -23.578125 
L -0.984375 -16.609375 
z
" id="DejaVuSans-95"/>
       <path d="M 4.203125 54.6875 
L 13.1875 54.6875 
L 24.421875 12.015625 
L 35.59375 54.6875 
L 46.1875 54.6875 
L 57.421875 12.015625 
L 68.609375 54.6875 
L 77.59375 54.6875 
L 63.28125 0 
L 52.6875 0 
L 40.921875 44.828125 
L 29.109375 0 
L 18.5 0 
z
" id="DejaVuSans-119"/>
      </defs>
      <use xlink:href="#DejaVuSans-101"/>
      <use x="61.523438" xlink:href="#DejaVuSans-110"/>
      <use x="124.902344" xlink:href="#DejaVuSans-95"/>
      <use x="174.902344" xlink:href="#DejaVuSans-99"/>
      <use x="229.882812" xlink:href="#DejaVuSans-111"/>
      <use x="291.064453" xlink:href="#DejaVuSans-114"/>
      <use x="329.927734" xlink:href="#DejaVuSans-101"/>
      <use x="391.451172" xlink:href="#DejaVuSans-95"/>
      <use x="441.451172" xlink:href="#DejaVuSans-119"/>
      <use x="523.238281" xlink:href="#DejaVuSans-101"/>
      <use x="584.761719" xlink:href="#DejaVuSans-98"/>
      <use x="648.238281" xlink:href="#DejaVuSans-95"/>
      <use x="698.238281" xlink:href="#DejaVuSans-115"/>
      <use x="750.337891" xlink:href="#DejaVuSans-109"/>
     </g>
    </g>
    <g id="line2d_17">
     <path d="M 90 79.894688 
L 110 79.894688 
" style="fill:none;stroke:#ff7f0e;stroke-linecap:square;stroke-width:1.5;"/>
    </g>
    <g id="line2d_18"/>
    <g id="text_16">
     <!-- en_core_web_md -->
     <g transform="translate(118 83.394688)scale(0.1 -0.1)">
      <use xlink:href="#DejaVuSans-101"/>
      <use x="61.523438" xlink:href="#DejaVuSans-110"/>
      <use x="124.902344" xlink:href="#DejaVuSans-95"/>
      <use x="174.902344" xlink:href="#DejaVuSans-99"/>
      <use x="229.882812" xlink:href="#DejaVuSans-111"/>
      <use x="291.064453" xlink:href="#DejaVuSans-114"/>
      <use x="329.927734" xlink:href="#DejaVuSans-101"/>
      <use x="391.451172" xlink:href="#DejaVuSans-95"/>
      <use x="441.451172" xlink:href="#DejaVuSans-119"/>
      <use x="523.238281" xlink:href="#DejaVuSans-101"/>
      <use x="584.761719" xlink:href="#DejaVuSans-98"/>
      <use x="648.238281" xlink:href="#DejaVuSans-95"/>
      <use x="698.238281" xlink:href="#DejaVuSans-109"/>
      <use x="795.650391" xlink:href="#DejaVuSans-100"/>
     </g>
    </g>
    <g id="line2d_19">
     <path d="M 90 94.850938 
L 110 94.850938 
" style="fill:none;stroke:#2ca02c;stroke-linecap:square;stroke-width:1.5;"/>
    </g>
    <g id="line2d_20"/>
    <g id="text_17">
     <!-- en_core_web_lg -->
     <g transform="translate(118 98.350938)scale(0.1 -0.1)">
      <defs>
       <path d="M 45.40625 27.984375 
Q 45.40625 37.75 41.375 43.109375 
Q 37.359375 48.484375 30.078125 48.484375 
Q 22.859375 48.484375 18.828125 43.109375 
Q 14.796875 37.75 14.796875 27.984375 
Q 14.796875 18.265625 18.828125 12.890625 
Q 22.859375 7.515625 30.078125 7.515625 
Q 37.359375 7.515625 41.375 12.890625 
Q 45.40625 18.265625 45.40625 27.984375 
z
M 54.390625 6.78125 
Q 54.390625 -7.171875 48.1875 -13.984375 
Q 42 -20.796875 29.203125 -20.796875 
Q 24.46875 -20.796875 20.265625 -20.09375 
Q 16.0625 -19.390625 12.109375 -17.921875 
L 12.109375 -9.1875 
Q 16.0625 -11.328125 19.921875 -12.34375 
Q 23.78125 -13.375 27.78125 -13.375 
Q 36.625 -13.375 41.015625 -8.765625 
Q 45.40625 -4.15625 45.40625 5.171875 
L 45.40625 9.625 
Q 42.625 4.78125 38.28125 2.390625 
Q 33.9375 0 27.875 0 
Q 17.828125 0 11.671875 7.65625 
Q 5.515625 15.328125 5.515625 27.984375 
Q 5.515625 40.671875 11.671875 48.328125 
Q 17.828125 56 27.875 56 
Q 33.9375 56 38.28125 53.609375 
Q 42.625 51.21875 45.40625 46.390625 
L 45.40625 54.6875 
L 54.390625 54.6875 
z
" id="DejaVuSans-103"/>
      </defs>
      <use xlink:href="#DejaVuSans-101"/>
      <use x="61.523438" xlink:href="#DejaVuSans-110"/>
      <use x="124.902344" xlink:href="#DejaVuSans-95"/>
      <use x="174.902344" xlink:href="#DejaVuSans-99"/>
      <use x="229.882812" xlink:href="#DejaVuSans-111"/>
      <use x="291.064453" xlink:href="#DejaVuSans-114"/>
      <use x="329.927734" xlink:href="#DejaVuSans-101"/>
      <use x="391.451172" xlink:href="#DejaVuSans-95"/>
      <use x="441.451172" xlink:href="#DejaVuSans-119"/>
      <use x="523.238281" xlink:href="#DejaVuSans-101"/>
      <use x="584.761719" xlink:href="#DejaVuSans-98"/>
      <use x="648.238281" xlink:href="#DejaVuSans-95"/>
      <use x="698.238281" xlink:href="#DejaVuSans-108"/>
      <use x="726.021484" xlink:href="#DejaVuSans-103"/>
     </g>
    </g>
   </g>
  </g>
 </g>
 <defs>
  <clipPath id="p22fcfa299c">
   <rect height="332.64" width="502.2" x="81" y="51.84"/>
  </clipPath>
 </defs>
</svg>
