<?xml version="1.0" encoding="utf-8" standalone="no"?>
<!DOCTYPE svg PUBLIC "-//W3C//DTD SVG 1.1//EN"
  "http://www.w3.org/Graphics/SVG/1.1/DTD/svg11.dtd">
<svg height="288pt" version="1.1" viewBox="0 0 432 288" width="432pt" xmlns="http://www.w3.org/2000/svg" xmlns:xlink="http://www.w3.org/1999/xlink">
 <metadata>
  <rdf:RDF xmlns:cc="http://creativecommons.org/ns#" xmlns:dc="http://purl.org/dc/elements/1.1/" xmlns:rdf="http://www.w3.org/1999/02/22-rdf-syntax-ns#">
   <cc:Work>
    <dc:type rdf:resource="http://purl.org/dc/dcmitype/StillImage"/>
    <dc:date>2021-10-15T03:14:58.601097</dc:date>
    <dc:format>image/svg+xml</dc:format>
    <dc:creator>
     <cc:Agent>
      <dc:title>Matplotlib v3.4.2, https://matplotlib.org/</dc:title>
     </cc:Agent>
    </dc:creator>
   </cc:Work>
  </rdf:RDF>
 </metadata>
 <defs>
  <style type="text/css">*{stroke-linecap:butt;stroke-linejoin:round;}</style>
 </defs>
 <g id="figure_1">
  <g id="patch_1">
   <path d="M 0 288 
L 432 288 
L 432 0 
L 0 0 
z
" style="fill:#ffffff;"/>
  </g>
  <g id="axes_1">
   <g id="patch_2">
    <path d="M 47.81 246.04 
L 345.6 246.04 
L 345.6 36.36 
L 47.81 36.36 
z
" style="fill:#ffffff;"/>
   </g>
   <g id="PathCollection_1">
    <path clip-path="url(#p98302eb1e2)" d="M 105.147983 48.890909 
C 105.943592 48.890909 106.706722 48.57481 107.269303 48.012229 
C 107.831884 47.449649 108.147983 46.686518 108.147983 45.890909 
C 108.147983 45.0953 107.831884 44.332169 107.269303 43.769589 
C 106.706722 43.207008 105.943592 42.890909 105.147983 42.890909 
C 104.352373 42.890909 103.589243 43.207008 103.026662 43.769589 
C 102.464082 44.332169 102.147983 45.0953 102.147983 45.890909 
C 102.147983 46.686518 102.464082 47.449649 103.026662 48.012229 
C 103.589243 48.57481 104.352373 48.890909 105.147983 48.890909 
z
" style="fill:#1f77b4;stroke:#ffffff;stroke-width:0.48;"/>
    <path clip-path="url(#p98302eb1e2)" d="M 182.064378 48.890909 
L 183.564378 47.390909 
L 185.064378 48.890909 
L 186.564378 47.390909 
L 185.064378 45.890909 
L 186.564378 44.390909 
L 185.064378 42.890909 
L 183.564378 44.390909 
L 182.064378 42.890909 
L 180.564378 44.390909 
L 182.064378 45.890909 
L 180.564378 47.390909 
z
" style="fill:#1f77b4;stroke:#ffffff;stroke-width:0.48;"/>
    <path clip-path="url(#p98302eb1e2)" d="M 153.879801 43.769589 
L 153.879801 48.012229 
L 158.122442 48.012229 
L 158.122442 43.769589 
z
" style="fill:#1f77b4;stroke:#ffffff;stroke-width:0.48;"/>
    <path clip-path="url(#p98302eb1e2)" d="M 66.046619 48.890909 
C 66.842229 48.890909 67.605359 48.57481 68.16794 48.012229 
C 68.730521 47.449649 69.046619 46.686518 69.046619 45.890909 
C 69.046619 45.0953 68.730521 44.332169 68.16794 43.769589 
C 67.605359 43.207008 66.842229 42.890909 66.046619 42.890909 
C 65.25101 42.890909 64.48788 43.207008 63.925299 43.769589 
C 63.362718 44.332169 63.046619 45.0953 63.046619 45.890909 
C 63.046619 46.686518 63.362718 47.449649 63.925299 48.012229 
C 64.48788 48.57481 65.25101 48.890909 66.046619 48.890909 
z
" style="fill:#ff7f0e;stroke:#ffffff;stroke-width:0.48;"/>
    <path clip-path="url(#p98302eb1e2)" d="M 129.50189 48.890909 
L 131.00189 47.390909 
L 132.50189 48.890909 
L 134.00189 47.390909 
L 132.50189 45.890909 
L 134.00189 44.390909 
L 132.50189 42.890909 
L 131.00189 44.390909 
L 129.50189 42.890909 
L 128.00189 44.390909 
L 129.50189 45.890909 
L 128.00189 47.390909 
z
" style="fill:#ff7f0e;stroke:#ffffff;stroke-width:0.48;"/>
    <path clip-path="url(#p98302eb1e2)" d="M 59.224589 43.769589 
L 59.224589 48.012229 
L 63.467229 48.012229 
L 63.467229 43.769589 
z
" style="fill:#ff7f0e;stroke:#ffffff;stroke-width:0.48;"/>
    <path clip-path="url(#p98302eb1e2)" d="M 101.088278 48.890909 
C 101.883888 48.890909 102.647018 48.57481 103.209599 48.012229 
C 103.772179 47.449649 104.088278 46.686518 104.088278 45.890909 
C 104.088278 45.0953 103.772179 44.332169 103.209599 43.769589 
C 102.647018 43.207008 101.883888 42.890909 101.088278 42.890909 
C 100.292669 42.890909 99.529539 43.207008 98.966958 43.769589 
C 98.404377 44.332169 98.088278 45.0953 98.088278 45.890909 
C 98.088278 46.686518 98.404377 47.449649 98.966958 48.012229 
C 99.529539 48.57481 100.292669 48.890909 101.088278 48.890909 
z
" style="fill:#2ca02c;stroke:#ffffff;stroke-width:0.48;"/>
    <path clip-path="url(#p98302eb1e2)" d="M 114.117747 48.890909 
L 115.617747 47.390909 
L 117.117747 48.890909 
L 118.617747 47.390909 
L 117.117747 45.890909 
L 118.617747 44.390909 
L 117.117747 42.890909 
L 115.617747 44.390909 
L 114.117747 42.890909 
L 112.617747 44.390909 
L 114.117747 45.890909 
L 112.617747 47.390909 
z
" style="fill:#2ca02c;stroke:#ffffff;stroke-width:0.48;"/>
    <path clip-path="url(#p98302eb1e2)" d="M 267.551524 43.769589 
L 267.551524 48.012229 
L 271.794165 48.012229 
L 271.794165 43.769589 
z
" style="fill:#2ca02c;stroke:#ffffff;stroke-width:0.48;"/>
    <path clip-path="url(#p98302eb1e2)" d="M 91.686858 48.890909 
C 92.482467 48.890909 93.245597 48.57481 93.808178 48.012229 
C 94.370759 47.449649 94.686858 46.686518 94.686858 45.890909 
C 94.686858 45.0953 94.370759 44.332169 93.808178 43.769589 
C 93.245597 43.207008 92.482467 42.890909 91.686858 42.890909 
C 90.891248 42.890909 90.128118 43.207008 89.565537 43.769589 
C 89.002957 44.332169 88.686858 45.0953 88.686858 45.890909 
C 88.686858 46.686518 89.002957 47.449649 89.565537 48.012229 
C 90.128118 48.57481 90.891248 48.890909 91.686858 48.890909 
z
" style="fill:#d62728;stroke:#ffffff;stroke-width:0.48;"/>
    <path clip-path="url(#p98302eb1e2)" d="M 151.723429 48.890909 
L 153.223429 47.390909 
L 154.723429 48.890909 
L 156.223429 47.390909 
L 154.723429 45.890909 
L 156.223429 44.390909 
L 154.723429 42.890909 
L 153.223429 44.390909 
L 151.723429 42.890909 
L 150.223429 44.390909 
L 151.723429 45.890909 
L 150.223429 47.390909 
z
" style="fill:#d62728;stroke:#ffffff;stroke-width:0.48;"/>
    <path clip-path="url(#p98302eb1e2)" d="M 280.585312 43.769589 
L 280.585312 48.012229 
L 284.827953 48.012229 
L 284.827953 43.769589 
z
" style="fill:#d62728;stroke:#ffffff;stroke-width:0.48;"/>
    <path clip-path="url(#p98302eb1e2)" d="M 92.96887 48.890909 
C 93.764479 48.890909 94.527609 48.57481 95.09019 48.012229 
C 95.652771 47.449649 95.96887 46.686518 95.96887 45.890909 
C 95.96887 45.0953 95.652771 44.332169 95.09019 43.769589 
C 94.527609 43.207008 93.764479 42.890909 92.96887 42.890909 
C 92.17326 42.890909 91.41013 43.207008 90.847549 43.769589 
C 90.284968 44.332169 89.96887 45.0953 89.96887 45.890909 
C 89.96887 46.686518 90.284968 47.449649 90.847549 48.012229 
C 91.41013 48.57481 92.17326 48.890909 92.96887 48.890909 
z
" style="fill:#9467bd;stroke:#ffffff;stroke-width:0.48;"/>
    <path clip-path="url(#p98302eb1e2)" d="M 237.618227 48.890909 
L 239.118227 47.390909 
L 240.618227 48.890909 
L 242.118227 47.390909 
L 240.618227 45.890909 
L 242.118227 44.390909 
L 240.618227 42.890909 
L 239.118227 44.390909 
L 237.618227 42.890909 
L 236.118227 44.390909 
L 237.618227 45.890909 
L 236.118227 47.390909 
z
" style="fill:#9467bd;stroke:#ffffff;stroke-width:0.48;"/>
    <path clip-path="url(#p98302eb1e2)" d="M 329.942771 43.769589 
L 329.942771 48.012229 
L 334.185411 48.012229 
L 334.185411 43.769589 
z
" style="fill:#9467bd;stroke:#ffffff;stroke-width:0.48;"/>
    <path clip-path="url(#p98302eb1e2)" d="M 266.254146 239.509091 
C 267.049755 239.509091 267.812886 239.192992 268.375467 238.630411 
C 268.938047 238.067831 269.254146 237.3047 269.254146 236.509091 
C 269.254146 235.713482 268.938047 234.950351 268.375467 234.387771 
C 267.812886 233.82519 267.049755 233.509091 266.254146 233.509091 
C 265.458537 233.509091 264.695407 233.82519 264.132826 234.387771 
C 263.570245 234.950351 263.254146 235.713482 263.254146 236.509091 
C 263.254146 237.3047 263.570245 238.067831 264.132826 238.630411 
C 264.695407 239.192992 265.458537 239.509091 266.254146 239.509091 
z
" style="fill:#1f77b4;stroke:#ffffff;stroke-width:0.48;"/>
    <path clip-path="url(#p98302eb1e2)" d="M 313.25693 239.509091 
L 314.75693 238.009091 
L 316.25693 239.509091 
L 317.75693 238.009091 
L 316.25693 236.509091 
L 317.75693 235.009091 
L 316.25693 233.509091 
L 314.75693 235.009091 
L 313.25693 233.509091 
L 311.75693 235.009091 
L 313.25693 236.509091 
L 311.75693 238.009091 
z
" style="fill:#1f77b4;stroke:#ffffff;stroke-width:0.48;"/>
   </g>
   <g id="PathCollection_2"/>
   <g id="PathCollection_3"/>
   <g id="PathCollection_4"/>
   <g id="PathCollection_5"/>
   <g id="PathCollection_6"/>
   <g id="PathCollection_7"/>
   <g id="PathCollection_8"/>
   <g id="PathCollection_9"/>
   <g id="matplotlib.axis_1">
    <g id="xtick_1">
     <g id="line2d_1">
      <path clip-path="url(#p98302eb1e2)" d="M 80.789756 246.04 
L 80.789756 36.36 
" style="fill:none;stroke:#000000;stroke-dasharray:1.85,0.8;stroke-dashoffset:0;stroke-width:0.5;"/>
     </g>
     <g id="line2d_2">
      <defs>
       <path d="M 0 0 
L 0 3.5 
" id="mb6f14f2b05" style="stroke:#000000;stroke-width:0.8;"/>
      </defs>
      <g>
       <use style="stroke:#000000;stroke-width:0.8;" x="80.789756" xlink:href="#mb6f14f2b05" y="246.04"/>
      </g>
     </g>
     <g id="text_1">
      <!-- 90 -->
      <g transform="translate(74.427256 260.638438)scale(0.1 -0.1)">
       <defs>
        <path d="M 703 97 
L 703 672 
Q 941 559 1184 500 
Q 1428 441 1663 441 
Q 2288 441 2617 861 
Q 2947 1281 2994 2138 
Q 2813 1869 2534 1725 
Q 2256 1581 1919 1581 
Q 1219 1581 811 2004 
Q 403 2428 403 3163 
Q 403 3881 828 4315 
Q 1253 4750 1959 4750 
Q 2769 4750 3195 4129 
Q 3622 3509 3622 2328 
Q 3622 1225 3098 567 
Q 2575 -91 1691 -91 
Q 1453 -91 1209 -44 
Q 966 3 703 97 
z
M 1959 2075 
Q 2384 2075 2632 2365 
Q 2881 2656 2881 3163 
Q 2881 3666 2632 3958 
Q 2384 4250 1959 4250 
Q 1534 4250 1286 3958 
Q 1038 3666 1038 3163 
Q 1038 2656 1286 2365 
Q 1534 2075 1959 2075 
z
" id="DejaVuSans-39" transform="scale(0.015625)"/>
        <path d="M 2034 4250 
Q 1547 4250 1301 3770 
Q 1056 3291 1056 2328 
Q 1056 1369 1301 889 
Q 1547 409 2034 409 
Q 2525 409 2770 889 
Q 3016 1369 3016 2328 
Q 3016 3291 2770 3770 
Q 2525 4250 2034 4250 
z
M 2034 4750 
Q 2819 4750 3233 4129 
Q 3647 3509 3647 2328 
Q 3647 1150 3233 529 
Q 2819 -91 2034 -91 
Q 1250 -91 836 529 
Q 422 1150 422 2328 
Q 422 3509 836 4129 
Q 1250 4750 2034 4750 
z
" id="DejaVuSans-30" transform="scale(0.015625)"/>
       </defs>
       <use xlink:href="#DejaVuSans-39"/>
       <use x="63.623047" xlink:href="#DejaVuSans-30"/>
      </g>
     </g>
    </g>
    <g id="xtick_2">
     <g id="line2d_3">
      <path clip-path="url(#p98302eb1e2)" d="M 123.523487 246.04 
L 123.523487 36.36 
" style="fill:none;stroke:#000000;stroke-dasharray:1.85,0.8;stroke-dashoffset:0;stroke-width:0.5;"/>
     </g>
     <g id="line2d_4">
      <g>
       <use style="stroke:#000000;stroke-width:0.8;" x="123.523487" xlink:href="#mb6f14f2b05" y="246.04"/>
      </g>
     </g>
     <g id="text_2">
      <!-- 92 -->
      <g transform="translate(117.160987 260.638438)scale(0.1 -0.1)">
       <defs>
        <path d="M 1228 531 
L 3431 531 
L 3431 0 
L 469 0 
L 469 531 
Q 828 903 1448 1529 
Q 2069 2156 2228 2338 
Q 2531 2678 2651 2914 
Q 2772 3150 2772 3378 
Q 2772 3750 2511 3984 
Q 2250 4219 1831 4219 
Q 1534 4219 1204 4116 
Q 875 4013 500 3803 
L 500 4441 
Q 881 4594 1212 4672 
Q 1544 4750 1819 4750 
Q 2544 4750 2975 4387 
Q 3406 4025 3406 3419 
Q 3406 3131 3298 2873 
Q 3191 2616 2906 2266 
Q 2828 2175 2409 1742 
Q 1991 1309 1228 531 
z
" id="DejaVuSans-32" transform="scale(0.015625)"/>
       </defs>
       <use xlink:href="#DejaVuSans-39"/>
       <use x="63.623047" xlink:href="#DejaVuSans-32"/>
      </g>
     </g>
    </g>
    <g id="xtick_3">
     <g id="line2d_5">
      <path clip-path="url(#p98302eb1e2)" d="M 166.257217 246.04 
L 166.257217 36.36 
" style="fill:none;stroke:#000000;stroke-dasharray:1.85,0.8;stroke-dashoffset:0;stroke-width:0.5;"/>
     </g>
     <g id="line2d_6">
      <g>
       <use style="stroke:#000000;stroke-width:0.8;" x="166.257217" xlink:href="#mb6f14f2b05" y="246.04"/>
      </g>
     </g>
     <g id="text_3">
      <!-- 94 -->
      <g transform="translate(159.894717 260.638438)scale(0.1 -0.1)">
       <defs>
        <path d="M 2419 4116 
L 825 1625 
L 2419 1625 
L 2419 4116 
z
M 2253 4666 
L 3047 4666 
L 3047 1625 
L 3713 1625 
L 3713 1100 
L 3047 1100 
L 3047 0 
L 2419 0 
L 2419 1100 
L 313 1100 
L 313 1709 
L 2253 4666 
z
" id="DejaVuSans-34" transform="scale(0.015625)"/>
       </defs>
       <use xlink:href="#DejaVuSans-39"/>
       <use x="63.623047" xlink:href="#DejaVuSans-34"/>
      </g>
     </g>
    </g>
    <g id="xtick_4">
     <g id="line2d_7">
      <path clip-path="url(#p98302eb1e2)" d="M 208.990947 246.04 
L 208.990947 36.36 
" style="fill:none;stroke:#000000;stroke-dasharray:1.85,0.8;stroke-dashoffset:0;stroke-width:0.5;"/>
     </g>
     <g id="line2d_8">
      <g>
       <use style="stroke:#000000;stroke-width:0.8;" x="208.990947" xlink:href="#mb6f14f2b05" y="246.04"/>
      </g>
     </g>
     <g id="text_4">
      <!-- 96 -->
      <g transform="translate(202.628447 260.638438)scale(0.1 -0.1)">
       <defs>
        <path d="M 2113 2584 
Q 1688 2584 1439 2293 
Q 1191 2003 1191 1497 
Q 1191 994 1439 701 
Q 1688 409 2113 409 
Q 2538 409 2786 701 
Q 3034 994 3034 1497 
Q 3034 2003 2786 2293 
Q 2538 2584 2113 2584 
z
M 3366 4563 
L 3366 3988 
Q 3128 4100 2886 4159 
Q 2644 4219 2406 4219 
Q 1781 4219 1451 3797 
Q 1122 3375 1075 2522 
Q 1259 2794 1537 2939 
Q 1816 3084 2150 3084 
Q 2853 3084 3261 2657 
Q 3669 2231 3669 1497 
Q 3669 778 3244 343 
Q 2819 -91 2113 -91 
Q 1303 -91 875 529 
Q 447 1150 447 2328 
Q 447 3434 972 4092 
Q 1497 4750 2381 4750 
Q 2619 4750 2861 4703 
Q 3103 4656 3366 4563 
z
" id="DejaVuSans-36" transform="scale(0.015625)"/>
       </defs>
       <use xlink:href="#DejaVuSans-39"/>
       <use x="63.623047" xlink:href="#DejaVuSans-36"/>
      </g>
     </g>
    </g>
    <g id="xtick_5">
     <g id="line2d_9">
      <path clip-path="url(#p98302eb1e2)" d="M 251.724678 246.04 
L 251.724678 36.36 
" style="fill:none;stroke:#000000;stroke-dasharray:1.85,0.8;stroke-dashoffset:0;stroke-width:0.5;"/>
     </g>
     <g id="line2d_10">
      <g>
       <use style="stroke:#000000;stroke-width:0.8;" x="251.724678" xlink:href="#mb6f14f2b05" y="246.04"/>
      </g>
     </g>
     <g id="text_5">
      <!-- 98 -->
      <g transform="translate(245.362178 260.638438)scale(0.1 -0.1)">
       <defs>
        <path d="M 2034 2216 
Q 1584 2216 1326 1975 
Q 1069 1734 1069 1313 
Q 1069 891 1326 650 
Q 1584 409 2034 409 
Q 2484 409 2743 651 
Q 3003 894 3003 1313 
Q 3003 1734 2745 1975 
Q 2488 2216 2034 2216 
z
M 1403 2484 
Q 997 2584 770 2862 
Q 544 3141 544 3541 
Q 544 4100 942 4425 
Q 1341 4750 2034 4750 
Q 2731 4750 3128 4425 
Q 3525 4100 3525 3541 
Q 3525 3141 3298 2862 
Q 3072 2584 2669 2484 
Q 3125 2378 3379 2068 
Q 3634 1759 3634 1313 
Q 3634 634 3220 271 
Q 2806 -91 2034 -91 
Q 1263 -91 848 271 
Q 434 634 434 1313 
Q 434 1759 690 2068 
Q 947 2378 1403 2484 
z
M 1172 3481 
Q 1172 3119 1398 2916 
Q 1625 2713 2034 2713 
Q 2441 2713 2670 2916 
Q 2900 3119 2900 3481 
Q 2900 3844 2670 4047 
Q 2441 4250 2034 4250 
Q 1625 4250 1398 4047 
Q 1172 3844 1172 3481 
z
" id="DejaVuSans-38" transform="scale(0.015625)"/>
       </defs>
       <use xlink:href="#DejaVuSans-39"/>
       <use x="63.623047" xlink:href="#DejaVuSans-38"/>
      </g>
     </g>
    </g>
    <g id="xtick_6">
     <g id="line2d_11">
      <path clip-path="url(#p98302eb1e2)" d="M 294.458408 246.04 
L 294.458408 36.36 
" style="fill:none;stroke:#000000;stroke-dasharray:1.85,0.8;stroke-dashoffset:0;stroke-width:0.5;"/>
     </g>
     <g id="line2d_12">
      <g>
       <use style="stroke:#000000;stroke-width:0.8;" x="294.458408" xlink:href="#mb6f14f2b05" y="246.04"/>
      </g>
     </g>
     <g id="text_6">
      <!-- 100 -->
      <g transform="translate(284.914658 260.638438)scale(0.1 -0.1)">
       <defs>
        <path d="M 794 531 
L 1825 531 
L 1825 4091 
L 703 3866 
L 703 4441 
L 1819 4666 
L 2450 4666 
L 2450 531 
L 3481 531 
L 3481 0 
L 794 0 
L 794 531 
z
" id="DejaVuSans-31" transform="scale(0.015625)"/>
       </defs>
       <use xlink:href="#DejaVuSans-31"/>
       <use x="63.623047" xlink:href="#DejaVuSans-30"/>
       <use x="127.246094" xlink:href="#DejaVuSans-30"/>
      </g>
     </g>
    </g>
    <g id="xtick_7">
     <g id="line2d_13">
      <path clip-path="url(#p98302eb1e2)" d="M 337.192139 246.04 
L 337.192139 36.36 
" style="fill:none;stroke:#000000;stroke-dasharray:1.85,0.8;stroke-dashoffset:0;stroke-width:0.5;"/>
     </g>
     <g id="line2d_14">
      <g>
       <use style="stroke:#000000;stroke-width:0.8;" x="337.192139" xlink:href="#mb6f14f2b05" y="246.04"/>
      </g>
     </g>
     <g id="text_7">
      <!-- 102 -->
      <g transform="translate(327.648389 260.638438)scale(0.1 -0.1)">
       <use xlink:href="#DejaVuSans-31"/>
       <use x="63.623047" xlink:href="#DejaVuSans-30"/>
       <use x="127.246094" xlink:href="#DejaVuSans-32"/>
      </g>
     </g>
    </g>
    <g id="text_8">
     <!-- Temps d'entrainenemt (en sec) -->
     <g transform="translate(118.847188 274.316562)scale(0.1 -0.1)">
      <defs>
       <path d="M -19 4666 
L 3928 4666 
L 3928 4134 
L 2272 4134 
L 2272 0 
L 1638 0 
L 1638 4134 
L -19 4134 
L -19 4666 
z
" id="DejaVuSans-54" transform="scale(0.015625)"/>
       <path d="M 3597 1894 
L 3597 1613 
L 953 1613 
Q 991 1019 1311 708 
Q 1631 397 2203 397 
Q 2534 397 2845 478 
Q 3156 559 3463 722 
L 3463 178 
Q 3153 47 2828 -22 
Q 2503 -91 2169 -91 
Q 1331 -91 842 396 
Q 353 884 353 1716 
Q 353 2575 817 3079 
Q 1281 3584 2069 3584 
Q 2775 3584 3186 3129 
Q 3597 2675 3597 1894 
z
M 3022 2063 
Q 3016 2534 2758 2815 
Q 2500 3097 2075 3097 
Q 1594 3097 1305 2825 
Q 1016 2553 972 2059 
L 3022 2063 
z
" id="DejaVuSans-65" transform="scale(0.015625)"/>
       <path d="M 3328 2828 
Q 3544 3216 3844 3400 
Q 4144 3584 4550 3584 
Q 5097 3584 5394 3201 
Q 5691 2819 5691 2113 
L 5691 0 
L 5113 0 
L 5113 2094 
Q 5113 2597 4934 2840 
Q 4756 3084 4391 3084 
Q 3944 3084 3684 2787 
Q 3425 2491 3425 1978 
L 3425 0 
L 2847 0 
L 2847 2094 
Q 2847 2600 2669 2842 
Q 2491 3084 2119 3084 
Q 1678 3084 1418 2786 
Q 1159 2488 1159 1978 
L 1159 0 
L 581 0 
L 581 3500 
L 1159 3500 
L 1159 2956 
Q 1356 3278 1631 3431 
Q 1906 3584 2284 3584 
Q 2666 3584 2933 3390 
Q 3200 3197 3328 2828 
z
" id="DejaVuSans-6d" transform="scale(0.015625)"/>
       <path d="M 1159 525 
L 1159 -1331 
L 581 -1331 
L 581 3500 
L 1159 3500 
L 1159 2969 
Q 1341 3281 1617 3432 
Q 1894 3584 2278 3584 
Q 2916 3584 3314 3078 
Q 3713 2572 3713 1747 
Q 3713 922 3314 415 
Q 2916 -91 2278 -91 
Q 1894 -91 1617 61 
Q 1341 213 1159 525 
z
M 3116 1747 
Q 3116 2381 2855 2742 
Q 2594 3103 2138 3103 
Q 1681 3103 1420 2742 
Q 1159 2381 1159 1747 
Q 1159 1113 1420 752 
Q 1681 391 2138 391 
Q 2594 391 2855 752 
Q 3116 1113 3116 1747 
z
" id="DejaVuSans-70" transform="scale(0.015625)"/>
       <path d="M 2834 3397 
L 2834 2853 
Q 2591 2978 2328 3040 
Q 2066 3103 1784 3103 
Q 1356 3103 1142 2972 
Q 928 2841 928 2578 
Q 928 2378 1081 2264 
Q 1234 2150 1697 2047 
L 1894 2003 
Q 2506 1872 2764 1633 
Q 3022 1394 3022 966 
Q 3022 478 2636 193 
Q 2250 -91 1575 -91 
Q 1294 -91 989 -36 
Q 684 19 347 128 
L 347 722 
Q 666 556 975 473 
Q 1284 391 1588 391 
Q 1994 391 2212 530 
Q 2431 669 2431 922 
Q 2431 1156 2273 1281 
Q 2116 1406 1581 1522 
L 1381 1569 
Q 847 1681 609 1914 
Q 372 2147 372 2553 
Q 372 3047 722 3315 
Q 1072 3584 1716 3584 
Q 2034 3584 2315 3537 
Q 2597 3491 2834 3397 
z
" id="DejaVuSans-73" transform="scale(0.015625)"/>
       <path id="DejaVuSans-20" transform="scale(0.015625)"/>
       <path d="M 2906 2969 
L 2906 4863 
L 3481 4863 
L 3481 0 
L 2906 0 
L 2906 525 
Q 2725 213 2448 61 
Q 2172 -91 1784 -91 
Q 1150 -91 751 415 
Q 353 922 353 1747 
Q 353 2572 751 3078 
Q 1150 3584 1784 3584 
Q 2172 3584 2448 3432 
Q 2725 3281 2906 2969 
z
M 947 1747 
Q 947 1113 1208 752 
Q 1469 391 1925 391 
Q 2381 391 2643 752 
Q 2906 1113 2906 1747 
Q 2906 2381 2643 2742 
Q 2381 3103 1925 3103 
Q 1469 3103 1208 2742 
Q 947 2381 947 1747 
z
" id="DejaVuSans-64" transform="scale(0.015625)"/>
       <path d="M 1147 4666 
L 1147 2931 
L 616 2931 
L 616 4666 
L 1147 4666 
z
" id="DejaVuSans-27" transform="scale(0.015625)"/>
       <path d="M 3513 2113 
L 3513 0 
L 2938 0 
L 2938 2094 
Q 2938 2591 2744 2837 
Q 2550 3084 2163 3084 
Q 1697 3084 1428 2787 
Q 1159 2491 1159 1978 
L 1159 0 
L 581 0 
L 581 3500 
L 1159 3500 
L 1159 2956 
Q 1366 3272 1645 3428 
Q 1925 3584 2291 3584 
Q 2894 3584 3203 3211 
Q 3513 2838 3513 2113 
z
" id="DejaVuSans-6e" transform="scale(0.015625)"/>
       <path d="M 1172 4494 
L 1172 3500 
L 2356 3500 
L 2356 3053 
L 1172 3053 
L 1172 1153 
Q 1172 725 1289 603 
Q 1406 481 1766 481 
L 2356 481 
L 2356 0 
L 1766 0 
Q 1100 0 847 248 
Q 594 497 594 1153 
L 594 3053 
L 172 3053 
L 172 3500 
L 594 3500 
L 594 4494 
L 1172 4494 
z
" id="DejaVuSans-74" transform="scale(0.015625)"/>
       <path d="M 2631 2963 
Q 2534 3019 2420 3045 
Q 2306 3072 2169 3072 
Q 1681 3072 1420 2755 
Q 1159 2438 1159 1844 
L 1159 0 
L 581 0 
L 581 3500 
L 1159 3500 
L 1159 2956 
Q 1341 3275 1631 3429 
Q 1922 3584 2338 3584 
Q 2397 3584 2469 3576 
Q 2541 3569 2628 3553 
L 2631 2963 
z
" id="DejaVuSans-72" transform="scale(0.015625)"/>
       <path d="M 2194 1759 
Q 1497 1759 1228 1600 
Q 959 1441 959 1056 
Q 959 750 1161 570 
Q 1363 391 1709 391 
Q 2188 391 2477 730 
Q 2766 1069 2766 1631 
L 2766 1759 
L 2194 1759 
z
M 3341 1997 
L 3341 0 
L 2766 0 
L 2766 531 
Q 2569 213 2275 61 
Q 1981 -91 1556 -91 
Q 1019 -91 701 211 
Q 384 513 384 1019 
Q 384 1609 779 1909 
Q 1175 2209 1959 2209 
L 2766 2209 
L 2766 2266 
Q 2766 2663 2505 2880 
Q 2244 3097 1772 3097 
Q 1472 3097 1187 3025 
Q 903 2953 641 2809 
L 641 3341 
Q 956 3463 1253 3523 
Q 1550 3584 1831 3584 
Q 2591 3584 2966 3190 
Q 3341 2797 3341 1997 
z
" id="DejaVuSans-61" transform="scale(0.015625)"/>
       <path d="M 603 3500 
L 1178 3500 
L 1178 0 
L 603 0 
L 603 3500 
z
M 603 4863 
L 1178 4863 
L 1178 4134 
L 603 4134 
L 603 4863 
z
" id="DejaVuSans-69" transform="scale(0.015625)"/>
       <path d="M 1984 4856 
Q 1566 4138 1362 3434 
Q 1159 2731 1159 2009 
Q 1159 1288 1364 580 
Q 1569 -128 1984 -844 
L 1484 -844 
Q 1016 -109 783 600 
Q 550 1309 550 2009 
Q 550 2706 781 3412 
Q 1013 4119 1484 4856 
L 1984 4856 
z
" id="DejaVuSans-28" transform="scale(0.015625)"/>
       <path d="M 3122 3366 
L 3122 2828 
Q 2878 2963 2633 3030 
Q 2388 3097 2138 3097 
Q 1578 3097 1268 2742 
Q 959 2388 959 1747 
Q 959 1106 1268 751 
Q 1578 397 2138 397 
Q 2388 397 2633 464 
Q 2878 531 3122 666 
L 3122 134 
Q 2881 22 2623 -34 
Q 2366 -91 2075 -91 
Q 1284 -91 818 406 
Q 353 903 353 1747 
Q 353 2603 823 3093 
Q 1294 3584 2113 3584 
Q 2378 3584 2631 3529 
Q 2884 3475 3122 3366 
z
" id="DejaVuSans-63" transform="scale(0.015625)"/>
       <path d="M 513 4856 
L 1013 4856 
Q 1481 4119 1714 3412 
Q 1947 2706 1947 2009 
Q 1947 1309 1714 600 
Q 1481 -109 1013 -844 
L 513 -844 
Q 928 -128 1133 580 
Q 1338 1288 1338 2009 
Q 1338 2731 1133 3434 
Q 928 4138 513 4856 
z
" id="DejaVuSans-29" transform="scale(0.015625)"/>
      </defs>
      <use xlink:href="#DejaVuSans-54"/>
      <use x="44.083984" xlink:href="#DejaVuSans-65"/>
      <use x="105.607422" xlink:href="#DejaVuSans-6d"/>
      <use x="203.019531" xlink:href="#DejaVuSans-70"/>
      <use x="266.496094" xlink:href="#DejaVuSans-73"/>
      <use x="318.595703" xlink:href="#DejaVuSans-20"/>
      <use x="350.382812" xlink:href="#DejaVuSans-64"/>
      <use x="413.859375" xlink:href="#DejaVuSans-27"/>
      <use x="441.349609" xlink:href="#DejaVuSans-65"/>
      <use x="502.873047" xlink:href="#DejaVuSans-6e"/>
      <use x="566.251953" xlink:href="#DejaVuSans-74"/>
      <use x="605.460938" xlink:href="#DejaVuSans-72"/>
      <use x="646.574219" xlink:href="#DejaVuSans-61"/>
      <use x="707.853516" xlink:href="#DejaVuSans-69"/>
      <use x="735.636719" xlink:href="#DejaVuSans-6e"/>
      <use x="799.015625" xlink:href="#DejaVuSans-65"/>
      <use x="860.539062" xlink:href="#DejaVuSans-6e"/>
      <use x="923.917969" xlink:href="#DejaVuSans-65"/>
      <use x="985.441406" xlink:href="#DejaVuSans-6d"/>
      <use x="1082.853516" xlink:href="#DejaVuSans-74"/>
      <use x="1122.0625" xlink:href="#DejaVuSans-20"/>
      <use x="1153.849609" xlink:href="#DejaVuSans-28"/>
      <use x="1192.863281" xlink:href="#DejaVuSans-65"/>
      <use x="1254.386719" xlink:href="#DejaVuSans-6e"/>
      <use x="1317.765625" xlink:href="#DejaVuSans-20"/>
      <use x="1349.552734" xlink:href="#DejaVuSans-73"/>
      <use x="1401.652344" xlink:href="#DejaVuSans-65"/>
      <use x="1463.175781" xlink:href="#DejaVuSans-63"/>
      <use x="1518.15625" xlink:href="#DejaVuSans-29"/>
     </g>
    </g>
   </g>
   <g id="matplotlib.axis_2">
    <g id="ytick_1">
     <g id="line2d_15">
      <path clip-path="url(#p98302eb1e2)" d="M 47.81 45.890909 
L 345.6 45.890909 
" style="fill:none;stroke:#000000;stroke-dasharray:1.85,0.8;stroke-dashoffset:0;stroke-width:0.5;"/>
     </g>
     <g id="line2d_16">
      <defs>
       <path d="M 0 0 
L -3.5 0 
" id="m13573c83f7" style="stroke:#000000;stroke-width:0.8;"/>
      </defs>
      <g>
       <use style="stroke:#000000;stroke-width:0.8;" x="47.81" xlink:href="#m13573c83f7" y="45.890909"/>
      </g>
     </g>
     <g id="text_9">
      <!-- size100 -->
      <g transform="translate(2.333438 49.690128)scale(0.1 -0.1)">
       <defs>
        <path d="M 353 3500 
L 3084 3500 
L 3084 2975 
L 922 459 
L 3084 459 
L 3084 0 
L 275 0 
L 275 525 
L 2438 3041 
L 353 3041 
L 353 3500 
z
" id="DejaVuSans-7a" transform="scale(0.015625)"/>
       </defs>
       <use xlink:href="#DejaVuSans-73"/>
       <use x="52.099609" xlink:href="#DejaVuSans-69"/>
       <use x="79.882812" xlink:href="#DejaVuSans-7a"/>
       <use x="132.373047" xlink:href="#DejaVuSans-65"/>
       <use x="193.896484" xlink:href="#DejaVuSans-31"/>
       <use x="257.519531" xlink:href="#DejaVuSans-30"/>
       <use x="321.142578" xlink:href="#DejaVuSans-30"/>
      </g>
     </g>
    </g>
    <g id="ytick_2">
     <g id="line2d_17">
      <path clip-path="url(#p98302eb1e2)" d="M 47.81 236.509091 
L 345.6 236.509091 
" style="fill:none;stroke:#000000;stroke-dasharray:1.85,0.8;stroke-dashoffset:0;stroke-width:0.5;"/>
     </g>
     <g id="line2d_18">
      <g>
       <use style="stroke:#000000;stroke-width:0.8;" x="47.81" xlink:href="#m13573c83f7" y="236.509091"/>
      </g>
     </g>
     <g id="text_10">
      <!-- size200 -->
      <g transform="translate(2.333438 240.30831)scale(0.1 -0.1)">
       <use xlink:href="#DejaVuSans-73"/>
       <use x="52.099609" xlink:href="#DejaVuSans-69"/>
       <use x="79.882812" xlink:href="#DejaVuSans-7a"/>
       <use x="132.373047" xlink:href="#DejaVuSans-65"/>
       <use x="193.896484" xlink:href="#DejaVuSans-32"/>
       <use x="257.519531" xlink:href="#DejaVuSans-30"/>
       <use x="321.142578" xlink:href="#DejaVuSans-30"/>
      </g>
     </g>
    </g>
    <g id="text_11">
     <!-- La taille du modèle (en MB) -->
     <g transform="translate(-3.74625 210.14375)rotate(-90)scale(0.1 -0.1)">
      <defs>
       <path d="M 628 4666 
L 1259 4666 
L 1259 531 
L 3531 531 
L 3531 0 
L 628 0 
L 628 4666 
z
" id="DejaVuSans-4c" transform="scale(0.015625)"/>
       <path d="M 603 4863 
L 1178 4863 
L 1178 0 
L 603 0 
L 603 4863 
z
" id="DejaVuSans-6c" transform="scale(0.015625)"/>
       <path d="M 544 1381 
L 544 3500 
L 1119 3500 
L 1119 1403 
Q 1119 906 1312 657 
Q 1506 409 1894 409 
Q 2359 409 2629 706 
Q 2900 1003 2900 1516 
L 2900 3500 
L 3475 3500 
L 3475 0 
L 2900 0 
L 2900 538 
Q 2691 219 2414 64 
Q 2138 -91 1772 -91 
Q 1169 -91 856 284 
Q 544 659 544 1381 
z
M 1991 3584 
L 1991 3584 
z
" id="DejaVuSans-75" transform="scale(0.015625)"/>
       <path d="M 1959 3097 
Q 1497 3097 1228 2736 
Q 959 2375 959 1747 
Q 959 1119 1226 758 
Q 1494 397 1959 397 
Q 2419 397 2687 759 
Q 2956 1122 2956 1747 
Q 2956 2369 2687 2733 
Q 2419 3097 1959 3097 
z
M 1959 3584 
Q 2709 3584 3137 3096 
Q 3566 2609 3566 1747 
Q 3566 888 3137 398 
Q 2709 -91 1959 -91 
Q 1206 -91 779 398 
Q 353 888 353 1747 
Q 353 2609 779 3096 
Q 1206 3584 1959 3584 
z
" id="DejaVuSans-6f" transform="scale(0.015625)"/>
       <path d="M 3597 1894 
L 3597 1613 
L 953 1613 
Q 991 1019 1311 708 
Q 1631 397 2203 397 
Q 2534 397 2845 478 
Q 3156 559 3463 722 
L 3463 178 
Q 3153 47 2828 -22 
Q 2503 -91 2169 -91 
Q 1331 -91 842 396 
Q 353 884 353 1716 
Q 353 2575 817 3079 
Q 1281 3584 2069 3584 
Q 2775 3584 3186 3129 
Q 3597 2675 3597 1894 
z
M 3022 2063 
Q 3016 2534 2758 2815 
Q 2500 3097 2075 3097 
Q 1594 3097 1305 2825 
Q 1016 2553 972 2059 
L 3022 2063 
z
M 1581 5119 
L 2463 3950 
L 1984 3950 
L 966 5119 
L 1581 5119 
z
" id="DejaVuSans-e8" transform="scale(0.015625)"/>
       <path d="M 628 4666 
L 1569 4666 
L 2759 1491 
L 3956 4666 
L 4897 4666 
L 4897 0 
L 4281 0 
L 4281 4097 
L 3078 897 
L 2444 897 
L 1241 4097 
L 1241 0 
L 628 0 
L 628 4666 
z
" id="DejaVuSans-4d" transform="scale(0.015625)"/>
       <path d="M 1259 2228 
L 1259 519 
L 2272 519 
Q 2781 519 3026 730 
Q 3272 941 3272 1375 
Q 3272 1813 3026 2020 
Q 2781 2228 2272 2228 
L 1259 2228 
z
M 1259 4147 
L 1259 2741 
L 2194 2741 
Q 2656 2741 2882 2914 
Q 3109 3088 3109 3444 
Q 3109 3797 2882 3972 
Q 2656 4147 2194 4147 
L 1259 4147 
z
M 628 4666 
L 2241 4666 
Q 2963 4666 3353 4366 
Q 3744 4066 3744 3513 
Q 3744 3084 3544 2831 
Q 3344 2578 2956 2516 
Q 3422 2416 3680 2098 
Q 3938 1781 3938 1306 
Q 3938 681 3513 340 
Q 3088 0 2303 0 
L 628 0 
L 628 4666 
z
" id="DejaVuSans-42" transform="scale(0.015625)"/>
      </defs>
      <use xlink:href="#DejaVuSans-4c"/>
      <use x="55.712891" xlink:href="#DejaVuSans-61"/>
      <use x="116.992188" xlink:href="#DejaVuSans-20"/>
      <use x="148.779297" xlink:href="#DejaVuSans-74"/>
      <use x="187.988281" xlink:href="#DejaVuSans-61"/>
      <use x="249.267578" xlink:href="#DejaVuSans-69"/>
      <use x="277.050781" xlink:href="#DejaVuSans-6c"/>
      <use x="304.833984" xlink:href="#DejaVuSans-6c"/>
      <use x="332.617188" xlink:href="#DejaVuSans-65"/>
      <use x="394.140625" xlink:href="#DejaVuSans-20"/>
      <use x="425.927734" xlink:href="#DejaVuSans-64"/>
      <use x="489.404297" xlink:href="#DejaVuSans-75"/>
      <use x="552.783203" xlink:href="#DejaVuSans-20"/>
      <use x="584.570312" xlink:href="#DejaVuSans-6d"/>
      <use x="681.982422" xlink:href="#DejaVuSans-6f"/>
      <use x="743.164062" xlink:href="#DejaVuSans-64"/>
      <use x="806.640625" xlink:href="#DejaVuSans-e8"/>
      <use x="868.164062" xlink:href="#DejaVuSans-6c"/>
      <use x="895.947266" xlink:href="#DejaVuSans-65"/>
      <use x="957.470703" xlink:href="#DejaVuSans-20"/>
      <use x="989.257812" xlink:href="#DejaVuSans-28"/>
      <use x="1028.271484" xlink:href="#DejaVuSans-65"/>
      <use x="1089.794922" xlink:href="#DejaVuSans-6e"/>
      <use x="1153.173828" xlink:href="#DejaVuSans-20"/>
      <use x="1184.960938" xlink:href="#DejaVuSans-4d"/>
      <use x="1271.240234" xlink:href="#DejaVuSans-42"/>
      <use x="1339.84375" xlink:href="#DejaVuSans-29"/>
     </g>
    </g>
   </g>
   <g id="patch_3">
    <path d="M 47.81 246.04 
L 47.81 36.36 
" style="fill:none;stroke:#000000;stroke-linecap:square;stroke-linejoin:miter;stroke-width:0.8;"/>
   </g>
   <g id="patch_4">
    <path d="M 345.6 246.04 
L 345.6 36.36 
" style="fill:none;stroke:#000000;stroke-linecap:square;stroke-linejoin:miter;stroke-width:0.8;"/>
   </g>
   <g id="patch_5">
    <path d="M 47.81 246.04 
L 345.6 246.04 
" style="fill:none;stroke:#000000;stroke-linecap:square;stroke-linejoin:miter;stroke-width:0.8;"/>
   </g>
   <g id="patch_6">
    <path d="M 47.81 36.36 
L 345.6 36.36 
" style="fill:none;stroke:#000000;stroke-linecap:square;stroke-linejoin:miter;stroke-width:0.8;"/>
   </g>
   <g id="legend_1">
    <g id="patch_7">
     <path d="M 352.6 216.090625 
L 429.48125 216.090625 
Q 431.48125 216.090625 431.48125 214.090625 
L 431.48125 68.309375 
Q 431.48125 66.309375 429.48125 66.309375 
L 352.6 66.309375 
Q 350.6 66.309375 350.6 68.309375 
L 350.6 214.090625 
Q 350.6 216.090625 352.6 216.090625 
z
" style="fill:#ffffff;opacity:0.8;stroke:#cccccc;stroke-linejoin:miter;"/>
    </g>
    <g id="text_12">
     <!-- Window -->
     <g transform="translate(382.6 77.907812)scale(0.1 -0.1)">
      <defs>
       <path d="M 213 4666 
L 850 4666 
L 1831 722 
L 2809 4666 
L 3519 4666 
L 4500 722 
L 5478 4666 
L 6119 4666 
L 4947 0 
L 4153 0 
L 3169 4050 
L 2175 0 
L 1381 0 
L 213 4666 
z
" id="DejaVuSans-57" transform="scale(0.015625)"/>
       <path d="M 269 3500 
L 844 3500 
L 1563 769 
L 2278 3500 
L 2956 3500 
L 3675 769 
L 4391 3500 
L 4966 3500 
L 4050 0 
L 3372 0 
L 2619 2869 
L 1863 0 
L 1184 0 
L 269 3500 
z
" id="DejaVuSans-77" transform="scale(0.015625)"/>
      </defs>
      <use xlink:href="#DejaVuSans-57"/>
      <use x="96.626953" xlink:href="#DejaVuSans-69"/>
      <use x="124.410156" xlink:href="#DejaVuSans-6e"/>
      <use x="187.789062" xlink:href="#DejaVuSans-64"/>
      <use x="251.265625" xlink:href="#DejaVuSans-6f"/>
      <use x="312.447266" xlink:href="#DejaVuSans-77"/>
     </g>
    </g>
    <g id="PathCollection_10">
     <defs>
      <path d="M 0 3 
C 0.795609 3 1.55874 2.683901 2.12132 2.12132 
C 2.683901 1.55874 3 0.795609 3 0 
C 3 -0.795609 2.683901 -1.55874 2.12132 -2.12132 
C 1.55874 -2.683901 0.795609 -3 0 -3 
C -0.795609 -3 -1.55874 -2.683901 -2.12132 -2.12132 
C -2.683901 -1.55874 -3 -0.795609 -3 0 
C -3 0.795609 -2.683901 1.55874 -2.12132 2.12132 
C -1.55874 2.683901 -0.795609 3 0 3 
z
" id="m1896f62ced" style="stroke:#1f77b4;"/>
     </defs>
     <g>
      <use style="fill:#1f77b4;stroke:#1f77b4;" x="364.6" xlink:href="#m1896f62ced" y="89.960938"/>
     </g>
    </g>
    <g id="text_13">
     <!-- window3 -->
     <g transform="translate(382.6 92.585938)scale(0.1 -0.1)">
      <defs>
       <path d="M 2597 2516 
Q 3050 2419 3304 2112 
Q 3559 1806 3559 1356 
Q 3559 666 3084 287 
Q 2609 -91 1734 -91 
Q 1441 -91 1130 -33 
Q 819 25 488 141 
L 488 750 
Q 750 597 1062 519 
Q 1375 441 1716 441 
Q 2309 441 2620 675 
Q 2931 909 2931 1356 
Q 2931 1769 2642 2001 
Q 2353 2234 1838 2234 
L 1294 2234 
L 1294 2753 
L 1863 2753 
Q 2328 2753 2575 2939 
Q 2822 3125 2822 3475 
Q 2822 3834 2567 4026 
Q 2313 4219 1838 4219 
Q 1578 4219 1281 4162 
Q 984 4106 628 3988 
L 628 4550 
Q 988 4650 1302 4700 
Q 1616 4750 1894 4750 
Q 2613 4750 3031 4423 
Q 3450 4097 3450 3541 
Q 3450 3153 3228 2886 
Q 3006 2619 2597 2516 
z
" id="DejaVuSans-33" transform="scale(0.015625)"/>
      </defs>
      <use xlink:href="#DejaVuSans-77"/>
      <use x="81.787109" xlink:href="#DejaVuSans-69"/>
      <use x="109.570312" xlink:href="#DejaVuSans-6e"/>
      <use x="172.949219" xlink:href="#DejaVuSans-64"/>
      <use x="236.425781" xlink:href="#DejaVuSans-6f"/>
      <use x="297.607422" xlink:href="#DejaVuSans-77"/>
      <use x="379.394531" xlink:href="#DejaVuSans-33"/>
     </g>
    </g>
    <g id="PathCollection_11">
     <defs>
      <path d="M 0 3 
C 0.795609 3 1.55874 2.683901 2.12132 2.12132 
C 2.683901 1.55874 3 0.795609 3 0 
C 3 -0.795609 2.683901 -1.55874 2.12132 -2.12132 
C 1.55874 -2.683901 0.795609 -3 0 -3 
C -0.795609 -3 -1.55874 -2.683901 -2.12132 -2.12132 
C -2.683901 -1.55874 -3 -0.795609 -3 0 
C -3 0.795609 -2.683901 1.55874 -2.12132 2.12132 
C -1.55874 2.683901 -0.795609 3 0 3 
z
" id="maf864b2743" style="stroke:#ff7f0e;"/>
     </defs>
     <g>
      <use style="fill:#ff7f0e;stroke:#ff7f0e;" x="364.6" xlink:href="#maf864b2743" y="104.639062"/>
     </g>
    </g>
    <g id="text_14">
     <!-- window4 -->
     <g transform="translate(382.6 107.264062)scale(0.1 -0.1)">
      <use xlink:href="#DejaVuSans-77"/>
      <use x="81.787109" xlink:href="#DejaVuSans-69"/>
      <use x="109.570312" xlink:href="#DejaVuSans-6e"/>
      <use x="172.949219" xlink:href="#DejaVuSans-64"/>
      <use x="236.425781" xlink:href="#DejaVuSans-6f"/>
      <use x="297.607422" xlink:href="#DejaVuSans-77"/>
      <use x="379.394531" xlink:href="#DejaVuSans-34"/>
     </g>
    </g>
    <g id="PathCollection_12">
     <defs>
      <path d="M 0 3 
C 0.795609 3 1.55874 2.683901 2.12132 2.12132 
C 2.683901 1.55874 3 0.795609 3 0 
C 3 -0.795609 2.683901 -1.55874 2.12132 -2.12132 
C 1.55874 -2.683901 0.795609 -3 0 -3 
C -0.795609 -3 -1.55874 -2.683901 -2.12132 -2.12132 
C -2.683901 -1.55874 -3 -0.795609 -3 0 
C -3 0.795609 -2.683901 1.55874 -2.12132 2.12132 
C -1.55874 2.683901 -0.795609 3 0 3 
z
" id="m78a2d356f4" style="stroke:#2ca02c;"/>
     </defs>
     <g>
      <use style="fill:#2ca02c;stroke:#2ca02c;" x="364.6" xlink:href="#m78a2d356f4" y="119.317187"/>
     </g>
    </g>
    <g id="text_15">
     <!-- window5 -->
     <g transform="translate(382.6 121.942187)scale(0.1 -0.1)">
      <defs>
       <path d="M 691 4666 
L 3169 4666 
L 3169 4134 
L 1269 4134 
L 1269 2991 
Q 1406 3038 1543 3061 
Q 1681 3084 1819 3084 
Q 2600 3084 3056 2656 
Q 3513 2228 3513 1497 
Q 3513 744 3044 326 
Q 2575 -91 1722 -91 
Q 1428 -91 1123 -41 
Q 819 9 494 109 
L 494 744 
Q 775 591 1075 516 
Q 1375 441 1709 441 
Q 2250 441 2565 725 
Q 2881 1009 2881 1497 
Q 2881 1984 2565 2268 
Q 2250 2553 1709 2553 
Q 1456 2553 1204 2497 
Q 953 2441 691 2322 
L 691 4666 
z
" id="DejaVuSans-35" transform="scale(0.015625)"/>
      </defs>
      <use xlink:href="#DejaVuSans-77"/>
      <use x="81.787109" xlink:href="#DejaVuSans-69"/>
      <use x="109.570312" xlink:href="#DejaVuSans-6e"/>
      <use x="172.949219" xlink:href="#DejaVuSans-64"/>
      <use x="236.425781" xlink:href="#DejaVuSans-6f"/>
      <use x="297.607422" xlink:href="#DejaVuSans-77"/>
      <use x="379.394531" xlink:href="#DejaVuSans-35"/>
     </g>
    </g>
    <g id="PathCollection_13">
     <defs>
      <path d="M 0 3 
C 0.795609 3 1.55874 2.683901 2.12132 2.12132 
C 2.683901 1.55874 3 0.795609 3 0 
C 3 -0.795609 2.683901 -1.55874 2.12132 -2.12132 
C 1.55874 -2.683901 0.795609 -3 0 -3 
C -0.795609 -3 -1.55874 -2.683901 -2.12132 -2.12132 
C -2.683901 -1.55874 -3 -0.795609 -3 0 
C -3 0.795609 -2.683901 1.55874 -2.12132 2.12132 
C -1.55874 2.683901 -0.795609 3 0 3 
z
" id="mf548236ee5" style="stroke:#d62728;"/>
     </defs>
     <g>
      <use style="fill:#d62728;stroke:#d62728;" x="364.6" xlink:href="#mf548236ee5" y="133.995313"/>
     </g>
    </g>
    <g id="text_16">
     <!-- window6 -->
     <g transform="translate(382.6 136.620313)scale(0.1 -0.1)">
      <use xlink:href="#DejaVuSans-77"/>
      <use x="81.787109" xlink:href="#DejaVuSans-69"/>
      <use x="109.570312" xlink:href="#DejaVuSans-6e"/>
      <use x="172.949219" xlink:href="#DejaVuSans-64"/>
      <use x="236.425781" xlink:href="#DejaVuSans-6f"/>
      <use x="297.607422" xlink:href="#DejaVuSans-77"/>
      <use x="379.394531" xlink:href="#DejaVuSans-36"/>
     </g>
    </g>
    <g id="PathCollection_14">
     <defs>
      <path d="M 0 3 
C 0.795609 3 1.55874 2.683901 2.12132 2.12132 
C 2.683901 1.55874 3 0.795609 3 0 
C 3 -0.795609 2.683901 -1.55874 2.12132 -2.12132 
C 1.55874 -2.683901 0.795609 -3 0 -3 
C -0.795609 -3 -1.55874 -2.683901 -2.12132 -2.12132 
C -2.683901 -1.55874 -3 -0.795609 -3 0 
C -3 0.795609 -2.683901 1.55874 -2.12132 2.12132 
C -1.55874 2.683901 -0.795609 3 0 3 
z
" id="mbf1add8cb8" style="stroke:#9467bd;"/>
     </defs>
     <g>
      <use style="fill:#9467bd;stroke:#9467bd;" x="364.6" xlink:href="#mbf1add8cb8" y="148.673437"/>
     </g>
    </g>
    <g id="text_17">
     <!-- window7 -->
     <g transform="translate(382.6 151.298437)scale(0.1 -0.1)">
      <defs>
       <path d="M 525 4666 
L 3525 4666 
L 3525 4397 
L 1831 0 
L 1172 0 
L 2766 4134 
L 525 4134 
L 525 4666 
z
" id="DejaVuSans-37" transform="scale(0.015625)"/>
      </defs>
      <use xlink:href="#DejaVuSans-77"/>
      <use x="81.787109" xlink:href="#DejaVuSans-69"/>
      <use x="109.570312" xlink:href="#DejaVuSans-6e"/>
      <use x="172.949219" xlink:href="#DejaVuSans-64"/>
      <use x="236.425781" xlink:href="#DejaVuSans-6f"/>
      <use x="297.607422" xlink:href="#DejaVuSans-77"/>
      <use x="379.394531" xlink:href="#DejaVuSans-37"/>
     </g>
    </g>
    <g id="text_18">
     <!-- Negative -->
     <g transform="translate(382.6 165.976562)scale(0.1 -0.1)">
      <defs>
       <path d="M 628 4666 
L 1478 4666 
L 3547 763 
L 3547 4666 
L 4159 4666 
L 4159 0 
L 3309 0 
L 1241 3903 
L 1241 0 
L 628 0 
L 628 4666 
z
" id="DejaVuSans-4e" transform="scale(0.015625)"/>
       <path d="M 2906 1791 
Q 2906 2416 2648 2759 
Q 2391 3103 1925 3103 
Q 1463 3103 1205 2759 
Q 947 2416 947 1791 
Q 947 1169 1205 825 
Q 1463 481 1925 481 
Q 2391 481 2648 825 
Q 2906 1169 2906 1791 
z
M 3481 434 
Q 3481 -459 3084 -895 
Q 2688 -1331 1869 -1331 
Q 1566 -1331 1297 -1286 
Q 1028 -1241 775 -1147 
L 775 -588 
Q 1028 -725 1275 -790 
Q 1522 -856 1778 -856 
Q 2344 -856 2625 -561 
Q 2906 -266 2906 331 
L 2906 616 
Q 2728 306 2450 153 
Q 2172 0 1784 0 
Q 1141 0 747 490 
Q 353 981 353 1791 
Q 353 2603 747 3093 
Q 1141 3584 1784 3584 
Q 2172 3584 2450 3431 
Q 2728 3278 2906 2969 
L 2906 3500 
L 3481 3500 
L 3481 434 
z
" id="DejaVuSans-67" transform="scale(0.015625)"/>
       <path d="M 191 3500 
L 800 3500 
L 1894 563 
L 2988 3500 
L 3597 3500 
L 2284 0 
L 1503 0 
L 191 3500 
z
" id="DejaVuSans-76" transform="scale(0.015625)"/>
      </defs>
      <use xlink:href="#DejaVuSans-4e"/>
      <use x="74.804688" xlink:href="#DejaVuSans-65"/>
      <use x="136.328125" xlink:href="#DejaVuSans-67"/>
      <use x="199.804688" xlink:href="#DejaVuSans-61"/>
      <use x="261.083984" xlink:href="#DejaVuSans-74"/>
      <use x="300.292969" xlink:href="#DejaVuSans-69"/>
      <use x="328.076172" xlink:href="#DejaVuSans-76"/>
      <use x="387.255859" xlink:href="#DejaVuSans-65"/>
     </g>
    </g>
    <g id="PathCollection_15">
     <defs>
      <path d="M 0 3 
C 0.795609 3 1.55874 2.683901 2.12132 2.12132 
C 2.683901 1.55874 3 0.795609 3 0 
C 3 -0.795609 2.683901 -1.55874 2.12132 -2.12132 
C 1.55874 -2.683901 0.795609 -3 0 -3 
C -0.795609 -3 -1.55874 -2.683901 -2.12132 -2.12132 
C -2.683901 -1.55874 -3 -0.795609 -3 0 
C -3 0.795609 -2.683901 1.55874 -2.12132 2.12132 
C -1.55874 2.683901 -0.795609 3 0 3 
z
" id="m95f549072f" style="stroke:#333333;"/>
     </defs>
     <g>
      <use style="fill:#333333;stroke:#333333;" x="364.6" xlink:href="#m95f549072f" y="178.029687"/>
     </g>
    </g>
    <g id="text_19">
     <!-- neg4 -->
     <g transform="translate(382.6 180.654687)scale(0.1 -0.1)">
      <use xlink:href="#DejaVuSans-6e"/>
      <use x="63.378906" xlink:href="#DejaVuSans-65"/>
      <use x="124.902344" xlink:href="#DejaVuSans-67"/>
      <use x="188.378906" xlink:href="#DejaVuSans-34"/>
     </g>
    </g>
    <g id="PathCollection_16">
     <defs>
      <path d="M -1.5 3 
L 0 1.5 
L 1.5 3 
L 3 1.5 
L 1.5 0 
L 3 -1.5 
L 1.5 -3 
L 0 -1.5 
L -1.5 -3 
L -3 -1.5 
L -1.5 0 
L -3 1.5 
z
" id="m5051cb3147" style="stroke:#333333;"/>
     </defs>
     <g>
      <use style="fill:#333333;stroke:#333333;" x="364.6" xlink:href="#m5051cb3147" y="192.707812"/>
     </g>
    </g>
    <g id="text_20">
     <!-- neg5 -->
     <g transform="translate(382.6 195.332812)scale(0.1 -0.1)">
      <use xlink:href="#DejaVuSans-6e"/>
      <use x="63.378906" xlink:href="#DejaVuSans-65"/>
      <use x="124.902344" xlink:href="#DejaVuSans-67"/>
      <use x="188.378906" xlink:href="#DejaVuSans-35"/>
     </g>
    </g>
    <g id="PathCollection_17">
     <defs>
      <path d="M -2.12132 -2.12132 
L -2.12132 2.12132 
L 2.12132 2.12132 
L 2.12132 -2.12132 
z
" id="m9a158b6d58" style="stroke:#333333;"/>
     </defs>
     <g>
      <use style="fill:#333333;stroke:#333333;" x="364.6" xlink:href="#m9a158b6d58" y="207.385937"/>
     </g>
    </g>
    <g id="text_21">
     <!-- neg6 -->
     <g transform="translate(382.6 210.010937)scale(0.1 -0.1)">
      <use xlink:href="#DejaVuSans-6e"/>
      <use x="63.378906" xlink:href="#DejaVuSans-65"/>
      <use x="124.902344" xlink:href="#DejaVuSans-67"/>
      <use x="188.378906" xlink:href="#DejaVuSans-36"/>
     </g>
    </g>
   </g>
  </g>
  <g id="text_22">
   <!-- Taille (MB)) / Temps d'entrainenemt (s) -->
   <g transform="translate(99.860625 14.878125)scale(0.12 -0.12)">
    <defs>
     <path d="M 1625 4666 
L 2156 4666 
L 531 -594 
L 0 -594 
L 1625 4666 
z
" id="DejaVuSans-2f" transform="scale(0.015625)"/>
    </defs>
    <use xlink:href="#DejaVuSans-54"/>
    <use x="44.583984" xlink:href="#DejaVuSans-61"/>
    <use x="105.863281" xlink:href="#DejaVuSans-69"/>
    <use x="133.646484" xlink:href="#DejaVuSans-6c"/>
    <use x="161.429688" xlink:href="#DejaVuSans-6c"/>
    <use x="189.212891" xlink:href="#DejaVuSans-65"/>
    <use x="250.736328" xlink:href="#DejaVuSans-20"/>
    <use x="282.523438" xlink:href="#DejaVuSans-28"/>
    <use x="321.537109" xlink:href="#DejaVuSans-4d"/>
    <use x="407.816406" xlink:href="#DejaVuSans-42"/>
    <use x="476.419922" xlink:href="#DejaVuSans-29"/>
    <use x="515.433594" xlink:href="#DejaVuSans-29"/>
    <use x="554.447266" xlink:href="#DejaVuSans-20"/>
    <use x="586.234375" xlink:href="#DejaVuSans-2f"/>
    <use x="619.925781" xlink:href="#DejaVuSans-20"/>
    <use x="651.712891" xlink:href="#DejaVuSans-54"/>
    <use x="695.796875" xlink:href="#DejaVuSans-65"/>
    <use x="757.320312" xlink:href="#DejaVuSans-6d"/>
    <use x="854.732422" xlink:href="#DejaVuSans-70"/>
    <use x="918.208984" xlink:href="#DejaVuSans-73"/>
    <use x="970.308594" xlink:href="#DejaVuSans-20"/>
    <use x="1002.095703" xlink:href="#DejaVuSans-64"/>
    <use x="1065.572266" xlink:href="#DejaVuSans-27"/>
    <use x="1093.0625" xlink:href="#DejaVuSans-65"/>
    <use x="1154.585938" xlink:href="#DejaVuSans-6e"/>
    <use x="1217.964844" xlink:href="#DejaVuSans-74"/>
    <use x="1257.173828" xlink:href="#DejaVuSans-72"/>
    <use x="1298.287109" xlink:href="#DejaVuSans-61"/>
    <use x="1359.566406" xlink:href="#DejaVuSans-69"/>
    <use x="1387.349609" xlink:href="#DejaVuSans-6e"/>
    <use x="1450.728516" xlink:href="#DejaVuSans-65"/>
    <use x="1512.251953" xlink:href="#DejaVuSans-6e"/>
    <use x="1575.630859" xlink:href="#DejaVuSans-65"/>
    <use x="1637.154297" xlink:href="#DejaVuSans-6d"/>
    <use x="1734.566406" xlink:href="#DejaVuSans-74"/>
    <use x="1773.775391" xlink:href="#DejaVuSans-20"/>
    <use x="1805.5625" xlink:href="#DejaVuSans-28"/>
    <use x="1844.576172" xlink:href="#DejaVuSans-73"/>
    <use x="1896.675781" xlink:href="#DejaVuSans-29"/>
   </g>
  </g>
 </g>
 <defs>
  <clipPath id="p98302eb1e2">
   <rect height="209.68" width="297.79" x="47.81" y="36.36"/>
  </clipPath>
 </defs>
</svg>
