<?xml version="1.0" encoding="utf-8" standalone="no"?>
<!DOCTYPE svg PUBLIC "-//W3C//DTD SVG 1.1//EN"
  "http://www.w3.org/Graphics/SVG/1.1/DTD/svg11.dtd">
<svg height="432pt" version="1.1" viewBox="0 0 648 432" width="648pt" xmlns="http://www.w3.org/2000/svg" xmlns:xlink="http://www.w3.org/1999/xlink">
 <metadata>
  <rdf:RDF xmlns:cc="http://creativecommons.org/ns#" xmlns:dc="http://purl.org/dc/elements/1.1/" xmlns:rdf="http://www.w3.org/1999/02/22-rdf-syntax-ns#">
   <cc:Work>
    <dc:type rdf:resource="http://purl.org/dc/dcmitype/StillImage"/>
    <dc:date>2021-10-27T18:42:30.354953</dc:date>
    <dc:format>image/svg+xml</dc:format>
    <dc:creator>
     <cc:Agent>
      <dc:title>Matplotlib v3.4.2, https://matplotlib.org/</dc:title>
     </cc:Agent>
    </dc:creator>
   </cc:Work>
  </rdf:RDF>
 </metadata>
 <defs>
  <style type="text/css">*{stroke-linecap:butt;stroke-linejoin:round;}</style>
 </defs>
 <g id="figure_1">
  <g id="patch_1">
   <path d="M 0 432 
L 648 432 
L 648 0 
L 0 0 
z
" style="fill:none;"/>
  </g>
  <g id="axes_1">
   <g id="patch_2">
    <path d="M 81 378 
L 583.2 378 
L 583.2 51.84 
L 81 51.84 
z
" style="fill:#ffffff;"/>
   </g>
   <g id="matplotlib.axis_1">
    <g id="xtick_1">
     <g id="line2d_1">
      <defs>
       <path d="M 0 0 
L 0 3.5 
" id="m619901c9cb" style="stroke:#000000;stroke-width:0.8;"/>
      </defs>
      <g>
       <use style="stroke:#000000;stroke-width:0.8;" x="103.827273" xlink:href="#m619901c9cb" y="378"/>
      </g>
     </g>
     <g id="text_1">
      <!-- 0 -->
      <g transform="translate(100.646023 392.598437)scale(0.1 -0.1)">
       <defs>
        <path d="M 2034 4250 
Q 1547 4250 1301 3770 
Q 1056 3291 1056 2328 
Q 1056 1369 1301 889 
Q 1547 409 2034 409 
Q 2525 409 2770 889 
Q 3016 1369 3016 2328 
Q 3016 3291 2770 3770 
Q 2525 4250 2034 4250 
z
M 2034 4750 
Q 2819 4750 3233 4129 
Q 3647 3509 3647 2328 
Q 3647 1150 3233 529 
Q 2819 -91 2034 -91 
Q 1250 -91 836 529 
Q 422 1150 422 2328 
Q 422 3509 836 4129 
Q 1250 4750 2034 4750 
z
" id="DejaVuSans-30" transform="scale(0.015625)"/>
       </defs>
       <use xlink:href="#DejaVuSans-30"/>
      </g>
     </g>
    </g>
    <g id="xtick_2">
     <g id="line2d_2">
      <g>
       <use style="stroke:#000000;stroke-width:0.8;" x="112.958182" xlink:href="#m619901c9cb" y="378"/>
      </g>
     </g>
     <g id="text_2">
      <!-- 1 -->
      <g transform="translate(109.776932 392.598437)scale(0.1 -0.1)">
       <defs>
        <path d="M 794 531 
L 1825 531 
L 1825 4091 
L 703 3866 
L 703 4441 
L 1819 4666 
L 2450 4666 
L 2450 531 
L 3481 531 
L 3481 0 
L 794 0 
L 794 531 
z
" id="DejaVuSans-31" transform="scale(0.015625)"/>
       </defs>
       <use xlink:href="#DejaVuSans-31"/>
      </g>
     </g>
    </g>
    <g id="xtick_3">
     <g id="line2d_3">
      <g>
       <use style="stroke:#000000;stroke-width:0.8;" x="131.22" xlink:href="#m619901c9cb" y="378"/>
      </g>
     </g>
     <g id="text_3">
      <!-- 3 -->
      <g transform="translate(128.03875 392.598437)scale(0.1 -0.1)">
       <defs>
        <path d="M 2597 2516 
Q 3050 2419 3304 2112 
Q 3559 1806 3559 1356 
Q 3559 666 3084 287 
Q 2609 -91 1734 -91 
Q 1441 -91 1130 -33 
Q 819 25 488 141 
L 488 750 
Q 750 597 1062 519 
Q 1375 441 1716 441 
Q 2309 441 2620 675 
Q 2931 909 2931 1356 
Q 2931 1769 2642 2001 
Q 2353 2234 1838 2234 
L 1294 2234 
L 1294 2753 
L 1863 2753 
Q 2328 2753 2575 2939 
Q 2822 3125 2822 3475 
Q 2822 3834 2567 4026 
Q 2313 4219 1838 4219 
Q 1578 4219 1281 4162 
Q 984 4106 628 3988 
L 628 4550 
Q 988 4650 1302 4700 
Q 1616 4750 1894 4750 
Q 2613 4750 3031 4423 
Q 3450 4097 3450 3541 
Q 3450 3153 3228 2886 
Q 3006 2619 2597 2516 
z
" id="DejaVuSans-33" transform="scale(0.015625)"/>
       </defs>
       <use xlink:href="#DejaVuSans-33"/>
      </g>
     </g>
    </g>
    <g id="xtick_4">
     <g id="line2d_4">
      <g>
       <use style="stroke:#000000;stroke-width:0.8;" x="149.481818" xlink:href="#m619901c9cb" y="378"/>
      </g>
     </g>
     <g id="text_4">
      <!-- 5 -->
      <g transform="translate(146.300568 392.598437)scale(0.1 -0.1)">
       <defs>
        <path d="M 691 4666 
L 3169 4666 
L 3169 4134 
L 1269 4134 
L 1269 2991 
Q 1406 3038 1543 3061 
Q 1681 3084 1819 3084 
Q 2600 3084 3056 2656 
Q 3513 2228 3513 1497 
Q 3513 744 3044 326 
Q 2575 -91 1722 -91 
Q 1428 -91 1123 -41 
Q 819 9 494 109 
L 494 744 
Q 775 591 1075 516 
Q 1375 441 1709 441 
Q 2250 441 2565 725 
Q 2881 1009 2881 1497 
Q 2881 1984 2565 2268 
Q 2250 2553 1709 2553 
Q 1456 2553 1204 2497 
Q 953 2441 691 2322 
L 691 4666 
z
" id="DejaVuSans-35" transform="scale(0.015625)"/>
       </defs>
       <use xlink:href="#DejaVuSans-35"/>
      </g>
     </g>
    </g>
    <g id="xtick_5">
     <g id="line2d_5">
      <g>
       <use style="stroke:#000000;stroke-width:0.8;" x="167.743636" xlink:href="#m619901c9cb" y="378"/>
      </g>
     </g>
     <g id="text_5">
      <!-- 7 -->
      <g transform="translate(164.562386 392.598437)scale(0.1 -0.1)">
       <defs>
        <path d="M 525 4666 
L 3525 4666 
L 3525 4397 
L 1831 0 
L 1172 0 
L 2766 4134 
L 525 4134 
L 525 4666 
z
" id="DejaVuSans-37" transform="scale(0.015625)"/>
       </defs>
       <use xlink:href="#DejaVuSans-37"/>
      </g>
     </g>
    </g>
    <g id="xtick_6">
     <g id="line2d_6">
      <g>
       <use style="stroke:#000000;stroke-width:0.8;" x="195.136364" xlink:href="#m619901c9cb" y="378"/>
      </g>
     </g>
     <g id="text_6">
      <!-- 10 -->
      <g transform="translate(188.773864 392.598437)scale(0.1 -0.1)">
       <use xlink:href="#DejaVuSans-31"/>
       <use x="63.623047" xlink:href="#DejaVuSans-30"/>
      </g>
     </g>
    </g>
    <g id="xtick_7">
     <g id="line2d_7">
      <g>
       <use style="stroke:#000000;stroke-width:0.8;" x="286.445455" xlink:href="#m619901c9cb" y="378"/>
      </g>
     </g>
     <g id="text_7">
      <!-- 20 -->
      <g transform="translate(280.082955 392.598437)scale(0.1 -0.1)">
       <defs>
        <path d="M 1228 531 
L 3431 531 
L 3431 0 
L 469 0 
L 469 531 
Q 828 903 1448 1529 
Q 2069 2156 2228 2338 
Q 2531 2678 2651 2914 
Q 2772 3150 2772 3378 
Q 2772 3750 2511 3984 
Q 2250 4219 1831 4219 
Q 1534 4219 1204 4116 
Q 875 4013 500 3803 
L 500 4441 
Q 881 4594 1212 4672 
Q 1544 4750 1819 4750 
Q 2544 4750 2975 4387 
Q 3406 4025 3406 3419 
Q 3406 3131 3298 2873 
Q 3191 2616 2906 2266 
Q 2828 2175 2409 1742 
Q 1991 1309 1228 531 
z
" id="DejaVuSans-32" transform="scale(0.015625)"/>
       </defs>
       <use xlink:href="#DejaVuSans-32"/>
       <use x="63.623047" xlink:href="#DejaVuSans-30"/>
      </g>
     </g>
    </g>
    <g id="xtick_8">
     <g id="line2d_8">
      <g>
       <use style="stroke:#000000;stroke-width:0.8;" x="560.372727" xlink:href="#m619901c9cb" y="378"/>
      </g>
     </g>
     <g id="text_8">
      <!-- 50 -->
      <g transform="translate(554.010227 392.598437)scale(0.1 -0.1)">
       <use xlink:href="#DejaVuSans-35"/>
       <use x="63.623047" xlink:href="#DejaVuSans-30"/>
      </g>
     </g>
    </g>
    <g id="text_9">
     <!-- Frequence minimale pour les regles de la grammaire -->
     <g transform="translate(199.809375 406.276563)scale(0.1 -0.1)">
      <defs>
       <path d="M 628 4666 
L 3309 4666 
L 3309 4134 
L 1259 4134 
L 1259 2759 
L 3109 2759 
L 3109 2228 
L 1259 2228 
L 1259 0 
L 628 0 
L 628 4666 
z
" id="DejaVuSans-46" transform="scale(0.015625)"/>
       <path d="M 2631 2963 
Q 2534 3019 2420 3045 
Q 2306 3072 2169 3072 
Q 1681 3072 1420 2755 
Q 1159 2438 1159 1844 
L 1159 0 
L 581 0 
L 581 3500 
L 1159 3500 
L 1159 2956 
Q 1341 3275 1631 3429 
Q 1922 3584 2338 3584 
Q 2397 3584 2469 3576 
Q 2541 3569 2628 3553 
L 2631 2963 
z
" id="DejaVuSans-72" transform="scale(0.015625)"/>
       <path d="M 3597 1894 
L 3597 1613 
L 953 1613 
Q 991 1019 1311 708 
Q 1631 397 2203 397 
Q 2534 397 2845 478 
Q 3156 559 3463 722 
L 3463 178 
Q 3153 47 2828 -22 
Q 2503 -91 2169 -91 
Q 1331 -91 842 396 
Q 353 884 353 1716 
Q 353 2575 817 3079 
Q 1281 3584 2069 3584 
Q 2775 3584 3186 3129 
Q 3597 2675 3597 1894 
z
M 3022 2063 
Q 3016 2534 2758 2815 
Q 2500 3097 2075 3097 
Q 1594 3097 1305 2825 
Q 1016 2553 972 2059 
L 3022 2063 
z
" id="DejaVuSans-65" transform="scale(0.015625)"/>
       <path d="M 947 1747 
Q 947 1113 1208 752 
Q 1469 391 1925 391 
Q 2381 391 2643 752 
Q 2906 1113 2906 1747 
Q 2906 2381 2643 2742 
Q 2381 3103 1925 3103 
Q 1469 3103 1208 2742 
Q 947 2381 947 1747 
z
M 2906 525 
Q 2725 213 2448 61 
Q 2172 -91 1784 -91 
Q 1150 -91 751 415 
Q 353 922 353 1747 
Q 353 2572 751 3078 
Q 1150 3584 1784 3584 
Q 2172 3584 2448 3432 
Q 2725 3281 2906 2969 
L 2906 3500 
L 3481 3500 
L 3481 -1331 
L 2906 -1331 
L 2906 525 
z
" id="DejaVuSans-71" transform="scale(0.015625)"/>
       <path d="M 544 1381 
L 544 3500 
L 1119 3500 
L 1119 1403 
Q 1119 906 1312 657 
Q 1506 409 1894 409 
Q 2359 409 2629 706 
Q 2900 1003 2900 1516 
L 2900 3500 
L 3475 3500 
L 3475 0 
L 2900 0 
L 2900 538 
Q 2691 219 2414 64 
Q 2138 -91 1772 -91 
Q 1169 -91 856 284 
Q 544 659 544 1381 
z
M 1991 3584 
L 1991 3584 
z
" id="DejaVuSans-75" transform="scale(0.015625)"/>
       <path d="M 3513 2113 
L 3513 0 
L 2938 0 
L 2938 2094 
Q 2938 2591 2744 2837 
Q 2550 3084 2163 3084 
Q 1697 3084 1428 2787 
Q 1159 2491 1159 1978 
L 1159 0 
L 581 0 
L 581 3500 
L 1159 3500 
L 1159 2956 
Q 1366 3272 1645 3428 
Q 1925 3584 2291 3584 
Q 2894 3584 3203 3211 
Q 3513 2838 3513 2113 
z
" id="DejaVuSans-6e" transform="scale(0.015625)"/>
       <path d="M 3122 3366 
L 3122 2828 
Q 2878 2963 2633 3030 
Q 2388 3097 2138 3097 
Q 1578 3097 1268 2742 
Q 959 2388 959 1747 
Q 959 1106 1268 751 
Q 1578 397 2138 397 
Q 2388 397 2633 464 
Q 2878 531 3122 666 
L 3122 134 
Q 2881 22 2623 -34 
Q 2366 -91 2075 -91 
Q 1284 -91 818 406 
Q 353 903 353 1747 
Q 353 2603 823 3093 
Q 1294 3584 2113 3584 
Q 2378 3584 2631 3529 
Q 2884 3475 3122 3366 
z
" id="DejaVuSans-63" transform="scale(0.015625)"/>
       <path id="DejaVuSans-20" transform="scale(0.015625)"/>
       <path d="M 3328 2828 
Q 3544 3216 3844 3400 
Q 4144 3584 4550 3584 
Q 5097 3584 5394 3201 
Q 5691 2819 5691 2113 
L 5691 0 
L 5113 0 
L 5113 2094 
Q 5113 2597 4934 2840 
Q 4756 3084 4391 3084 
Q 3944 3084 3684 2787 
Q 3425 2491 3425 1978 
L 3425 0 
L 2847 0 
L 2847 2094 
Q 2847 2600 2669 2842 
Q 2491 3084 2119 3084 
Q 1678 3084 1418 2786 
Q 1159 2488 1159 1978 
L 1159 0 
L 581 0 
L 581 3500 
L 1159 3500 
L 1159 2956 
Q 1356 3278 1631 3431 
Q 1906 3584 2284 3584 
Q 2666 3584 2933 3390 
Q 3200 3197 3328 2828 
z
" id="DejaVuSans-6d" transform="scale(0.015625)"/>
       <path d="M 603 3500 
L 1178 3500 
L 1178 0 
L 603 0 
L 603 3500 
z
M 603 4863 
L 1178 4863 
L 1178 4134 
L 603 4134 
L 603 4863 
z
" id="DejaVuSans-69" transform="scale(0.015625)"/>
       <path d="M 2194 1759 
Q 1497 1759 1228 1600 
Q 959 1441 959 1056 
Q 959 750 1161 570 
Q 1363 391 1709 391 
Q 2188 391 2477 730 
Q 2766 1069 2766 1631 
L 2766 1759 
L 2194 1759 
z
M 3341 1997 
L 3341 0 
L 2766 0 
L 2766 531 
Q 2569 213 2275 61 
Q 1981 -91 1556 -91 
Q 1019 -91 701 211 
Q 384 513 384 1019 
Q 384 1609 779 1909 
Q 1175 2209 1959 2209 
L 2766 2209 
L 2766 2266 
Q 2766 2663 2505 2880 
Q 2244 3097 1772 3097 
Q 1472 3097 1187 3025 
Q 903 2953 641 2809 
L 641 3341 
Q 956 3463 1253 3523 
Q 1550 3584 1831 3584 
Q 2591 3584 2966 3190 
Q 3341 2797 3341 1997 
z
" id="DejaVuSans-61" transform="scale(0.015625)"/>
       <path d="M 603 4863 
L 1178 4863 
L 1178 0 
L 603 0 
L 603 4863 
z
" id="DejaVuSans-6c" transform="scale(0.015625)"/>
       <path d="M 1159 525 
L 1159 -1331 
L 581 -1331 
L 581 3500 
L 1159 3500 
L 1159 2969 
Q 1341 3281 1617 3432 
Q 1894 3584 2278 3584 
Q 2916 3584 3314 3078 
Q 3713 2572 3713 1747 
Q 3713 922 3314 415 
Q 2916 -91 2278 -91 
Q 1894 -91 1617 61 
Q 1341 213 1159 525 
z
M 3116 1747 
Q 3116 2381 2855 2742 
Q 2594 3103 2138 3103 
Q 1681 3103 1420 2742 
Q 1159 2381 1159 1747 
Q 1159 1113 1420 752 
Q 1681 391 2138 391 
Q 2594 391 2855 752 
Q 3116 1113 3116 1747 
z
" id="DejaVuSans-70" transform="scale(0.015625)"/>
       <path d="M 1959 3097 
Q 1497 3097 1228 2736 
Q 959 2375 959 1747 
Q 959 1119 1226 758 
Q 1494 397 1959 397 
Q 2419 397 2687 759 
Q 2956 1122 2956 1747 
Q 2956 2369 2687 2733 
Q 2419 3097 1959 3097 
z
M 1959 3584 
Q 2709 3584 3137 3096 
Q 3566 2609 3566 1747 
Q 3566 888 3137 398 
Q 2709 -91 1959 -91 
Q 1206 -91 779 398 
Q 353 888 353 1747 
Q 353 2609 779 3096 
Q 1206 3584 1959 3584 
z
" id="DejaVuSans-6f" transform="scale(0.015625)"/>
       <path d="M 2834 3397 
L 2834 2853 
Q 2591 2978 2328 3040 
Q 2066 3103 1784 3103 
Q 1356 3103 1142 2972 
Q 928 2841 928 2578 
Q 928 2378 1081 2264 
Q 1234 2150 1697 2047 
L 1894 2003 
Q 2506 1872 2764 1633 
Q 3022 1394 3022 966 
Q 3022 478 2636 193 
Q 2250 -91 1575 -91 
Q 1294 -91 989 -36 
Q 684 19 347 128 
L 347 722 
Q 666 556 975 473 
Q 1284 391 1588 391 
Q 1994 391 2212 530 
Q 2431 669 2431 922 
Q 2431 1156 2273 1281 
Q 2116 1406 1581 1522 
L 1381 1569 
Q 847 1681 609 1914 
Q 372 2147 372 2553 
Q 372 3047 722 3315 
Q 1072 3584 1716 3584 
Q 2034 3584 2315 3537 
Q 2597 3491 2834 3397 
z
" id="DejaVuSans-73" transform="scale(0.015625)"/>
       <path d="M 2906 1791 
Q 2906 2416 2648 2759 
Q 2391 3103 1925 3103 
Q 1463 3103 1205 2759 
Q 947 2416 947 1791 
Q 947 1169 1205 825 
Q 1463 481 1925 481 
Q 2391 481 2648 825 
Q 2906 1169 2906 1791 
z
M 3481 434 
Q 3481 -459 3084 -895 
Q 2688 -1331 1869 -1331 
Q 1566 -1331 1297 -1286 
Q 1028 -1241 775 -1147 
L 775 -588 
Q 1028 -725 1275 -790 
Q 1522 -856 1778 -856 
Q 2344 -856 2625 -561 
Q 2906 -266 2906 331 
L 2906 616 
Q 2728 306 2450 153 
Q 2172 0 1784 0 
Q 1141 0 747 490 
Q 353 981 353 1791 
Q 353 2603 747 3093 
Q 1141 3584 1784 3584 
Q 2172 3584 2450 3431 
Q 2728 3278 2906 2969 
L 2906 3500 
L 3481 3500 
L 3481 434 
z
" id="DejaVuSans-67" transform="scale(0.015625)"/>
       <path d="M 2906 2969 
L 2906 4863 
L 3481 4863 
L 3481 0 
L 2906 0 
L 2906 525 
Q 2725 213 2448 61 
Q 2172 -91 1784 -91 
Q 1150 -91 751 415 
Q 353 922 353 1747 
Q 353 2572 751 3078 
Q 1150 3584 1784 3584 
Q 2172 3584 2448 3432 
Q 2725 3281 2906 2969 
z
M 947 1747 
Q 947 1113 1208 752 
Q 1469 391 1925 391 
Q 2381 391 2643 752 
Q 2906 1113 2906 1747 
Q 2906 2381 2643 2742 
Q 2381 3103 1925 3103 
Q 1469 3103 1208 2742 
Q 947 2381 947 1747 
z
" id="DejaVuSans-64" transform="scale(0.015625)"/>
      </defs>
      <use xlink:href="#DejaVuSans-46"/>
      <use x="50.269531" xlink:href="#DejaVuSans-72"/>
      <use x="89.132812" xlink:href="#DejaVuSans-65"/>
      <use x="150.65625" xlink:href="#DejaVuSans-71"/>
      <use x="214.132812" xlink:href="#DejaVuSans-75"/>
      <use x="277.511719" xlink:href="#DejaVuSans-65"/>
      <use x="339.035156" xlink:href="#DejaVuSans-6e"/>
      <use x="402.414062" xlink:href="#DejaVuSans-63"/>
      <use x="457.394531" xlink:href="#DejaVuSans-65"/>
      <use x="518.917969" xlink:href="#DejaVuSans-20"/>
      <use x="550.705078" xlink:href="#DejaVuSans-6d"/>
      <use x="648.117188" xlink:href="#DejaVuSans-69"/>
      <use x="675.900391" xlink:href="#DejaVuSans-6e"/>
      <use x="739.279297" xlink:href="#DejaVuSans-69"/>
      <use x="767.0625" xlink:href="#DejaVuSans-6d"/>
      <use x="864.474609" xlink:href="#DejaVuSans-61"/>
      <use x="925.753906" xlink:href="#DejaVuSans-6c"/>
      <use x="953.537109" xlink:href="#DejaVuSans-65"/>
      <use x="1015.060547" xlink:href="#DejaVuSans-20"/>
      <use x="1046.847656" xlink:href="#DejaVuSans-70"/>
      <use x="1110.324219" xlink:href="#DejaVuSans-6f"/>
      <use x="1171.505859" xlink:href="#DejaVuSans-75"/>
      <use x="1234.884766" xlink:href="#DejaVuSans-72"/>
      <use x="1275.998047" xlink:href="#DejaVuSans-20"/>
      <use x="1307.785156" xlink:href="#DejaVuSans-6c"/>
      <use x="1335.568359" xlink:href="#DejaVuSans-65"/>
      <use x="1397.091797" xlink:href="#DejaVuSans-73"/>
      <use x="1449.191406" xlink:href="#DejaVuSans-20"/>
      <use x="1480.978516" xlink:href="#DejaVuSans-72"/>
      <use x="1519.841797" xlink:href="#DejaVuSans-65"/>
      <use x="1581.365234" xlink:href="#DejaVuSans-67"/>
      <use x="1644.841797" xlink:href="#DejaVuSans-6c"/>
      <use x="1672.625" xlink:href="#DejaVuSans-65"/>
      <use x="1734.148438" xlink:href="#DejaVuSans-73"/>
      <use x="1786.248047" xlink:href="#DejaVuSans-20"/>
      <use x="1818.035156" xlink:href="#DejaVuSans-64"/>
      <use x="1881.511719" xlink:href="#DejaVuSans-65"/>
      <use x="1943.035156" xlink:href="#DejaVuSans-20"/>
      <use x="1974.822266" xlink:href="#DejaVuSans-6c"/>
      <use x="2002.605469" xlink:href="#DejaVuSans-61"/>
      <use x="2063.884766" xlink:href="#DejaVuSans-20"/>
      <use x="2095.671875" xlink:href="#DejaVuSans-67"/>
      <use x="2159.148438" xlink:href="#DejaVuSans-72"/>
      <use x="2200.261719" xlink:href="#DejaVuSans-61"/>
      <use x="2261.541016" xlink:href="#DejaVuSans-6d"/>
      <use x="2358.953125" xlink:href="#DejaVuSans-6d"/>
      <use x="2456.365234" xlink:href="#DejaVuSans-61"/>
      <use x="2517.644531" xlink:href="#DejaVuSans-69"/>
      <use x="2545.427734" xlink:href="#DejaVuSans-72"/>
      <use x="2584.291016" xlink:href="#DejaVuSans-65"/>
     </g>
    </g>
   </g>
   <g id="matplotlib.axis_2">
    <g id="ytick_1">
     <g id="line2d_9">
      <defs>
       <path d="M 0 0 
L -3.5 0 
" id="mebbcc4c87d" style="stroke:#000000;stroke-width:0.8;"/>
      </defs>
      <g>
       <use style="stroke:#000000;stroke-width:0.8;" x="81" xlink:href="#mebbcc4c87d" y="343.407273"/>
      </g>
     </g>
     <g id="text_10">
      <!-- 2 -->
      <g transform="translate(67.6375 347.206491)scale(0.1 -0.1)">
       <use xlink:href="#DejaVuSans-32"/>
      </g>
     </g>
    </g>
    <g id="ytick_2">
     <g id="line2d_10">
      <g>
       <use style="stroke:#000000;stroke-width:0.8;" x="81" xlink:href="#mebbcc4c87d" y="303.872727"/>
      </g>
     </g>
     <g id="text_11">
      <!-- 4 -->
      <g transform="translate(67.6375 307.671946)scale(0.1 -0.1)">
       <defs>
        <path d="M 2419 4116 
L 825 1625 
L 2419 1625 
L 2419 4116 
z
M 2253 4666 
L 3047 4666 
L 3047 1625 
L 3713 1625 
L 3713 1100 
L 3047 1100 
L 3047 0 
L 2419 0 
L 2419 1100 
L 313 1100 
L 313 1709 
L 2253 4666 
z
" id="DejaVuSans-34" transform="scale(0.015625)"/>
       </defs>
       <use xlink:href="#DejaVuSans-34"/>
      </g>
     </g>
    </g>
    <g id="ytick_3">
     <g id="line2d_11">
      <g>
       <use style="stroke:#000000;stroke-width:0.8;" x="81" xlink:href="#mebbcc4c87d" y="264.338182"/>
      </g>
     </g>
     <g id="text_12">
      <!-- 6 -->
      <g transform="translate(67.6375 268.137401)scale(0.1 -0.1)">
       <defs>
        <path d="M 2113 2584 
Q 1688 2584 1439 2293 
Q 1191 2003 1191 1497 
Q 1191 994 1439 701 
Q 1688 409 2113 409 
Q 2538 409 2786 701 
Q 3034 994 3034 1497 
Q 3034 2003 2786 2293 
Q 2538 2584 2113 2584 
z
M 3366 4563 
L 3366 3988 
Q 3128 4100 2886 4159 
Q 2644 4219 2406 4219 
Q 1781 4219 1451 3797 
Q 1122 3375 1075 2522 
Q 1259 2794 1537 2939 
Q 1816 3084 2150 3084 
Q 2853 3084 3261 2657 
Q 3669 2231 3669 1497 
Q 3669 778 3244 343 
Q 2819 -91 2113 -91 
Q 1303 -91 875 529 
Q 447 1150 447 2328 
Q 447 3434 972 4092 
Q 1497 4750 2381 4750 
Q 2619 4750 2861 4703 
Q 3103 4656 3366 4563 
z
" id="DejaVuSans-36" transform="scale(0.015625)"/>
       </defs>
       <use xlink:href="#DejaVuSans-36"/>
      </g>
     </g>
    </g>
    <g id="ytick_4">
     <g id="line2d_12">
      <g>
       <use style="stroke:#000000;stroke-width:0.8;" x="81" xlink:href="#mebbcc4c87d" y="224.803636"/>
      </g>
     </g>
     <g id="text_13">
      <!-- 8 -->
      <g transform="translate(67.6375 228.602855)scale(0.1 -0.1)">
       <defs>
        <path d="M 2034 2216 
Q 1584 2216 1326 1975 
Q 1069 1734 1069 1313 
Q 1069 891 1326 650 
Q 1584 409 2034 409 
Q 2484 409 2743 651 
Q 3003 894 3003 1313 
Q 3003 1734 2745 1975 
Q 2488 2216 2034 2216 
z
M 1403 2484 
Q 997 2584 770 2862 
Q 544 3141 544 3541 
Q 544 4100 942 4425 
Q 1341 4750 2034 4750 
Q 2731 4750 3128 4425 
Q 3525 4100 3525 3541 
Q 3525 3141 3298 2862 
Q 3072 2584 2669 2484 
Q 3125 2378 3379 2068 
Q 3634 1759 3634 1313 
Q 3634 634 3220 271 
Q 2806 -91 2034 -91 
Q 1263 -91 848 271 
Q 434 634 434 1313 
Q 434 1759 690 2068 
Q 947 2378 1403 2484 
z
M 1172 3481 
Q 1172 3119 1398 2916 
Q 1625 2713 2034 2713 
Q 2441 2713 2670 2916 
Q 2900 3119 2900 3481 
Q 2900 3844 2670 4047 
Q 2441 4250 2034 4250 
Q 1625 4250 1398 4047 
Q 1172 3844 1172 3481 
z
" id="DejaVuSans-38" transform="scale(0.015625)"/>
       </defs>
       <use xlink:href="#DejaVuSans-38"/>
      </g>
     </g>
    </g>
    <g id="ytick_5">
     <g id="line2d_13">
      <g>
       <use style="stroke:#000000;stroke-width:0.8;" x="81" xlink:href="#mebbcc4c87d" y="185.269091"/>
      </g>
     </g>
     <g id="text_14">
      <!-- 10 -->
      <g transform="translate(61.275 189.06831)scale(0.1 -0.1)">
       <use xlink:href="#DejaVuSans-31"/>
       <use x="63.623047" xlink:href="#DejaVuSans-30"/>
      </g>
     </g>
    </g>
    <g id="ytick_6">
     <g id="line2d_14">
      <g>
       <use style="stroke:#000000;stroke-width:0.8;" x="81" xlink:href="#mebbcc4c87d" y="145.734545"/>
      </g>
     </g>
     <g id="text_15">
      <!-- 12 -->
      <g transform="translate(61.275 149.533764)scale(0.1 -0.1)">
       <use xlink:href="#DejaVuSans-31"/>
       <use x="63.623047" xlink:href="#DejaVuSans-32"/>
      </g>
     </g>
    </g>
    <g id="ytick_7">
     <g id="line2d_15">
      <g>
       <use style="stroke:#000000;stroke-width:0.8;" x="81" xlink:href="#mebbcc4c87d" y="106.2"/>
      </g>
     </g>
     <g id="text_16">
      <!-- 14 -->
      <g transform="translate(61.275 109.999219)scale(0.1 -0.1)">
       <use xlink:href="#DejaVuSans-31"/>
       <use x="63.623047" xlink:href="#DejaVuSans-34"/>
      </g>
     </g>
    </g>
    <g id="ytick_8">
     <g id="line2d_16">
      <g>
       <use style="stroke:#000000;stroke-width:0.8;" x="81" xlink:href="#mebbcc4c87d" y="66.665455"/>
      </g>
     </g>
     <g id="text_17">
      <!-- 16 -->
      <g transform="translate(61.275 70.464673)scale(0.1 -0.1)">
       <use xlink:href="#DejaVuSans-31"/>
       <use x="63.623047" xlink:href="#DejaVuSans-36"/>
      </g>
     </g>
    </g>
    <g id="text_18">
     <!-- Le nombre de phrases non reconnues par la grammaire. -->
     <g transform="translate(55.195312 355.954375)rotate(-90)scale(0.1 -0.1)">
      <defs>
       <path d="M 628 4666 
L 1259 4666 
L 1259 531 
L 3531 531 
L 3531 0 
L 628 0 
L 628 4666 
z
" id="DejaVuSans-4c" transform="scale(0.015625)"/>
       <path d="M 3116 1747 
Q 3116 2381 2855 2742 
Q 2594 3103 2138 3103 
Q 1681 3103 1420 2742 
Q 1159 2381 1159 1747 
Q 1159 1113 1420 752 
Q 1681 391 2138 391 
Q 2594 391 2855 752 
Q 3116 1113 3116 1747 
z
M 1159 2969 
Q 1341 3281 1617 3432 
Q 1894 3584 2278 3584 
Q 2916 3584 3314 3078 
Q 3713 2572 3713 1747 
Q 3713 922 3314 415 
Q 2916 -91 2278 -91 
Q 1894 -91 1617 61 
Q 1341 213 1159 525 
L 1159 0 
L 581 0 
L 581 4863 
L 1159 4863 
L 1159 2969 
z
" id="DejaVuSans-62" transform="scale(0.015625)"/>
       <path d="M 3513 2113 
L 3513 0 
L 2938 0 
L 2938 2094 
Q 2938 2591 2744 2837 
Q 2550 3084 2163 3084 
Q 1697 3084 1428 2787 
Q 1159 2491 1159 1978 
L 1159 0 
L 581 0 
L 581 4863 
L 1159 4863 
L 1159 2956 
Q 1366 3272 1645 3428 
Q 1925 3584 2291 3584 
Q 2894 3584 3203 3211 
Q 3513 2838 3513 2113 
z
" id="DejaVuSans-68" transform="scale(0.015625)"/>
       <path d="M 684 794 
L 1344 794 
L 1344 0 
L 684 0 
L 684 794 
z
" id="DejaVuSans-2e" transform="scale(0.015625)"/>
      </defs>
      <use xlink:href="#DejaVuSans-4c"/>
      <use x="53.962891" xlink:href="#DejaVuSans-65"/>
      <use x="115.486328" xlink:href="#DejaVuSans-20"/>
      <use x="147.273438" xlink:href="#DejaVuSans-6e"/>
      <use x="210.652344" xlink:href="#DejaVuSans-6f"/>
      <use x="271.833984" xlink:href="#DejaVuSans-6d"/>
      <use x="369.246094" xlink:href="#DejaVuSans-62"/>
      <use x="432.722656" xlink:href="#DejaVuSans-72"/>
      <use x="471.585938" xlink:href="#DejaVuSans-65"/>
      <use x="533.109375" xlink:href="#DejaVuSans-20"/>
      <use x="564.896484" xlink:href="#DejaVuSans-64"/>
      <use x="628.373047" xlink:href="#DejaVuSans-65"/>
      <use x="689.896484" xlink:href="#DejaVuSans-20"/>
      <use x="721.683594" xlink:href="#DejaVuSans-70"/>
      <use x="785.160156" xlink:href="#DejaVuSans-68"/>
      <use x="848.539062" xlink:href="#DejaVuSans-72"/>
      <use x="889.652344" xlink:href="#DejaVuSans-61"/>
      <use x="950.931641" xlink:href="#DejaVuSans-73"/>
      <use x="1003.03125" xlink:href="#DejaVuSans-65"/>
      <use x="1064.554688" xlink:href="#DejaVuSans-73"/>
      <use x="1116.654297" xlink:href="#DejaVuSans-20"/>
      <use x="1148.441406" xlink:href="#DejaVuSans-6e"/>
      <use x="1211.820312" xlink:href="#DejaVuSans-6f"/>
      <use x="1273.001953" xlink:href="#DejaVuSans-6e"/>
      <use x="1336.380859" xlink:href="#DejaVuSans-20"/>
      <use x="1368.167969" xlink:href="#DejaVuSans-72"/>
      <use x="1407.03125" xlink:href="#DejaVuSans-65"/>
      <use x="1468.554688" xlink:href="#DejaVuSans-63"/>
      <use x="1523.535156" xlink:href="#DejaVuSans-6f"/>
      <use x="1584.716797" xlink:href="#DejaVuSans-6e"/>
      <use x="1648.095703" xlink:href="#DejaVuSans-6e"/>
      <use x="1711.474609" xlink:href="#DejaVuSans-75"/>
      <use x="1774.853516" xlink:href="#DejaVuSans-65"/>
      <use x="1836.376953" xlink:href="#DejaVuSans-73"/>
      <use x="1888.476562" xlink:href="#DejaVuSans-20"/>
      <use x="1920.263672" xlink:href="#DejaVuSans-70"/>
      <use x="1983.740234" xlink:href="#DejaVuSans-61"/>
      <use x="2045.019531" xlink:href="#DejaVuSans-72"/>
      <use x="2086.132812" xlink:href="#DejaVuSans-20"/>
      <use x="2117.919922" xlink:href="#DejaVuSans-6c"/>
      <use x="2145.703125" xlink:href="#DejaVuSans-61"/>
      <use x="2206.982422" xlink:href="#DejaVuSans-20"/>
      <use x="2238.769531" xlink:href="#DejaVuSans-67"/>
      <use x="2302.246094" xlink:href="#DejaVuSans-72"/>
      <use x="2343.359375" xlink:href="#DejaVuSans-61"/>
      <use x="2404.638672" xlink:href="#DejaVuSans-6d"/>
      <use x="2502.050781" xlink:href="#DejaVuSans-6d"/>
      <use x="2599.462891" xlink:href="#DejaVuSans-61"/>
      <use x="2660.742188" xlink:href="#DejaVuSans-69"/>
      <use x="2688.525391" xlink:href="#DejaVuSans-72"/>
      <use x="2727.388672" xlink:href="#DejaVuSans-65"/>
      <use x="2788.912109" xlink:href="#DejaVuSans-2e"/>
     </g>
    </g>
   </g>
   <g id="line2d_17">
    <path clip-path="url(#pe873053417)" d="M 103.827273 363.174545 
L 112.958182 343.407273 
L 131.22 284.105455 
L 149.481818 284.105455 
L 167.743636 284.105455 
L 195.136364 284.105455 
L 286.445455 185.269091 
L 560.372727 66.665455 
" style="fill:none;stroke:#0000ff;stroke-linecap:square;stroke-width:1.5;"/>
    <defs>
     <path d="M 0 3 
C 0.795609 3 1.55874 2.683901 2.12132 2.12132 
C 2.683901 1.55874 3 0.795609 3 0 
C 3 -0.795609 2.683901 -1.55874 2.12132 -2.12132 
C 1.55874 -2.683901 0.795609 -3 0 -3 
C -0.795609 -3 -1.55874 -2.683901 -2.12132 -2.12132 
C -2.683901 -1.55874 -3 -0.795609 -3 0 
C -3 0.795609 -2.683901 1.55874 -2.12132 2.12132 
C -1.55874 2.683901 -0.795609 3 0 3 
z
" id="mc12d6a01f3" style="stroke:#0000ff;"/>
    </defs>
    <g clip-path="url(#pe873053417)">
     <use style="fill:#0000ff;stroke:#0000ff;" x="103.827273" xlink:href="#mc12d6a01f3" y="363.174545"/>
     <use style="fill:#0000ff;stroke:#0000ff;" x="112.958182" xlink:href="#mc12d6a01f3" y="343.407273"/>
     <use style="fill:#0000ff;stroke:#0000ff;" x="131.22" xlink:href="#mc12d6a01f3" y="284.105455"/>
     <use style="fill:#0000ff;stroke:#0000ff;" x="149.481818" xlink:href="#mc12d6a01f3" y="284.105455"/>
     <use style="fill:#0000ff;stroke:#0000ff;" x="167.743636" xlink:href="#mc12d6a01f3" y="284.105455"/>
     <use style="fill:#0000ff;stroke:#0000ff;" x="195.136364" xlink:href="#mc12d6a01f3" y="284.105455"/>
     <use style="fill:#0000ff;stroke:#0000ff;" x="286.445455" xlink:href="#mc12d6a01f3" y="185.269091"/>
     <use style="fill:#0000ff;stroke:#0000ff;" x="560.372727" xlink:href="#mc12d6a01f3" y="66.665455"/>
    </g>
   </g>
   <g id="patch_3">
    <path d="M 81 378 
L 81 51.84 
" style="fill:none;stroke:#000000;stroke-linecap:square;stroke-linejoin:miter;stroke-width:0.8;"/>
   </g>
   <g id="patch_4">
    <path d="M 583.2 378 
L 583.2 51.84 
" style="fill:none;stroke:#000000;stroke-linecap:square;stroke-linejoin:miter;stroke-width:0.8;"/>
   </g>
   <g id="patch_5">
    <path d="M 81 378 
L 583.2 378 
" style="fill:none;stroke:#000000;stroke-linecap:square;stroke-linejoin:miter;stroke-width:0.8;"/>
   </g>
   <g id="patch_6">
    <path d="M 81 51.84 
L 583.2 51.84 
" style="fill:none;stroke:#000000;stroke-linecap:square;stroke-linejoin:miter;stroke-width:0.8;"/>
   </g>
   <g id="text_19">
    <!-- Impact du filtrage sur le nombre de phrases non reconnues par la grammaire. -->
    <g transform="translate(97.602188 45.84)scale(0.12 -0.12)">
     <defs>
      <path d="M 628 4666 
L 1259 4666 
L 1259 0 
L 628 0 
L 628 4666 
z
" id="DejaVuSans-49" transform="scale(0.015625)"/>
      <path d="M 1172 4494 
L 1172 3500 
L 2356 3500 
L 2356 3053 
L 1172 3053 
L 1172 1153 
Q 1172 725 1289 603 
Q 1406 481 1766 481 
L 2356 481 
L 2356 0 
L 1766 0 
Q 1100 0 847 248 
Q 594 497 594 1153 
L 594 3053 
L 172 3053 
L 172 3500 
L 594 3500 
L 594 4494 
L 1172 4494 
z
" id="DejaVuSans-74" transform="scale(0.015625)"/>
      <path d="M 2375 4863 
L 2375 4384 
L 1825 4384 
Q 1516 4384 1395 4259 
Q 1275 4134 1275 3809 
L 1275 3500 
L 2222 3500 
L 2222 3053 
L 1275 3053 
L 1275 0 
L 697 0 
L 697 3053 
L 147 3053 
L 147 3500 
L 697 3500 
L 697 3744 
Q 697 4328 969 4595 
Q 1241 4863 1831 4863 
L 2375 4863 
z
" id="DejaVuSans-66" transform="scale(0.015625)"/>
     </defs>
     <use xlink:href="#DejaVuSans-49"/>
     <use x="29.492188" xlink:href="#DejaVuSans-6d"/>
     <use x="126.904297" xlink:href="#DejaVuSans-70"/>
     <use x="190.380859" xlink:href="#DejaVuSans-61"/>
     <use x="251.660156" xlink:href="#DejaVuSans-63"/>
     <use x="306.640625" xlink:href="#DejaVuSans-74"/>
     <use x="345.849609" xlink:href="#DejaVuSans-20"/>
     <use x="377.636719" xlink:href="#DejaVuSans-64"/>
     <use x="441.113281" xlink:href="#DejaVuSans-75"/>
     <use x="504.492188" xlink:href="#DejaVuSans-20"/>
     <use x="536.279297" xlink:href="#DejaVuSans-66"/>
     <use x="571.484375" xlink:href="#DejaVuSans-69"/>
     <use x="599.267578" xlink:href="#DejaVuSans-6c"/>
     <use x="627.050781" xlink:href="#DejaVuSans-74"/>
     <use x="666.259766" xlink:href="#DejaVuSans-72"/>
     <use x="707.373047" xlink:href="#DejaVuSans-61"/>
     <use x="768.652344" xlink:href="#DejaVuSans-67"/>
     <use x="832.128906" xlink:href="#DejaVuSans-65"/>
     <use x="893.652344" xlink:href="#DejaVuSans-20"/>
     <use x="925.439453" xlink:href="#DejaVuSans-73"/>
     <use x="977.539062" xlink:href="#DejaVuSans-75"/>
     <use x="1040.917969" xlink:href="#DejaVuSans-72"/>
     <use x="1082.03125" xlink:href="#DejaVuSans-20"/>
     <use x="1113.818359" xlink:href="#DejaVuSans-6c"/>
     <use x="1141.601562" xlink:href="#DejaVuSans-65"/>
     <use x="1203.125" xlink:href="#DejaVuSans-20"/>
     <use x="1234.912109" xlink:href="#DejaVuSans-6e"/>
     <use x="1298.291016" xlink:href="#DejaVuSans-6f"/>
     <use x="1359.472656" xlink:href="#DejaVuSans-6d"/>
     <use x="1456.884766" xlink:href="#DejaVuSans-62"/>
     <use x="1520.361328" xlink:href="#DejaVuSans-72"/>
     <use x="1559.224609" xlink:href="#DejaVuSans-65"/>
     <use x="1620.748047" xlink:href="#DejaVuSans-20"/>
     <use x="1652.535156" xlink:href="#DejaVuSans-64"/>
     <use x="1716.011719" xlink:href="#DejaVuSans-65"/>
     <use x="1777.535156" xlink:href="#DejaVuSans-20"/>
     <use x="1809.322266" xlink:href="#DejaVuSans-70"/>
     <use x="1872.798828" xlink:href="#DejaVuSans-68"/>
     <use x="1936.177734" xlink:href="#DejaVuSans-72"/>
     <use x="1977.291016" xlink:href="#DejaVuSans-61"/>
     <use x="2038.570312" xlink:href="#DejaVuSans-73"/>
     <use x="2090.669922" xlink:href="#DejaVuSans-65"/>
     <use x="2152.193359" xlink:href="#DejaVuSans-73"/>
     <use x="2204.292969" xlink:href="#DejaVuSans-20"/>
     <use x="2236.080078" xlink:href="#DejaVuSans-6e"/>
     <use x="2299.458984" xlink:href="#DejaVuSans-6f"/>
     <use x="2360.640625" xlink:href="#DejaVuSans-6e"/>
     <use x="2424.019531" xlink:href="#DejaVuSans-20"/>
     <use x="2455.806641" xlink:href="#DejaVuSans-72"/>
     <use x="2494.669922" xlink:href="#DejaVuSans-65"/>
     <use x="2556.193359" xlink:href="#DejaVuSans-63"/>
     <use x="2611.173828" xlink:href="#DejaVuSans-6f"/>
     <use x="2672.355469" xlink:href="#DejaVuSans-6e"/>
     <use x="2735.734375" xlink:href="#DejaVuSans-6e"/>
     <use x="2799.113281" xlink:href="#DejaVuSans-75"/>
     <use x="2862.492188" xlink:href="#DejaVuSans-65"/>
     <use x="2924.015625" xlink:href="#DejaVuSans-73"/>
     <use x="2976.115234" xlink:href="#DejaVuSans-20"/>
     <use x="3007.902344" xlink:href="#DejaVuSans-70"/>
     <use x="3071.378906" xlink:href="#DejaVuSans-61"/>
     <use x="3132.658203" xlink:href="#DejaVuSans-72"/>
     <use x="3173.771484" xlink:href="#DejaVuSans-20"/>
     <use x="3205.558594" xlink:href="#DejaVuSans-6c"/>
     <use x="3233.341797" xlink:href="#DejaVuSans-61"/>
     <use x="3294.621094" xlink:href="#DejaVuSans-20"/>
     <use x="3326.408203" xlink:href="#DejaVuSans-67"/>
     <use x="3389.884766" xlink:href="#DejaVuSans-72"/>
     <use x="3430.998047" xlink:href="#DejaVuSans-61"/>
     <use x="3492.277344" xlink:href="#DejaVuSans-6d"/>
     <use x="3589.689453" xlink:href="#DejaVuSans-6d"/>
     <use x="3687.101562" xlink:href="#DejaVuSans-61"/>
     <use x="3748.380859" xlink:href="#DejaVuSans-69"/>
     <use x="3776.164062" xlink:href="#DejaVuSans-72"/>
     <use x="3815.027344" xlink:href="#DejaVuSans-65"/>
     <use x="3876.550781" xlink:href="#DejaVuSans-2e"/>
    </g>
   </g>
   <g id="legend_1">
    <g id="patch_7">
     <path d="M 572.2 64.84 
L 576.2 64.84 
Q 578.2 64.84 578.2 62.84 
L 578.2 58.84 
Q 578.2 56.84 576.2 56.84 
L 572.2 56.84 
Q 570.2 56.84 570.2 58.84 
L 570.2 62.84 
Q 570.2 64.84 572.2 64.84 
z
" style="fill:#ffffff;opacity:0.8;stroke:#cccccc;stroke-linejoin:miter;"/>
    </g>
   </g>
  </g>
 </g>
 <defs>
  <clipPath id="pe873053417">
   <rect height="326.16" width="502.2" x="81" y="51.84"/>
  </clipPath>
 </defs>
</svg>
