<?xml version="1.0" encoding="utf-8" standalone="no"?>
<!DOCTYPE svg PUBLIC "-//W3C//DTD SVG 1.1//EN"
  "http://www.w3.org/Graphics/SVG/1.1/DTD/svg11.dtd">
<!-- Created with matplotlib (https://matplotlib.org/) -->
<svg height="345.6pt" version="1.1" viewBox="0 0 460.8 345.6" width="460.8pt" xmlns="http://www.w3.org/2000/svg" xmlns:xlink="http://www.w3.org/1999/xlink">
 <metadata>
  <rdf:RDF xmlns:cc="http://creativecommons.org/ns#" xmlns:dc="http://purl.org/dc/elements/1.1/" xmlns:rdf="http://www.w3.org/1999/02/22-rdf-syntax-ns#">
   <cc:Work>
    <dc:type rdf:resource="http://purl.org/dc/dcmitype/StillImage"/>
    <dc:date>2021-10-25T13:26:35.818645</dc:date>
    <dc:format>image/svg+xml</dc:format>
    <dc:creator>
     <cc:Agent>
      <dc:title>Matplotlib v3.3.2, https://matplotlib.org/</dc:title>
     </cc:Agent>
    </dc:creator>
   </cc:Work>
  </rdf:RDF>
 </metadata>
 <defs>
  <style type="text/css">*{stroke-linecap:butt;stroke-linejoin:round;}</style>
 </defs>
 <g id="figure_1">
  <g id="patch_1">
   <path d="M 0 345.6 
L 460.8 345.6 
L 460.8 0 
L 0 0 
z
" style="fill:#ffffff;"/>
  </g>
  <g id="axes_1">
   <g id="patch_2">
    <path d="M 57.6 307.584 
L 414.72 307.584 
L 414.72 41.472 
L 57.6 41.472 
z
" style="fill:#ffffff;"/>
   </g>
   <g id="matplotlib.axis_1">
    <g id="xtick_1">
     <g id="line2d_1">
      <defs>
       <path d="M 0 0 
L 0 3.5 
" id="md309fa0c51" style="stroke:#000000;stroke-width:0.8;"/>
      </defs>
      <g>
       <use style="stroke:#000000;stroke-width:0.8;" x="94.123636" xlink:href="#md309fa0c51" y="307.584"/>
      </g>
     </g>
     <g id="text_1">
      <!-- 4 -->
      <g transform="translate(90.942386 322.182437)scale(0.1 -0.1)">
       <defs>
        <path d="M 37.796875 64.3125 
L 12.890625 25.390625 
L 37.796875 25.390625 
z
M 35.203125 72.90625 
L 47.609375 72.90625 
L 47.609375 25.390625 
L 58.015625 25.390625 
L 58.015625 17.1875 
L 47.609375 17.1875 
L 47.609375 0 
L 37.796875 0 
L 37.796875 17.1875 
L 4.890625 17.1875 
L 4.890625 26.703125 
z
" id="DejaVuSans-52"/>
       </defs>
       <use xlink:href="#DejaVuSans-52"/>
      </g>
     </g>
    </g>
    <g id="xtick_2">
     <g id="line2d_2">
      <g>
       <use style="stroke:#000000;stroke-width:0.8;" x="134.705455" xlink:href="#md309fa0c51" y="307.584"/>
      </g>
     </g>
     <g id="text_2">
      <!-- 6 -->
      <g transform="translate(131.524205 322.182437)scale(0.1 -0.1)">
       <defs>
        <path d="M 33.015625 40.375 
Q 26.375 40.375 22.484375 35.828125 
Q 18.609375 31.296875 18.609375 23.390625 
Q 18.609375 15.53125 22.484375 10.953125 
Q 26.375 6.390625 33.015625 6.390625 
Q 39.65625 6.390625 43.53125 10.953125 
Q 47.40625 15.53125 47.40625 23.390625 
Q 47.40625 31.296875 43.53125 35.828125 
Q 39.65625 40.375 33.015625 40.375 
z
M 52.59375 71.296875 
L 52.59375 62.3125 
Q 48.875 64.0625 45.09375 64.984375 
Q 41.3125 65.921875 37.59375 65.921875 
Q 27.828125 65.921875 22.671875 59.328125 
Q 17.53125 52.734375 16.796875 39.40625 
Q 19.671875 43.65625 24.015625 45.921875 
Q 28.375 48.1875 33.59375 48.1875 
Q 44.578125 48.1875 50.953125 41.515625 
Q 57.328125 34.859375 57.328125 23.390625 
Q 57.328125 12.15625 50.6875 5.359375 
Q 44.046875 -1.421875 33.015625 -1.421875 
Q 20.359375 -1.421875 13.671875 8.265625 
Q 6.984375 17.96875 6.984375 36.375 
Q 6.984375 53.65625 15.1875 63.9375 
Q 23.390625 74.21875 37.203125 74.21875 
Q 40.921875 74.21875 44.703125 73.484375 
Q 48.484375 72.75 52.59375 71.296875 
z
" id="DejaVuSans-54"/>
       </defs>
       <use xlink:href="#DejaVuSans-54"/>
      </g>
     </g>
    </g>
    <g id="xtick_3">
     <g id="line2d_3">
      <g>
       <use style="stroke:#000000;stroke-width:0.8;" x="175.287273" xlink:href="#md309fa0c51" y="307.584"/>
      </g>
     </g>
     <g id="text_3">
      <!-- 8 -->
      <g transform="translate(172.106023 322.182437)scale(0.1 -0.1)">
       <defs>
        <path d="M 31.78125 34.625 
Q 24.75 34.625 20.71875 30.859375 
Q 16.703125 27.09375 16.703125 20.515625 
Q 16.703125 13.921875 20.71875 10.15625 
Q 24.75 6.390625 31.78125 6.390625 
Q 38.8125 6.390625 42.859375 10.171875 
Q 46.921875 13.96875 46.921875 20.515625 
Q 46.921875 27.09375 42.890625 30.859375 
Q 38.875 34.625 31.78125 34.625 
z
M 21.921875 38.8125 
Q 15.578125 40.375 12.03125 44.71875 
Q 8.5 49.078125 8.5 55.328125 
Q 8.5 64.0625 14.71875 69.140625 
Q 20.953125 74.21875 31.78125 74.21875 
Q 42.671875 74.21875 48.875 69.140625 
Q 55.078125 64.0625 55.078125 55.328125 
Q 55.078125 49.078125 51.53125 44.71875 
Q 48 40.375 41.703125 38.8125 
Q 48.828125 37.15625 52.796875 32.3125 
Q 56.78125 27.484375 56.78125 20.515625 
Q 56.78125 9.90625 50.3125 4.234375 
Q 43.84375 -1.421875 31.78125 -1.421875 
Q 19.734375 -1.421875 13.25 4.234375 
Q 6.78125 9.90625 6.78125 20.515625 
Q 6.78125 27.484375 10.78125 32.3125 
Q 14.796875 37.15625 21.921875 38.8125 
z
M 18.3125 54.390625 
Q 18.3125 48.734375 21.84375 45.5625 
Q 25.390625 42.390625 31.78125 42.390625 
Q 38.140625 42.390625 41.71875 45.5625 
Q 45.3125 48.734375 45.3125 54.390625 
Q 45.3125 60.0625 41.71875 63.234375 
Q 38.140625 66.40625 31.78125 66.40625 
Q 25.390625 66.40625 21.84375 63.234375 
Q 18.3125 60.0625 18.3125 54.390625 
z
" id="DejaVuSans-56"/>
       </defs>
       <use xlink:href="#DejaVuSans-56"/>
      </g>
     </g>
    </g>
    <g id="xtick_4">
     <g id="line2d_4">
      <g>
       <use style="stroke:#000000;stroke-width:0.8;" x="215.869091" xlink:href="#md309fa0c51" y="307.584"/>
      </g>
     </g>
     <g id="text_4">
      <!-- 10 -->
      <g transform="translate(209.506591 322.182437)scale(0.1 -0.1)">
       <defs>
        <path d="M 12.40625 8.296875 
L 28.515625 8.296875 
L 28.515625 63.921875 
L 10.984375 60.40625 
L 10.984375 69.390625 
L 28.421875 72.90625 
L 38.28125 72.90625 
L 38.28125 8.296875 
L 54.390625 8.296875 
L 54.390625 0 
L 12.40625 0 
z
" id="DejaVuSans-49"/>
        <path d="M 31.78125 66.40625 
Q 24.171875 66.40625 20.328125 58.90625 
Q 16.5 51.421875 16.5 36.375 
Q 16.5 21.390625 20.328125 13.890625 
Q 24.171875 6.390625 31.78125 6.390625 
Q 39.453125 6.390625 43.28125 13.890625 
Q 47.125 21.390625 47.125 36.375 
Q 47.125 51.421875 43.28125 58.90625 
Q 39.453125 66.40625 31.78125 66.40625 
z
M 31.78125 74.21875 
Q 44.046875 74.21875 50.515625 64.515625 
Q 56.984375 54.828125 56.984375 36.375 
Q 56.984375 17.96875 50.515625 8.265625 
Q 44.046875 -1.421875 31.78125 -1.421875 
Q 19.53125 -1.421875 13.0625 8.265625 
Q 6.59375 17.96875 6.59375 36.375 
Q 6.59375 54.828125 13.0625 64.515625 
Q 19.53125 74.21875 31.78125 74.21875 
z
" id="DejaVuSans-48"/>
       </defs>
       <use xlink:href="#DejaVuSans-49"/>
       <use x="63.623047" xlink:href="#DejaVuSans-48"/>
      </g>
     </g>
    </g>
    <g id="xtick_5">
     <g id="line2d_5">
      <g>
       <use style="stroke:#000000;stroke-width:0.8;" x="256.450909" xlink:href="#md309fa0c51" y="307.584"/>
      </g>
     </g>
     <g id="text_5">
      <!-- 12 -->
      <g transform="translate(250.088409 322.182437)scale(0.1 -0.1)">
       <defs>
        <path d="M 19.1875 8.296875 
L 53.609375 8.296875 
L 53.609375 0 
L 7.328125 0 
L 7.328125 8.296875 
Q 12.9375 14.109375 22.625 23.890625 
Q 32.328125 33.6875 34.8125 36.53125 
Q 39.546875 41.84375 41.421875 45.53125 
Q 43.3125 49.21875 43.3125 52.78125 
Q 43.3125 58.59375 39.234375 62.25 
Q 35.15625 65.921875 28.609375 65.921875 
Q 23.96875 65.921875 18.8125 64.3125 
Q 13.671875 62.703125 7.8125 59.421875 
L 7.8125 69.390625 
Q 13.765625 71.78125 18.9375 73 
Q 24.125 74.21875 28.421875 74.21875 
Q 39.75 74.21875 46.484375 68.546875 
Q 53.21875 62.890625 53.21875 53.421875 
Q 53.21875 48.921875 51.53125 44.890625 
Q 49.859375 40.875 45.40625 35.40625 
Q 44.1875 33.984375 37.640625 27.21875 
Q 31.109375 20.453125 19.1875 8.296875 
z
" id="DejaVuSans-50"/>
       </defs>
       <use xlink:href="#DejaVuSans-49"/>
       <use x="63.623047" xlink:href="#DejaVuSans-50"/>
      </g>
     </g>
    </g>
    <g id="xtick_6">
     <g id="line2d_6">
      <g>
       <use style="stroke:#000000;stroke-width:0.8;" x="297.032727" xlink:href="#md309fa0c51" y="307.584"/>
      </g>
     </g>
     <g id="text_6">
      <!-- 14 -->
      <g transform="translate(290.670227 322.182437)scale(0.1 -0.1)">
       <use xlink:href="#DejaVuSans-49"/>
       <use x="63.623047" xlink:href="#DejaVuSans-52"/>
      </g>
     </g>
    </g>
    <g id="xtick_7">
     <g id="line2d_7">
      <g>
       <use style="stroke:#000000;stroke-width:0.8;" x="337.614545" xlink:href="#md309fa0c51" y="307.584"/>
      </g>
     </g>
     <g id="text_7">
      <!-- 16 -->
      <g transform="translate(331.252045 322.182437)scale(0.1 -0.1)">
       <use xlink:href="#DejaVuSans-49"/>
       <use x="63.623047" xlink:href="#DejaVuSans-54"/>
      </g>
     </g>
    </g>
    <g id="xtick_8">
     <g id="line2d_8">
      <g>
       <use style="stroke:#000000;stroke-width:0.8;" x="378.196364" xlink:href="#md309fa0c51" y="307.584"/>
      </g>
     </g>
     <g id="text_8">
      <!-- 18 -->
      <g transform="translate(371.833864 322.182437)scale(0.1 -0.1)">
       <use xlink:href="#DejaVuSans-49"/>
       <use x="63.623047" xlink:href="#DejaVuSans-56"/>
      </g>
     </g>
    </g>
    <g id="text_9">
     <!-- Longeurs de phrases considérées -->
     <g transform="translate(152.464687 336.260562)scale(0.1 -0.1)">
      <defs>
       <path d="M 9.8125 72.90625 
L 19.671875 72.90625 
L 19.671875 8.296875 
L 55.171875 8.296875 
L 55.171875 0 
L 9.8125 0 
z
" id="DejaVuSans-76"/>
       <path d="M 30.609375 48.390625 
Q 23.390625 48.390625 19.1875 42.75 
Q 14.984375 37.109375 14.984375 27.296875 
Q 14.984375 17.484375 19.15625 11.84375 
Q 23.34375 6.203125 30.609375 6.203125 
Q 37.796875 6.203125 41.984375 11.859375 
Q 46.1875 17.53125 46.1875 27.296875 
Q 46.1875 37.015625 41.984375 42.703125 
Q 37.796875 48.390625 30.609375 48.390625 
z
M 30.609375 56 
Q 42.328125 56 49.015625 48.375 
Q 55.71875 40.765625 55.71875 27.296875 
Q 55.71875 13.875 49.015625 6.21875 
Q 42.328125 -1.421875 30.609375 -1.421875 
Q 18.84375 -1.421875 12.171875 6.21875 
Q 5.515625 13.875 5.515625 27.296875 
Q 5.515625 40.765625 12.171875 48.375 
Q 18.84375 56 30.609375 56 
z
" id="DejaVuSans-111"/>
       <path d="M 54.890625 33.015625 
L 54.890625 0 
L 45.90625 0 
L 45.90625 32.71875 
Q 45.90625 40.484375 42.875 44.328125 
Q 39.84375 48.1875 33.796875 48.1875 
Q 26.515625 48.1875 22.3125 43.546875 
Q 18.109375 38.921875 18.109375 30.90625 
L 18.109375 0 
L 9.078125 0 
L 9.078125 54.6875 
L 18.109375 54.6875 
L 18.109375 46.1875 
Q 21.34375 51.125 25.703125 53.5625 
Q 30.078125 56 35.796875 56 
Q 45.21875 56 50.046875 50.171875 
Q 54.890625 44.34375 54.890625 33.015625 
z
" id="DejaVuSans-110"/>
       <path d="M 45.40625 27.984375 
Q 45.40625 37.75 41.375 43.109375 
Q 37.359375 48.484375 30.078125 48.484375 
Q 22.859375 48.484375 18.828125 43.109375 
Q 14.796875 37.75 14.796875 27.984375 
Q 14.796875 18.265625 18.828125 12.890625 
Q 22.859375 7.515625 30.078125 7.515625 
Q 37.359375 7.515625 41.375 12.890625 
Q 45.40625 18.265625 45.40625 27.984375 
z
M 54.390625 6.78125 
Q 54.390625 -7.171875 48.1875 -13.984375 
Q 42 -20.796875 29.203125 -20.796875 
Q 24.46875 -20.796875 20.265625 -20.09375 
Q 16.0625 -19.390625 12.109375 -17.921875 
L 12.109375 -9.1875 
Q 16.0625 -11.328125 19.921875 -12.34375 
Q 23.78125 -13.375 27.78125 -13.375 
Q 36.625 -13.375 41.015625 -8.765625 
Q 45.40625 -4.15625 45.40625 5.171875 
L 45.40625 9.625 
Q 42.625 4.78125 38.28125 2.390625 
Q 33.9375 0 27.875 0 
Q 17.828125 0 11.671875 7.65625 
Q 5.515625 15.328125 5.515625 27.984375 
Q 5.515625 40.671875 11.671875 48.328125 
Q 17.828125 56 27.875 56 
Q 33.9375 56 38.28125 53.609375 
Q 42.625 51.21875 45.40625 46.390625 
L 45.40625 54.6875 
L 54.390625 54.6875 
z
" id="DejaVuSans-103"/>
       <path d="M 56.203125 29.59375 
L 56.203125 25.203125 
L 14.890625 25.203125 
Q 15.484375 15.921875 20.484375 11.0625 
Q 25.484375 6.203125 34.421875 6.203125 
Q 39.59375 6.203125 44.453125 7.46875 
Q 49.3125 8.734375 54.109375 11.28125 
L 54.109375 2.78125 
Q 49.265625 0.734375 44.1875 -0.34375 
Q 39.109375 -1.421875 33.890625 -1.421875 
Q 20.796875 -1.421875 13.15625 6.1875 
Q 5.515625 13.8125 5.515625 26.8125 
Q 5.515625 40.234375 12.765625 48.109375 
Q 20.015625 56 32.328125 56 
Q 43.359375 56 49.78125 48.890625 
Q 56.203125 41.796875 56.203125 29.59375 
z
M 47.21875 32.234375 
Q 47.125 39.59375 43.09375 43.984375 
Q 39.0625 48.390625 32.421875 48.390625 
Q 24.90625 48.390625 20.390625 44.140625 
Q 15.875 39.890625 15.1875 32.171875 
z
" id="DejaVuSans-101"/>
       <path d="M 8.5 21.578125 
L 8.5 54.6875 
L 17.484375 54.6875 
L 17.484375 21.921875 
Q 17.484375 14.15625 20.5 10.265625 
Q 23.53125 6.390625 29.59375 6.390625 
Q 36.859375 6.390625 41.078125 11.03125 
Q 45.3125 15.671875 45.3125 23.6875 
L 45.3125 54.6875 
L 54.296875 54.6875 
L 54.296875 0 
L 45.3125 0 
L 45.3125 8.40625 
Q 42.046875 3.421875 37.71875 1 
Q 33.40625 -1.421875 27.6875 -1.421875 
Q 18.265625 -1.421875 13.375 4.4375 
Q 8.5 10.296875 8.5 21.578125 
z
M 31.109375 56 
z
" id="DejaVuSans-117"/>
       <path d="M 41.109375 46.296875 
Q 39.59375 47.171875 37.8125 47.578125 
Q 36.03125 48 33.890625 48 
Q 26.265625 48 22.1875 43.046875 
Q 18.109375 38.09375 18.109375 28.8125 
L 18.109375 0 
L 9.078125 0 
L 9.078125 54.6875 
L 18.109375 54.6875 
L 18.109375 46.1875 
Q 20.953125 51.171875 25.484375 53.578125 
Q 30.03125 56 36.53125 56 
Q 37.453125 56 38.578125 55.875 
Q 39.703125 55.765625 41.0625 55.515625 
z
" id="DejaVuSans-114"/>
       <path d="M 44.28125 53.078125 
L 44.28125 44.578125 
Q 40.484375 46.53125 36.375 47.5 
Q 32.28125 48.484375 27.875 48.484375 
Q 21.1875 48.484375 17.84375 46.4375 
Q 14.5 44.390625 14.5 40.28125 
Q 14.5 37.15625 16.890625 35.375 
Q 19.28125 33.59375 26.515625 31.984375 
L 29.59375 31.296875 
Q 39.15625 29.25 43.1875 25.515625 
Q 47.21875 21.78125 47.21875 15.09375 
Q 47.21875 7.46875 41.1875 3.015625 
Q 35.15625 -1.421875 24.609375 -1.421875 
Q 20.21875 -1.421875 15.453125 -0.5625 
Q 10.6875 0.296875 5.421875 2 
L 5.421875 11.28125 
Q 10.40625 8.6875 15.234375 7.390625 
Q 20.0625 6.109375 24.8125 6.109375 
Q 31.15625 6.109375 34.5625 8.28125 
Q 37.984375 10.453125 37.984375 14.40625 
Q 37.984375 18.0625 35.515625 20.015625 
Q 33.0625 21.96875 24.703125 23.78125 
L 21.578125 24.515625 
Q 13.234375 26.265625 9.515625 29.90625 
Q 5.8125 33.546875 5.8125 39.890625 
Q 5.8125 47.609375 11.28125 51.796875 
Q 16.75 56 26.8125 56 
Q 31.78125 56 36.171875 55.265625 
Q 40.578125 54.546875 44.28125 53.078125 
z
" id="DejaVuSans-115"/>
       <path id="DejaVuSans-32"/>
       <path d="M 45.40625 46.390625 
L 45.40625 75.984375 
L 54.390625 75.984375 
L 54.390625 0 
L 45.40625 0 
L 45.40625 8.203125 
Q 42.578125 3.328125 38.25 0.953125 
Q 33.9375 -1.421875 27.875 -1.421875 
Q 17.96875 -1.421875 11.734375 6.484375 
Q 5.515625 14.40625 5.515625 27.296875 
Q 5.515625 40.1875 11.734375 48.09375 
Q 17.96875 56 27.875 56 
Q 33.9375 56 38.25 53.625 
Q 42.578125 51.265625 45.40625 46.390625 
z
M 14.796875 27.296875 
Q 14.796875 17.390625 18.875 11.75 
Q 22.953125 6.109375 30.078125 6.109375 
Q 37.203125 6.109375 41.296875 11.75 
Q 45.40625 17.390625 45.40625 27.296875 
Q 45.40625 37.203125 41.296875 42.84375 
Q 37.203125 48.484375 30.078125 48.484375 
Q 22.953125 48.484375 18.875 42.84375 
Q 14.796875 37.203125 14.796875 27.296875 
z
" id="DejaVuSans-100"/>
       <path d="M 18.109375 8.203125 
L 18.109375 -20.796875 
L 9.078125 -20.796875 
L 9.078125 54.6875 
L 18.109375 54.6875 
L 18.109375 46.390625 
Q 20.953125 51.265625 25.265625 53.625 
Q 29.59375 56 35.59375 56 
Q 45.5625 56 51.78125 48.09375 
Q 58.015625 40.1875 58.015625 27.296875 
Q 58.015625 14.40625 51.78125 6.484375 
Q 45.5625 -1.421875 35.59375 -1.421875 
Q 29.59375 -1.421875 25.265625 0.953125 
Q 20.953125 3.328125 18.109375 8.203125 
z
M 48.6875 27.296875 
Q 48.6875 37.203125 44.609375 42.84375 
Q 40.53125 48.484375 33.40625 48.484375 
Q 26.265625 48.484375 22.1875 42.84375 
Q 18.109375 37.203125 18.109375 27.296875 
Q 18.109375 17.390625 22.1875 11.75 
Q 26.265625 6.109375 33.40625 6.109375 
Q 40.53125 6.109375 44.609375 11.75 
Q 48.6875 17.390625 48.6875 27.296875 
z
" id="DejaVuSans-112"/>
       <path d="M 54.890625 33.015625 
L 54.890625 0 
L 45.90625 0 
L 45.90625 32.71875 
Q 45.90625 40.484375 42.875 44.328125 
Q 39.84375 48.1875 33.796875 48.1875 
Q 26.515625 48.1875 22.3125 43.546875 
Q 18.109375 38.921875 18.109375 30.90625 
L 18.109375 0 
L 9.078125 0 
L 9.078125 75.984375 
L 18.109375 75.984375 
L 18.109375 46.1875 
Q 21.34375 51.125 25.703125 53.5625 
Q 30.078125 56 35.796875 56 
Q 45.21875 56 50.046875 50.171875 
Q 54.890625 44.34375 54.890625 33.015625 
z
" id="DejaVuSans-104"/>
       <path d="M 34.28125 27.484375 
Q 23.390625 27.484375 19.1875 25 
Q 14.984375 22.515625 14.984375 16.5 
Q 14.984375 11.71875 18.140625 8.90625 
Q 21.296875 6.109375 26.703125 6.109375 
Q 34.1875 6.109375 38.703125 11.40625 
Q 43.21875 16.703125 43.21875 25.484375 
L 43.21875 27.484375 
z
M 52.203125 31.203125 
L 52.203125 0 
L 43.21875 0 
L 43.21875 8.296875 
Q 40.140625 3.328125 35.546875 0.953125 
Q 30.953125 -1.421875 24.3125 -1.421875 
Q 15.921875 -1.421875 10.953125 3.296875 
Q 6 8.015625 6 15.921875 
Q 6 25.140625 12.171875 29.828125 
Q 18.359375 34.515625 30.609375 34.515625 
L 43.21875 34.515625 
L 43.21875 35.40625 
Q 43.21875 41.609375 39.140625 45 
Q 35.0625 48.390625 27.6875 48.390625 
Q 23 48.390625 18.546875 47.265625 
Q 14.109375 46.140625 10.015625 43.890625 
L 10.015625 52.203125 
Q 14.9375 54.109375 19.578125 55.046875 
Q 24.21875 56 28.609375 56 
Q 40.484375 56 46.34375 49.84375 
Q 52.203125 43.703125 52.203125 31.203125 
z
" id="DejaVuSans-97"/>
       <path d="M 48.78125 52.59375 
L 48.78125 44.1875 
Q 44.96875 46.296875 41.140625 47.34375 
Q 37.3125 48.390625 33.40625 48.390625 
Q 24.65625 48.390625 19.8125 42.84375 
Q 14.984375 37.3125 14.984375 27.296875 
Q 14.984375 17.28125 19.8125 11.734375 
Q 24.65625 6.203125 33.40625 6.203125 
Q 37.3125 6.203125 41.140625 7.25 
Q 44.96875 8.296875 48.78125 10.40625 
L 48.78125 2.09375 
Q 45.015625 0.34375 40.984375 -0.53125 
Q 36.96875 -1.421875 32.421875 -1.421875 
Q 20.0625 -1.421875 12.78125 6.34375 
Q 5.515625 14.109375 5.515625 27.296875 
Q 5.515625 40.671875 12.859375 48.328125 
Q 20.21875 56 33.015625 56 
Q 37.15625 56 41.109375 55.140625 
Q 45.0625 54.296875 48.78125 52.59375 
z
" id="DejaVuSans-99"/>
       <path d="M 9.421875 54.6875 
L 18.40625 54.6875 
L 18.40625 0 
L 9.421875 0 
z
M 9.421875 75.984375 
L 18.40625 75.984375 
L 18.40625 64.59375 
L 9.421875 64.59375 
z
" id="DejaVuSans-105"/>
       <path d="M 56.203125 29.59375 
L 56.203125 25.203125 
L 14.890625 25.203125 
Q 15.484375 15.921875 20.484375 11.0625 
Q 25.484375 6.203125 34.421875 6.203125 
Q 39.59375 6.203125 44.453125 7.46875 
Q 49.3125 8.734375 54.109375 11.28125 
L 54.109375 2.78125 
Q 49.265625 0.734375 44.1875 -0.34375 
Q 39.109375 -1.421875 33.890625 -1.421875 
Q 20.796875 -1.421875 13.15625 6.1875 
Q 5.515625 13.8125 5.515625 26.8125 
Q 5.515625 40.234375 12.765625 48.109375 
Q 20.015625 56 32.328125 56 
Q 43.359375 56 49.78125 48.890625 
Q 56.203125 41.796875 56.203125 29.59375 
z
M 47.21875 32.234375 
Q 47.125 39.59375 43.09375 43.984375 
Q 39.0625 48.390625 32.421875 48.390625 
Q 24.90625 48.390625 20.390625 44.140625 
Q 15.875 39.890625 15.1875 32.171875 
z
M 38.578125 79.984375 
L 48.296875 79.984375 
L 32.375 61.625 
L 24.90625 61.625 
z
" id="DejaVuSans-233"/>
      </defs>
      <use xlink:href="#DejaVuSans-76"/>
      <use x="53.962891" xlink:href="#DejaVuSans-111"/>
      <use x="115.144531" xlink:href="#DejaVuSans-110"/>
      <use x="178.523438" xlink:href="#DejaVuSans-103"/>
      <use x="242" xlink:href="#DejaVuSans-101"/>
      <use x="303.523438" xlink:href="#DejaVuSans-117"/>
      <use x="366.902344" xlink:href="#DejaVuSans-114"/>
      <use x="408.015625" xlink:href="#DejaVuSans-115"/>
      <use x="460.115234" xlink:href="#DejaVuSans-32"/>
      <use x="491.902344" xlink:href="#DejaVuSans-100"/>
      <use x="555.378906" xlink:href="#DejaVuSans-101"/>
      <use x="616.902344" xlink:href="#DejaVuSans-32"/>
      <use x="648.689453" xlink:href="#DejaVuSans-112"/>
      <use x="712.166016" xlink:href="#DejaVuSans-104"/>
      <use x="775.544922" xlink:href="#DejaVuSans-114"/>
      <use x="816.658203" xlink:href="#DejaVuSans-97"/>
      <use x="877.9375" xlink:href="#DejaVuSans-115"/>
      <use x="930.037109" xlink:href="#DejaVuSans-101"/>
      <use x="991.560547" xlink:href="#DejaVuSans-115"/>
      <use x="1043.660156" xlink:href="#DejaVuSans-32"/>
      <use x="1075.447266" xlink:href="#DejaVuSans-99"/>
      <use x="1130.427734" xlink:href="#DejaVuSans-111"/>
      <use x="1191.609375" xlink:href="#DejaVuSans-110"/>
      <use x="1254.988281" xlink:href="#DejaVuSans-115"/>
      <use x="1307.087891" xlink:href="#DejaVuSans-105"/>
      <use x="1334.871094" xlink:href="#DejaVuSans-100"/>
      <use x="1398.347656" xlink:href="#DejaVuSans-233"/>
      <use x="1459.871094" xlink:href="#DejaVuSans-114"/>
      <use x="1498.734375" xlink:href="#DejaVuSans-233"/>
      <use x="1560.257812" xlink:href="#DejaVuSans-101"/>
      <use x="1621.78125" xlink:href="#DejaVuSans-115"/>
     </g>
    </g>
   </g>
   <g id="matplotlib.axis_2">
    <g id="ytick_1">
     <g id="line2d_9">
      <defs>
       <path d="M 0 0 
L -3.5 0 
" id="m35f7122c7b" style="stroke:#000000;stroke-width:0.8;"/>
      </defs>
      <g>
       <use style="stroke:#000000;stroke-width:0.8;" x="57.6" xlink:href="#m35f7122c7b" y="296.813474"/>
      </g>
     </g>
     <g id="text_10">
      <!-- 0 -->
      <g transform="translate(44.2375 300.612693)scale(0.1 -0.1)">
       <use xlink:href="#DejaVuSans-48"/>
      </g>
     </g>
    </g>
    <g id="ytick_2">
     <g id="line2d_10">
      <g>
       <use style="stroke:#000000;stroke-width:0.8;" x="57.6" xlink:href="#m35f7122c7b" y="264.976669"/>
      </g>
     </g>
     <g id="text_11">
      <!-- 20 -->
      <g transform="translate(37.875 268.775888)scale(0.1 -0.1)">
       <use xlink:href="#DejaVuSans-50"/>
       <use x="63.623047" xlink:href="#DejaVuSans-48"/>
      </g>
     </g>
    </g>
    <g id="ytick_3">
     <g id="line2d_11">
      <g>
       <use style="stroke:#000000;stroke-width:0.8;" x="57.6" xlink:href="#m35f7122c7b" y="233.139864"/>
      </g>
     </g>
     <g id="text_12">
      <!-- 40 -->
      <g transform="translate(37.875 236.939082)scale(0.1 -0.1)">
       <use xlink:href="#DejaVuSans-52"/>
       <use x="63.623047" xlink:href="#DejaVuSans-48"/>
      </g>
     </g>
    </g>
    <g id="ytick_4">
     <g id="line2d_12">
      <g>
       <use style="stroke:#000000;stroke-width:0.8;" x="57.6" xlink:href="#m35f7122c7b" y="201.303058"/>
      </g>
     </g>
     <g id="text_13">
      <!-- 60 -->
      <g transform="translate(37.875 205.102277)scale(0.1 -0.1)">
       <use xlink:href="#DejaVuSans-54"/>
       <use x="63.623047" xlink:href="#DejaVuSans-48"/>
      </g>
     </g>
    </g>
    <g id="ytick_5">
     <g id="line2d_13">
      <g>
       <use style="stroke:#000000;stroke-width:0.8;" x="57.6" xlink:href="#m35f7122c7b" y="169.466253"/>
      </g>
     </g>
     <g id="text_14">
      <!-- 80 -->
      <g transform="translate(37.875 173.265472)scale(0.1 -0.1)">
       <use xlink:href="#DejaVuSans-56"/>
       <use x="63.623047" xlink:href="#DejaVuSans-48"/>
      </g>
     </g>
    </g>
    <g id="ytick_6">
     <g id="line2d_14">
      <g>
       <use style="stroke:#000000;stroke-width:0.8;" x="57.6" xlink:href="#m35f7122c7b" y="137.629448"/>
      </g>
     </g>
     <g id="text_15">
      <!-- 100 -->
      <g transform="translate(31.5125 141.428666)scale(0.1 -0.1)">
       <use xlink:href="#DejaVuSans-49"/>
       <use x="63.623047" xlink:href="#DejaVuSans-48"/>
       <use x="127.246094" xlink:href="#DejaVuSans-48"/>
      </g>
     </g>
    </g>
    <g id="ytick_7">
     <g id="line2d_15">
      <g>
       <use style="stroke:#000000;stroke-width:0.8;" x="57.6" xlink:href="#m35f7122c7b" y="105.792642"/>
      </g>
     </g>
     <g id="text_16">
      <!-- 120 -->
      <g transform="translate(31.5125 109.591861)scale(0.1 -0.1)">
       <use xlink:href="#DejaVuSans-49"/>
       <use x="63.623047" xlink:href="#DejaVuSans-50"/>
       <use x="127.246094" xlink:href="#DejaVuSans-48"/>
      </g>
     </g>
    </g>
    <g id="ytick_8">
     <g id="line2d_16">
      <g>
       <use style="stroke:#000000;stroke-width:0.8;" x="57.6" xlink:href="#m35f7122c7b" y="73.955837"/>
      </g>
     </g>
     <g id="text_17">
      <!-- 140 -->
      <g transform="translate(31.5125 77.755056)scale(0.1 -0.1)">
       <use xlink:href="#DejaVuSans-49"/>
       <use x="63.623047" xlink:href="#DejaVuSans-52"/>
       <use x="127.246094" xlink:href="#DejaVuSans-48"/>
      </g>
     </g>
    </g>
    <g id="ytick_9">
     <g id="line2d_17">
      <g>
       <use style="stroke:#000000;stroke-width:0.8;" x="57.6" xlink:href="#m35f7122c7b" y="42.119032"/>
      </g>
     </g>
     <g id="text_18">
      <!-- 160 -->
      <g transform="translate(31.5125 45.918251)scale(0.1 -0.1)">
       <use xlink:href="#DejaVuSans-49"/>
       <use x="63.623047" xlink:href="#DejaVuSans-54"/>
       <use x="127.246094" xlink:href="#DejaVuSans-48"/>
      </g>
     </g>
    </g>
    <g id="text_19">
     <!-- Le temps d'analyse -->
     <g transform="translate(25.432812 223.042062)rotate(-90)scale(0.1 -0.1)">
      <defs>
       <path d="M 18.3125 70.21875 
L 18.3125 54.6875 
L 36.8125 54.6875 
L 36.8125 47.703125 
L 18.3125 47.703125 
L 18.3125 18.015625 
Q 18.3125 11.328125 20.140625 9.421875 
Q 21.96875 7.515625 27.59375 7.515625 
L 36.8125 7.515625 
L 36.8125 0 
L 27.59375 0 
Q 17.1875 0 13.234375 3.875 
Q 9.28125 7.765625 9.28125 18.015625 
L 9.28125 47.703125 
L 2.6875 47.703125 
L 2.6875 54.6875 
L 9.28125 54.6875 
L 9.28125 70.21875 
z
" id="DejaVuSans-116"/>
       <path d="M 52 44.1875 
Q 55.375 50.25 60.0625 53.125 
Q 64.75 56 71.09375 56 
Q 79.640625 56 84.28125 50.015625 
Q 88.921875 44.046875 88.921875 33.015625 
L 88.921875 0 
L 79.890625 0 
L 79.890625 32.71875 
Q 79.890625 40.578125 77.09375 44.375 
Q 74.3125 48.1875 68.609375 48.1875 
Q 61.625 48.1875 57.5625 43.546875 
Q 53.515625 38.921875 53.515625 30.90625 
L 53.515625 0 
L 44.484375 0 
L 44.484375 32.71875 
Q 44.484375 40.625 41.703125 44.40625 
Q 38.921875 48.1875 33.109375 48.1875 
Q 26.21875 48.1875 22.15625 43.53125 
Q 18.109375 38.875 18.109375 30.90625 
L 18.109375 0 
L 9.078125 0 
L 9.078125 54.6875 
L 18.109375 54.6875 
L 18.109375 46.1875 
Q 21.1875 51.21875 25.484375 53.609375 
Q 29.78125 56 35.6875 56 
Q 41.65625 56 45.828125 52.96875 
Q 50 49.953125 52 44.1875 
z
" id="DejaVuSans-109"/>
       <path d="M 17.921875 72.90625 
L 17.921875 45.796875 
L 9.625 45.796875 
L 9.625 72.90625 
z
" id="DejaVuSans-39"/>
       <path d="M 9.421875 75.984375 
L 18.40625 75.984375 
L 18.40625 0 
L 9.421875 0 
z
" id="DejaVuSans-108"/>
       <path d="M 32.171875 -5.078125 
Q 28.375 -14.84375 24.75 -17.8125 
Q 21.140625 -20.796875 15.09375 -20.796875 
L 7.90625 -20.796875 
L 7.90625 -13.28125 
L 13.1875 -13.28125 
Q 16.890625 -13.28125 18.9375 -11.515625 
Q 21 -9.765625 23.484375 -3.21875 
L 25.09375 0.875 
L 2.984375 54.6875 
L 12.5 54.6875 
L 29.59375 11.921875 
L 46.6875 54.6875 
L 56.203125 54.6875 
z
" id="DejaVuSans-121"/>
      </defs>
      <use xlink:href="#DejaVuSans-76"/>
      <use x="53.962891" xlink:href="#DejaVuSans-101"/>
      <use x="115.486328" xlink:href="#DejaVuSans-32"/>
      <use x="147.273438" xlink:href="#DejaVuSans-116"/>
      <use x="186.482422" xlink:href="#DejaVuSans-101"/>
      <use x="248.005859" xlink:href="#DejaVuSans-109"/>
      <use x="345.417969" xlink:href="#DejaVuSans-112"/>
      <use x="408.894531" xlink:href="#DejaVuSans-115"/>
      <use x="460.994141" xlink:href="#DejaVuSans-32"/>
      <use x="492.78125" xlink:href="#DejaVuSans-100"/>
      <use x="556.257812" xlink:href="#DejaVuSans-39"/>
      <use x="583.748047" xlink:href="#DejaVuSans-97"/>
      <use x="645.027344" xlink:href="#DejaVuSans-110"/>
      <use x="708.40625" xlink:href="#DejaVuSans-97"/>
      <use x="769.685547" xlink:href="#DejaVuSans-108"/>
      <use x="797.46875" xlink:href="#DejaVuSans-121"/>
      <use x="856.648438" xlink:href="#DejaVuSans-115"/>
      <use x="908.748047" xlink:href="#DejaVuSans-101"/>
     </g>
    </g>
   </g>
   <g id="line2d_18">
    <path clip-path="url(#p22a7dc3944)" d="M 73.832727 294.415815 
L 94.123636 295.23457 
L 94.123636 294.775978 
L 114.414545 294.009503 
L 114.414545 293.700293 
L 114.414545 293.084251 
L 134.705455 292.205939 
L 134.705455 291.780759 
L 134.705455 290.380224 
L 154.996364 287.936432 
L 154.996364 287.591426 
L 175.287273 287.446296 
L 175.287273 286.728244 
L 175.287273 286.647659 
L 175.287273 285.232112 
L 175.287273 284.528516 
L 175.287273 284.502943 
L 175.287273 282.301336 
L 175.287273 282.256005 
L 175.287273 281.761412 
L 195.578182 287.397858 
L 195.578182 286.020848 
L 195.578182 284.170694 
L 195.578182 281.187822 
L 195.578182 280.891928 
L 195.578182 280.526162 
L 195.578182 280.465541 
L 195.578182 280.057452 
L 215.869091 282.618837 
L 215.869091 279.860153 
L 215.869091 277.802059 
L 215.869091 271.265651 
L 236.16 276.016571 
L 236.16 271.887092 
L 236.16 263.348325 
L 236.16 259.333305 
L 236.16 257.614682 
L 236.16 249.200243 
L 256.450909 249.740047 
L 276.741818 246.267615 
L 297.032727 244.16453 
L 297.032727 234.942248 
L 297.032727 232.085003 
L 317.323636 225.639583 
L 337.614545 208.877318 
L 337.614545 202.866724 
L 337.614545 200.65657 
L 357.905455 185.172892 
L 357.905455 150.342791 
L 398.487273 141.972915 
" style="fill:none;stroke:#1f77b4;stroke-linecap:square;stroke-width:1.5;"/>
   </g>
   <g id="line2d_19">
    <path clip-path="url(#p22a7dc3944)" d="M 73.832727 295.488 
L 94.123636 293.1406 
L 94.123636 292.359269 
L 114.414545 294.279374 
L 114.414545 293.303627 
L 114.414545 292.929308 
L 134.705455 291.868594 
L 134.705455 291.162569 
L 134.705455 289.878234 
L 154.996364 287.379941 
L 154.996364 285.914485 
L 175.287273 288.443431 
L 175.287273 285.517429 
L 175.287273 285.111266 
L 175.287273 283.949856 
L 175.287273 282.838378 
L 175.287273 281.603593 
L 175.287273 281.510229 
L 175.287273 280.130303 
L 175.287273 273.943228 
L 195.578182 286.877004 
L 195.578182 283.597614 
L 195.578182 283.129302 
L 195.578182 279.990672 
L 195.578182 279.590584 
L 195.578182 276.89223 
L 195.578182 274.690569 
L 195.578182 273.548391 
L 215.869091 283.543611 
L 215.869091 283.357361 
L 215.869091 279.571912 
L 215.869091 277.003747 
L 236.16 278.450879 
L 236.16 269.54077 
L 236.16 263.572789 
L 236.16 260.207072 
L 236.16 259.122475 
L 236.16 259.019394 
L 256.450909 247.963915 
L 276.741818 236.020047 
L 297.032727 244.553875 
L 297.032727 235.537623 
L 297.032727 216.629574 
L 317.323636 209.341335 
L 337.614545 201.447669 
L 337.614545 194.086868 
L 337.614545 187.097324 
L 357.905455 196.12128 
L 357.905455 173.444172 
L 398.487273 143.264279 
" style="fill:none;stroke:#ff7f0e;stroke-linecap:square;stroke-width:1.5;"/>
   </g>
   <g id="line2d_20">
    <path clip-path="url(#p22a7dc3944)" d="M 73.832727 295.484184 
L 94.123636 293.929023 
L 94.123636 292.353272 
L 114.414545 294.088952 
L 114.414545 293.416299 
L 114.414545 290.921721 
L 134.705455 291.087533 
L 134.705455 290.427521 
L 134.705455 290.071621 
L 154.996364 286.404744 
L 154.996364 284.216886 
L 175.287273 289.332179 
L 175.287273 285.727855 
L 175.287273 285.43486 
L 175.287273 283.688951 
L 175.287273 283.383305 
L 175.287273 282.54864 
L 175.287273 282.102613 
L 175.287273 280.467052 
L 175.287273 272.888733 
L 195.578182 282.999448 
L 195.578182 282.043879 
L 195.578182 281.237318 
L 195.578182 278.538654 
L 195.578182 278.457927 
L 195.578182 274.26386 
L 195.578182 273.128737 
L 195.578182 272.850598 
L 215.869091 284.575558 
L 215.869091 281.814331 
L 215.869091 275.813597 
L 215.869091 268.923107 
L 236.16 272.438135 
L 236.16 267.596324 
L 236.16 260.56242 
L 236.16 259.670522 
L 236.16 249.160465 
L 236.16 247.607541 
L 256.450909 248.624583 
L 276.741818 237.027263 
L 297.032727 241.085069 
L 297.032727 239.355694 
L 297.032727 214.131567 
L 317.323636 204.995704 
L 337.614545 203.643309 
L 337.614545 198.887098 
L 337.614545 184.427534 
L 357.905455 184.145944 
L 357.905455 168.58035 
L 398.487273 111.587541 
" style="fill:none;stroke:#2ca02c;stroke-linecap:square;stroke-width:1.5;"/>
   </g>
   <g id="line2d_21">
    <path clip-path="url(#p22a7dc3944)" d="M 73.832727 295.411133 
L 94.123636 294.887682 
L 94.123636 293.340376 
L 114.414545 292.637532 
L 114.414545 292.600734 
L 114.414545 292.162914 
L 134.705455 290.903995 
L 134.705455 290.687194 
L 134.705455 290.120715 
L 154.996364 285.552747 
L 154.996364 282.87676 
L 175.287273 286.022378 
L 175.287273 284.617788 
L 175.287273 283.736204 
L 175.287273 283.339301 
L 175.287273 280.663846 
L 175.287273 280.304855 
L 175.287273 279.235332 
L 175.287273 278.909738 
L 175.287273 270.5474 
L 195.578182 283.043822 
L 195.578182 282.477952 
L 195.578182 280.782544 
L 195.578182 278.116569 
L 195.578182 274.329008 
L 195.578182 272.585074 
L 195.578182 271.105768 
L 195.578182 268.760025 
L 215.869091 283.480905 
L 215.869091 281.870582 
L 215.869091 273.309713 
L 215.869091 268.476877 
L 236.16 269.97076 
L 236.16 263.485861 
L 236.16 262.732905 
L 236.16 259.832552 
L 236.16 249.013276 
L 236.16 241.440573 
L 256.450909 242.259018 
L 276.741818 231.978323 
L 297.032727 241.912793 
L 297.032727 231.3463 
L 297.032727 207.61245 
L 317.323636 181.3887 
L 337.614545 202.011579 
L 337.614545 177.464017 
L 337.614545 167.428006 
L 357.905455 185.700854 
L 357.905455 169.607502 
L 398.487273 102.738561 
" style="fill:none;stroke:#d62728;stroke-linecap:square;stroke-width:1.5;"/>
   </g>
   <g id="line2d_22">
    <path clip-path="url(#p22a7dc3944)" d="M 73.832727 295.37036 
L 94.123636 294.754443 
L 94.123636 292.870428 
L 114.414545 293.755767 
L 114.414545 292.800699 
L 114.414545 291.534434 
L 134.705455 290.025958 
L 134.705455 289.956596 
L 134.705455 289.699125 
L 154.996364 282.939439 
L 154.996364 280.102912 
L 175.287273 284.427036 
L 175.287273 282.880581 
L 175.287273 282.447808 
L 175.287273 282.318551 
L 175.287273 278.787172 
L 175.287273 278.343795 
L 175.287273 276.99241 
L 175.287273 275.969833 
L 175.287273 271.326318 
L 195.578182 281.413129 
L 195.578182 279.818421 
L 195.578182 276.882085 
L 195.578182 276.319685 
L 195.578182 273.151021 
L 195.578182 271.46574 
L 195.578182 270.768787 
L 195.578182 268.710803 
L 215.869091 281.903985 
L 215.869091 278.068723 
L 215.869091 272.867647 
L 215.869091 264.021451 
L 236.16 267.870229 
L 236.16 261.366298 
L 236.16 257.72559 
L 236.16 252.5095 
L 236.16 246.813357 
L 236.16 234.372483 
L 256.450909 242.136955 
L 276.741818 235.944523 
L 297.032727 225.775236 
L 297.032727 223.041491 
L 297.032727 207.660128 
L 317.323636 182.47867 
L 337.614545 162.523988 
L 337.614545 160.757696 
L 337.614545 140.615143 
L 357.905455 153.885994 
L 357.905455 123.932775 
L 398.487273 63.794291 
" style="fill:none;stroke:#9467bd;stroke-linecap:square;stroke-width:1.5;"/>
   </g>
   <g id="line2d_23">
    <path clip-path="url(#p22a7dc3944)" d="M 73.832727 294.324583 
L 94.123636 294.794118 
L 94.123636 293.542862 
L 114.414545 293.135764 
L 114.414545 292.636676 
L 114.414545 291.599506 
L 134.705455 290.56456 
L 134.705455 289.529767 
L 134.705455 288.489879 
L 154.996364 282.508099 
L 154.996364 281.344341 
L 175.287273 284.968408 
L 175.287273 283.431186 
L 175.287273 281.350051 
L 175.287273 280.390383 
L 175.287273 279.392318 
L 175.287273 279.17479 
L 175.287273 278.740675 
L 175.287273 275.309904 
L 175.287273 272.252197 
L 195.578182 282.018936 
L 195.578182 281.400563 
L 195.578182 276.814754 
L 195.578182 275.129884 
L 195.578182 274.600796 
L 195.578182 274.532616 
L 195.578182 270.259393 
L 195.578182 267.938927 
L 215.869091 283.341972 
L 215.869091 278.784204 
L 215.869091 273.627404 
L 215.869091 264.552805 
L 236.16 266.953937 
L 236.16 261.0731 
L 236.16 257.828674 
L 236.16 253.052 
L 236.16 247.329422 
L 236.16 238.827909 
L 256.450909 243.759634 
L 276.741818 233.403862 
L 297.032727 230.431128 
L 297.032727 225.430715 
L 297.032727 210.287802 
L 317.323636 175.638426 
L 337.614545 169.487556 
L 337.614545 158.780841 
L 337.614545 146.757417 
L 357.905455 166.810783 
L 357.905455 134.685225 
L 398.487273 53.568 
" style="fill:none;stroke:#8c564b;stroke-linecap:square;stroke-width:1.5;"/>
   </g>
   <g id="line2d_24">
    <path clip-path="url(#p22a7dc3944)" d="M 73.832727 294.03235 
L 94.123636 293.513855 
L 94.123636 292.666753 
L 114.414545 293.245019 
L 114.414545 292.807009 
L 114.414545 289.780239 
L 134.705455 290.148571 
L 134.705455 288.531911 
L 134.705455 285.747441 
L 154.996364 283.534883 
L 154.996364 282.876679 
L 175.287273 285.370426 
L 175.287273 282.363665 
L 175.287273 281.715931 
L 175.287273 278.743867 
L 175.287273 278.103737 
L 175.287273 276.090448 
L 175.287273 275.853834 
L 175.287273 272.551519 
L 175.287273 271.434994 
L 195.578182 278.318099 
L 195.578182 275.272637 
L 195.578182 274.886534 
L 195.578182 274.526876 
L 195.578182 273.821929 
L 195.578182 273.379086 
L 195.578182 272.229486 
L 195.578182 272.061878 
L 215.869091 281.434049 
L 215.869091 276.965546 
L 215.869091 272.766736 
L 215.869091 264.449051 
L 236.16 266.381812 
L 236.16 260.893007 
L 236.16 255.040992 
L 236.16 254.469247 
L 236.16 241.654269 
L 236.16 237.863903 
L 256.450909 245.682115 
L 276.741818 227.202004 
L 297.032727 223.441037 
L 297.032727 216.426252 
L 297.032727 212.764668 
L 317.323636 181.146018 
L 337.614545 167.123387 
L 337.614545 143.578831 
L 337.614545 134.811604 
L 357.905455 161.440696 
L 357.905455 107.332511 
L 398.487273 59.864601 
" style="fill:none;stroke:#e377c2;stroke-linecap:square;stroke-width:1.5;"/>
   </g>
   <g id="patch_3">
    <path d="M 57.6 307.584 
L 57.6 41.472 
" style="fill:none;stroke:#000000;stroke-linecap:square;stroke-linejoin:miter;stroke-width:0.8;"/>
   </g>
   <g id="patch_4">
    <path d="M 414.72 307.584 
L 414.72 41.472 
" style="fill:none;stroke:#000000;stroke-linecap:square;stroke-linejoin:miter;stroke-width:0.8;"/>
   </g>
   <g id="patch_5">
    <path d="M 57.6 307.584 
L 414.72 307.584 
" style="fill:none;stroke:#000000;stroke-linecap:square;stroke-linejoin:miter;stroke-width:0.8;"/>
   </g>
   <g id="patch_6">
    <path d="M 57.6 41.472 
L 414.72 41.472 
" style="fill:none;stroke:#000000;stroke-linecap:square;stroke-linejoin:miter;stroke-width:0.8;"/>
   </g>
   <g id="text_20">
    <!-- Le temps d'analyse en -->
    <g transform="translate(168.541875 21.458625)scale(0.12 -0.12)">
     <use xlink:href="#DejaVuSans-76"/>
     <use x="53.962891" xlink:href="#DejaVuSans-101"/>
     <use x="115.486328" xlink:href="#DejaVuSans-32"/>
     <use x="147.273438" xlink:href="#DejaVuSans-116"/>
     <use x="186.482422" xlink:href="#DejaVuSans-101"/>
     <use x="248.005859" xlink:href="#DejaVuSans-109"/>
     <use x="345.417969" xlink:href="#DejaVuSans-112"/>
     <use x="408.894531" xlink:href="#DejaVuSans-115"/>
     <use x="460.994141" xlink:href="#DejaVuSans-32"/>
     <use x="492.78125" xlink:href="#DejaVuSans-100"/>
     <use x="556.257812" xlink:href="#DejaVuSans-39"/>
     <use x="583.748047" xlink:href="#DejaVuSans-97"/>
     <use x="645.027344" xlink:href="#DejaVuSans-110"/>
     <use x="708.40625" xlink:href="#DejaVuSans-97"/>
     <use x="769.685547" xlink:href="#DejaVuSans-108"/>
     <use x="797.46875" xlink:href="#DejaVuSans-121"/>
     <use x="856.648438" xlink:href="#DejaVuSans-115"/>
     <use x="908.748047" xlink:href="#DejaVuSans-101"/>
     <use x="970.271484" xlink:href="#DejaVuSans-32"/>
     <use x="1002.058594" xlink:href="#DejaVuSans-101"/>
     <use x="1063.582031" xlink:href="#DejaVuSans-110"/>
    </g>
    <!-- fonction des longeurs des phrases considérées -->
    <g transform="translate(95.353125 35.472)scale(0.12 -0.12)">
     <defs>
      <path d="M 37.109375 75.984375 
L 37.109375 68.5 
L 28.515625 68.5 
Q 23.6875 68.5 21.796875 66.546875 
Q 19.921875 64.59375 19.921875 59.515625 
L 19.921875 54.6875 
L 34.71875 54.6875 
L 34.71875 47.703125 
L 19.921875 47.703125 
L 19.921875 0 
L 10.890625 0 
L 10.890625 47.703125 
L 2.296875 47.703125 
L 2.296875 54.6875 
L 10.890625 54.6875 
L 10.890625 58.5 
Q 10.890625 67.625 15.140625 71.796875 
Q 19.390625 75.984375 28.609375 75.984375 
z
" id="DejaVuSans-102"/>
     </defs>
     <use xlink:href="#DejaVuSans-102"/>
     <use x="35.205078" xlink:href="#DejaVuSans-111"/>
     <use x="96.386719" xlink:href="#DejaVuSans-110"/>
     <use x="159.765625" xlink:href="#DejaVuSans-99"/>
     <use x="214.746094" xlink:href="#DejaVuSans-116"/>
     <use x="253.955078" xlink:href="#DejaVuSans-105"/>
     <use x="281.738281" xlink:href="#DejaVuSans-111"/>
     <use x="342.919922" xlink:href="#DejaVuSans-110"/>
     <use x="406.298828" xlink:href="#DejaVuSans-32"/>
     <use x="438.085938" xlink:href="#DejaVuSans-100"/>
     <use x="501.5625" xlink:href="#DejaVuSans-101"/>
     <use x="563.085938" xlink:href="#DejaVuSans-115"/>
     <use x="615.185547" xlink:href="#DejaVuSans-32"/>
     <use x="646.972656" xlink:href="#DejaVuSans-108"/>
     <use x="674.755859" xlink:href="#DejaVuSans-111"/>
     <use x="735.9375" xlink:href="#DejaVuSans-110"/>
     <use x="799.316406" xlink:href="#DejaVuSans-103"/>
     <use x="862.792969" xlink:href="#DejaVuSans-101"/>
     <use x="924.316406" xlink:href="#DejaVuSans-117"/>
     <use x="987.695312" xlink:href="#DejaVuSans-114"/>
     <use x="1028.808594" xlink:href="#DejaVuSans-115"/>
     <use x="1080.908203" xlink:href="#DejaVuSans-32"/>
     <use x="1112.695312" xlink:href="#DejaVuSans-100"/>
     <use x="1176.171875" xlink:href="#DejaVuSans-101"/>
     <use x="1237.695312" xlink:href="#DejaVuSans-115"/>
     <use x="1289.794922" xlink:href="#DejaVuSans-32"/>
     <use x="1321.582031" xlink:href="#DejaVuSans-112"/>
     <use x="1385.058594" xlink:href="#DejaVuSans-104"/>
     <use x="1448.4375" xlink:href="#DejaVuSans-114"/>
     <use x="1489.550781" xlink:href="#DejaVuSans-97"/>
     <use x="1550.830078" xlink:href="#DejaVuSans-115"/>
     <use x="1602.929688" xlink:href="#DejaVuSans-101"/>
     <use x="1664.453125" xlink:href="#DejaVuSans-115"/>
     <use x="1716.552734" xlink:href="#DejaVuSans-32"/>
     <use x="1748.339844" xlink:href="#DejaVuSans-99"/>
     <use x="1803.320312" xlink:href="#DejaVuSans-111"/>
     <use x="1864.501953" xlink:href="#DejaVuSans-110"/>
     <use x="1927.880859" xlink:href="#DejaVuSans-115"/>
     <use x="1979.980469" xlink:href="#DejaVuSans-105"/>
     <use x="2007.763672" xlink:href="#DejaVuSans-100"/>
     <use x="2071.240234" xlink:href="#DejaVuSans-233"/>
     <use x="2132.763672" xlink:href="#DejaVuSans-114"/>
     <use x="2171.626953" xlink:href="#DejaVuSans-233"/>
     <use x="2233.150391" xlink:href="#DejaVuSans-101"/>
     <use x="2294.673828" xlink:href="#DejaVuSans-115"/>
    </g>
   </g>
   <g id="legend_1">
    <g id="patch_7">
     <path d="M 64.6 152.218875 
L 219.895313 152.218875 
Q 221.895313 152.218875 221.895313 150.218875 
L 221.895313 48.472 
Q 221.895313 46.472 219.895313 46.472 
L 64.6 46.472 
Q 62.6 46.472 62.6 48.472 
L 62.6 150.218875 
Q 62.6 152.218875 64.6 152.218875 
z
" style="fill:#ffffff;opacity:0.8;stroke:#cccccc;stroke-linejoin:miter;"/>
    </g>
    <g id="line2d_25">
     <path d="M 66.6 54.570438 
L 86.6 54.570438 
" style="fill:none;stroke:#1f77b4;stroke-linecap:square;stroke-width:1.5;"/>
    </g>
    <g id="line2d_26"/>
    <g id="text_21">
     <!-- pas de filtrage -->
     <g transform="translate(94.6 58.070438)scale(0.1 -0.1)">
      <use xlink:href="#DejaVuSans-112"/>
      <use x="63.476562" xlink:href="#DejaVuSans-97"/>
      <use x="124.755859" xlink:href="#DejaVuSans-115"/>
      <use x="176.855469" xlink:href="#DejaVuSans-32"/>
      <use x="208.642578" xlink:href="#DejaVuSans-100"/>
      <use x="272.119141" xlink:href="#DejaVuSans-101"/>
      <use x="333.642578" xlink:href="#DejaVuSans-32"/>
      <use x="365.429688" xlink:href="#DejaVuSans-102"/>
      <use x="400.634766" xlink:href="#DejaVuSans-105"/>
      <use x="428.417969" xlink:href="#DejaVuSans-108"/>
      <use x="456.201172" xlink:href="#DejaVuSans-116"/>
      <use x="495.410156" xlink:href="#DejaVuSans-114"/>
      <use x="536.523438" xlink:href="#DejaVuSans-97"/>
      <use x="597.802734" xlink:href="#DejaVuSans-103"/>
      <use x="661.279297" xlink:href="#DejaVuSans-101"/>
     </g>
    </g>
    <g id="line2d_27">
     <path d="M 66.6 69.248563 
L 86.6 69.248563 
" style="fill:none;stroke:#ff7f0e;stroke-linecap:square;stroke-width:1.5;"/>
    </g>
    <g id="line2d_28"/>
    <g id="text_22">
     <!-- avec filtrage - seuil = 1 -->
     <g transform="translate(94.6 72.748563)scale(0.1 -0.1)">
      <defs>
       <path d="M 2.984375 54.6875 
L 12.5 54.6875 
L 29.59375 8.796875 
L 46.6875 54.6875 
L 56.203125 54.6875 
L 35.6875 0 
L 23.484375 0 
z
" id="DejaVuSans-118"/>
       <path d="M 4.890625 31.390625 
L 31.203125 31.390625 
L 31.203125 23.390625 
L 4.890625 23.390625 
z
" id="DejaVuSans-45"/>
       <path d="M 10.59375 45.40625 
L 73.1875 45.40625 
L 73.1875 37.203125 
L 10.59375 37.203125 
z
M 10.59375 25.484375 
L 73.1875 25.484375 
L 73.1875 17.1875 
L 10.59375 17.1875 
z
" id="DejaVuSans-61"/>
      </defs>
      <use xlink:href="#DejaVuSans-97"/>
      <use x="61.279297" xlink:href="#DejaVuSans-118"/>
      <use x="120.458984" xlink:href="#DejaVuSans-101"/>
      <use x="181.982422" xlink:href="#DejaVuSans-99"/>
      <use x="236.962891" xlink:href="#DejaVuSans-32"/>
      <use x="268.75" xlink:href="#DejaVuSans-102"/>
      <use x="303.955078" xlink:href="#DejaVuSans-105"/>
      <use x="331.738281" xlink:href="#DejaVuSans-108"/>
      <use x="359.521484" xlink:href="#DejaVuSans-116"/>
      <use x="398.730469" xlink:href="#DejaVuSans-114"/>
      <use x="439.84375" xlink:href="#DejaVuSans-97"/>
      <use x="501.123047" xlink:href="#DejaVuSans-103"/>
      <use x="564.599609" xlink:href="#DejaVuSans-101"/>
      <use x="626.123047" xlink:href="#DejaVuSans-32"/>
      <use x="657.910156" xlink:href="#DejaVuSans-45"/>
      <use x="693.994141" xlink:href="#DejaVuSans-32"/>
      <use x="725.78125" xlink:href="#DejaVuSans-115"/>
      <use x="777.880859" xlink:href="#DejaVuSans-101"/>
      <use x="839.404297" xlink:href="#DejaVuSans-117"/>
      <use x="902.783203" xlink:href="#DejaVuSans-105"/>
      <use x="930.566406" xlink:href="#DejaVuSans-108"/>
      <use x="958.349609" xlink:href="#DejaVuSans-32"/>
      <use x="990.136719" xlink:href="#DejaVuSans-61"/>
      <use x="1073.925781" xlink:href="#DejaVuSans-32"/>
      <use x="1105.712891" xlink:href="#DejaVuSans-49"/>
     </g>
    </g>
    <g id="line2d_29">
     <path d="M 66.6 83.926688 
L 86.6 83.926688 
" style="fill:none;stroke:#2ca02c;stroke-linecap:square;stroke-width:1.5;"/>
    </g>
    <g id="line2d_30"/>
    <g id="text_23">
     <!-- avec filtrage - seuil = 3 -->
     <g transform="translate(94.6 87.426688)scale(0.1 -0.1)">
      <defs>
       <path d="M 40.578125 39.3125 
Q 47.65625 37.796875 51.625 33 
Q 55.609375 28.21875 55.609375 21.1875 
Q 55.609375 10.40625 48.1875 4.484375 
Q 40.765625 -1.421875 27.09375 -1.421875 
Q 22.515625 -1.421875 17.65625 -0.515625 
Q 12.796875 0.390625 7.625 2.203125 
L 7.625 11.71875 
Q 11.71875 9.328125 16.59375 8.109375 
Q 21.484375 6.890625 26.8125 6.890625 
Q 36.078125 6.890625 40.9375 10.546875 
Q 45.796875 14.203125 45.796875 21.1875 
Q 45.796875 27.640625 41.28125 31.265625 
Q 36.765625 34.90625 28.71875 34.90625 
L 20.21875 34.90625 
L 20.21875 43.015625 
L 29.109375 43.015625 
Q 36.375 43.015625 40.234375 45.921875 
Q 44.09375 48.828125 44.09375 54.296875 
Q 44.09375 59.90625 40.109375 62.90625 
Q 36.140625 65.921875 28.71875 65.921875 
Q 24.65625 65.921875 20.015625 65.03125 
Q 15.375 64.15625 9.8125 62.3125 
L 9.8125 71.09375 
Q 15.4375 72.65625 20.34375 73.4375 
Q 25.25 74.21875 29.59375 74.21875 
Q 40.828125 74.21875 47.359375 69.109375 
Q 53.90625 64.015625 53.90625 55.328125 
Q 53.90625 49.265625 50.4375 45.09375 
Q 46.96875 40.921875 40.578125 39.3125 
z
" id="DejaVuSans-51"/>
      </defs>
      <use xlink:href="#DejaVuSans-97"/>
      <use x="61.279297" xlink:href="#DejaVuSans-118"/>
      <use x="120.458984" xlink:href="#DejaVuSans-101"/>
      <use x="181.982422" xlink:href="#DejaVuSans-99"/>
      <use x="236.962891" xlink:href="#DejaVuSans-32"/>
      <use x="268.75" xlink:href="#DejaVuSans-102"/>
      <use x="303.955078" xlink:href="#DejaVuSans-105"/>
      <use x="331.738281" xlink:href="#DejaVuSans-108"/>
      <use x="359.521484" xlink:href="#DejaVuSans-116"/>
      <use x="398.730469" xlink:href="#DejaVuSans-114"/>
      <use x="439.84375" xlink:href="#DejaVuSans-97"/>
      <use x="501.123047" xlink:href="#DejaVuSans-103"/>
      <use x="564.599609" xlink:href="#DejaVuSans-101"/>
      <use x="626.123047" xlink:href="#DejaVuSans-32"/>
      <use x="657.910156" xlink:href="#DejaVuSans-45"/>
      <use x="693.994141" xlink:href="#DejaVuSans-32"/>
      <use x="725.78125" xlink:href="#DejaVuSans-115"/>
      <use x="777.880859" xlink:href="#DejaVuSans-101"/>
      <use x="839.404297" xlink:href="#DejaVuSans-117"/>
      <use x="902.783203" xlink:href="#DejaVuSans-105"/>
      <use x="930.566406" xlink:href="#DejaVuSans-108"/>
      <use x="958.349609" xlink:href="#DejaVuSans-32"/>
      <use x="990.136719" xlink:href="#DejaVuSans-61"/>
      <use x="1073.925781" xlink:href="#DejaVuSans-32"/>
      <use x="1105.712891" xlink:href="#DejaVuSans-51"/>
     </g>
    </g>
    <g id="line2d_31">
     <path d="M 66.6 98.604813 
L 86.6 98.604813 
" style="fill:none;stroke:#d62728;stroke-linecap:square;stroke-width:1.5;"/>
    </g>
    <g id="line2d_32"/>
    <g id="text_24">
     <!-- avec filtrage - seuil = 5 -->
     <g transform="translate(94.6 102.104813)scale(0.1 -0.1)">
      <defs>
       <path d="M 10.796875 72.90625 
L 49.515625 72.90625 
L 49.515625 64.59375 
L 19.828125 64.59375 
L 19.828125 46.734375 
Q 21.96875 47.46875 24.109375 47.828125 
Q 26.265625 48.1875 28.421875 48.1875 
Q 40.625 48.1875 47.75 41.5 
Q 54.890625 34.8125 54.890625 23.390625 
Q 54.890625 11.625 47.5625 5.09375 
Q 40.234375 -1.421875 26.90625 -1.421875 
Q 22.3125 -1.421875 17.546875 -0.640625 
Q 12.796875 0.140625 7.71875 1.703125 
L 7.71875 11.625 
Q 12.109375 9.234375 16.796875 8.0625 
Q 21.484375 6.890625 26.703125 6.890625 
Q 35.15625 6.890625 40.078125 11.328125 
Q 45.015625 15.765625 45.015625 23.390625 
Q 45.015625 31 40.078125 35.4375 
Q 35.15625 39.890625 26.703125 39.890625 
Q 22.75 39.890625 18.8125 39.015625 
Q 14.890625 38.140625 10.796875 36.28125 
z
" id="DejaVuSans-53"/>
      </defs>
      <use xlink:href="#DejaVuSans-97"/>
      <use x="61.279297" xlink:href="#DejaVuSans-118"/>
      <use x="120.458984" xlink:href="#DejaVuSans-101"/>
      <use x="181.982422" xlink:href="#DejaVuSans-99"/>
      <use x="236.962891" xlink:href="#DejaVuSans-32"/>
      <use x="268.75" xlink:href="#DejaVuSans-102"/>
      <use x="303.955078" xlink:href="#DejaVuSans-105"/>
      <use x="331.738281" xlink:href="#DejaVuSans-108"/>
      <use x="359.521484" xlink:href="#DejaVuSans-116"/>
      <use x="398.730469" xlink:href="#DejaVuSans-114"/>
      <use x="439.84375" xlink:href="#DejaVuSans-97"/>
      <use x="501.123047" xlink:href="#DejaVuSans-103"/>
      <use x="564.599609" xlink:href="#DejaVuSans-101"/>
      <use x="626.123047" xlink:href="#DejaVuSans-32"/>
      <use x="657.910156" xlink:href="#DejaVuSans-45"/>
      <use x="693.994141" xlink:href="#DejaVuSans-32"/>
      <use x="725.78125" xlink:href="#DejaVuSans-115"/>
      <use x="777.880859" xlink:href="#DejaVuSans-101"/>
      <use x="839.404297" xlink:href="#DejaVuSans-117"/>
      <use x="902.783203" xlink:href="#DejaVuSans-105"/>
      <use x="930.566406" xlink:href="#DejaVuSans-108"/>
      <use x="958.349609" xlink:href="#DejaVuSans-32"/>
      <use x="990.136719" xlink:href="#DejaVuSans-61"/>
      <use x="1073.925781" xlink:href="#DejaVuSans-32"/>
      <use x="1105.712891" xlink:href="#DejaVuSans-53"/>
     </g>
    </g>
    <g id="line2d_33">
     <path d="M 66.6 113.282938 
L 86.6 113.282938 
" style="fill:none;stroke:#9467bd;stroke-linecap:square;stroke-width:1.5;"/>
    </g>
    <g id="line2d_34"/>
    <g id="text_25">
     <!-- avec filtrage - seuil = 7 -->
     <g transform="translate(94.6 116.782938)scale(0.1 -0.1)">
      <defs>
       <path d="M 8.203125 72.90625 
L 55.078125 72.90625 
L 55.078125 68.703125 
L 28.609375 0 
L 18.3125 0 
L 43.21875 64.59375 
L 8.203125 64.59375 
z
" id="DejaVuSans-55"/>
      </defs>
      <use xlink:href="#DejaVuSans-97"/>
      <use x="61.279297" xlink:href="#DejaVuSans-118"/>
      <use x="120.458984" xlink:href="#DejaVuSans-101"/>
      <use x="181.982422" xlink:href="#DejaVuSans-99"/>
      <use x="236.962891" xlink:href="#DejaVuSans-32"/>
      <use x="268.75" xlink:href="#DejaVuSans-102"/>
      <use x="303.955078" xlink:href="#DejaVuSans-105"/>
      <use x="331.738281" xlink:href="#DejaVuSans-108"/>
      <use x="359.521484" xlink:href="#DejaVuSans-116"/>
      <use x="398.730469" xlink:href="#DejaVuSans-114"/>
      <use x="439.84375" xlink:href="#DejaVuSans-97"/>
      <use x="501.123047" xlink:href="#DejaVuSans-103"/>
      <use x="564.599609" xlink:href="#DejaVuSans-101"/>
      <use x="626.123047" xlink:href="#DejaVuSans-32"/>
      <use x="657.910156" xlink:href="#DejaVuSans-45"/>
      <use x="693.994141" xlink:href="#DejaVuSans-32"/>
      <use x="725.78125" xlink:href="#DejaVuSans-115"/>
      <use x="777.880859" xlink:href="#DejaVuSans-101"/>
      <use x="839.404297" xlink:href="#DejaVuSans-117"/>
      <use x="902.783203" xlink:href="#DejaVuSans-105"/>
      <use x="930.566406" xlink:href="#DejaVuSans-108"/>
      <use x="958.349609" xlink:href="#DejaVuSans-32"/>
      <use x="990.136719" xlink:href="#DejaVuSans-61"/>
      <use x="1073.925781" xlink:href="#DejaVuSans-32"/>
      <use x="1105.712891" xlink:href="#DejaVuSans-55"/>
     </g>
    </g>
    <g id="line2d_35">
     <path d="M 66.6 127.961063 
L 86.6 127.961063 
" style="fill:none;stroke:#8c564b;stroke-linecap:square;stroke-width:1.5;"/>
    </g>
    <g id="line2d_36"/>
    <g id="text_26">
     <!-- avec filtrage - seuil = 9 -->
     <g transform="translate(94.6 131.461063)scale(0.1 -0.1)">
      <defs>
       <path d="M 10.984375 1.515625 
L 10.984375 10.5 
Q 14.703125 8.734375 18.5 7.8125 
Q 22.3125 6.890625 25.984375 6.890625 
Q 35.75 6.890625 40.890625 13.453125 
Q 46.046875 20.015625 46.78125 33.40625 
Q 43.953125 29.203125 39.59375 26.953125 
Q 35.25 24.703125 29.984375 24.703125 
Q 19.046875 24.703125 12.671875 31.3125 
Q 6.296875 37.9375 6.296875 49.421875 
Q 6.296875 60.640625 12.9375 67.421875 
Q 19.578125 74.21875 30.609375 74.21875 
Q 43.265625 74.21875 49.921875 64.515625 
Q 56.59375 54.828125 56.59375 36.375 
Q 56.59375 19.140625 48.40625 8.859375 
Q 40.234375 -1.421875 26.421875 -1.421875 
Q 22.703125 -1.421875 18.890625 -0.6875 
Q 15.09375 0.046875 10.984375 1.515625 
z
M 30.609375 32.421875 
Q 37.25 32.421875 41.125 36.953125 
Q 45.015625 41.5 45.015625 49.421875 
Q 45.015625 57.28125 41.125 61.84375 
Q 37.25 66.40625 30.609375 66.40625 
Q 23.96875 66.40625 20.09375 61.84375 
Q 16.21875 57.28125 16.21875 49.421875 
Q 16.21875 41.5 20.09375 36.953125 
Q 23.96875 32.421875 30.609375 32.421875 
z
" id="DejaVuSans-57"/>
      </defs>
      <use xlink:href="#DejaVuSans-97"/>
      <use x="61.279297" xlink:href="#DejaVuSans-118"/>
      <use x="120.458984" xlink:href="#DejaVuSans-101"/>
      <use x="181.982422" xlink:href="#DejaVuSans-99"/>
      <use x="236.962891" xlink:href="#DejaVuSans-32"/>
      <use x="268.75" xlink:href="#DejaVuSans-102"/>
      <use x="303.955078" xlink:href="#DejaVuSans-105"/>
      <use x="331.738281" xlink:href="#DejaVuSans-108"/>
      <use x="359.521484" xlink:href="#DejaVuSans-116"/>
      <use x="398.730469" xlink:href="#DejaVuSans-114"/>
      <use x="439.84375" xlink:href="#DejaVuSans-97"/>
      <use x="501.123047" xlink:href="#DejaVuSans-103"/>
      <use x="564.599609" xlink:href="#DejaVuSans-101"/>
      <use x="626.123047" xlink:href="#DejaVuSans-32"/>
      <use x="657.910156" xlink:href="#DejaVuSans-45"/>
      <use x="693.994141" xlink:href="#DejaVuSans-32"/>
      <use x="725.78125" xlink:href="#DejaVuSans-115"/>
      <use x="777.880859" xlink:href="#DejaVuSans-101"/>
      <use x="839.404297" xlink:href="#DejaVuSans-117"/>
      <use x="902.783203" xlink:href="#DejaVuSans-105"/>
      <use x="930.566406" xlink:href="#DejaVuSans-108"/>
      <use x="958.349609" xlink:href="#DejaVuSans-32"/>
      <use x="990.136719" xlink:href="#DejaVuSans-61"/>
      <use x="1073.925781" xlink:href="#DejaVuSans-32"/>
      <use x="1105.712891" xlink:href="#DejaVuSans-57"/>
     </g>
    </g>
    <g id="line2d_37">
     <path d="M 66.6 142.639188 
L 86.6 142.639188 
" style="fill:none;stroke:#e377c2;stroke-linecap:square;stroke-width:1.5;"/>
    </g>
    <g id="line2d_38"/>
    <g id="text_27">
     <!-- avec filtrage - seuil = 11 -->
     <g transform="translate(94.6 146.139188)scale(0.1 -0.1)">
      <use xlink:href="#DejaVuSans-97"/>
      <use x="61.279297" xlink:href="#DejaVuSans-118"/>
      <use x="120.458984" xlink:href="#DejaVuSans-101"/>
      <use x="181.982422" xlink:href="#DejaVuSans-99"/>
      <use x="236.962891" xlink:href="#DejaVuSans-32"/>
      <use x="268.75" xlink:href="#DejaVuSans-102"/>
      <use x="303.955078" xlink:href="#DejaVuSans-105"/>
      <use x="331.738281" xlink:href="#DejaVuSans-108"/>
      <use x="359.521484" xlink:href="#DejaVuSans-116"/>
      <use x="398.730469" xlink:href="#DejaVuSans-114"/>
      <use x="439.84375" xlink:href="#DejaVuSans-97"/>
      <use x="501.123047" xlink:href="#DejaVuSans-103"/>
      <use x="564.599609" xlink:href="#DejaVuSans-101"/>
      <use x="626.123047" xlink:href="#DejaVuSans-32"/>
      <use x="657.910156" xlink:href="#DejaVuSans-45"/>
      <use x="693.994141" xlink:href="#DejaVuSans-32"/>
      <use x="725.78125" xlink:href="#DejaVuSans-115"/>
      <use x="777.880859" xlink:href="#DejaVuSans-101"/>
      <use x="839.404297" xlink:href="#DejaVuSans-117"/>
      <use x="902.783203" xlink:href="#DejaVuSans-105"/>
      <use x="930.566406" xlink:href="#DejaVuSans-108"/>
      <use x="958.349609" xlink:href="#DejaVuSans-32"/>
      <use x="990.136719" xlink:href="#DejaVuSans-61"/>
      <use x="1073.925781" xlink:href="#DejaVuSans-32"/>
      <use x="1105.712891" xlink:href="#DejaVuSans-49"/>
      <use x="1169.335938" xlink:href="#DejaVuSans-49"/>
     </g>
    </g>
   </g>
  </g>
 </g>
 <defs>
  <clipPath id="p22a7dc3944">
   <rect height="266.112" width="357.12" x="57.6" y="41.472"/>
  </clipPath>
 </defs>
</svg>
