<?xml version="1.0" encoding="utf-8" standalone="no"?>
<!DOCTYPE svg PUBLIC "-//W3C//DTD SVG 1.1//EN"
  "http://www.w3.org/Graphics/SVG/1.1/DTD/svg11.dtd">
<!-- Created with matplotlib (https://matplotlib.org/) -->
<svg height="345.6pt" version="1.1" viewBox="0 0 460.8 345.6" width="460.8pt" xmlns="http://www.w3.org/2000/svg" xmlns:xlink="http://www.w3.org/1999/xlink">
 <metadata>
  <rdf:RDF xmlns:cc="http://creativecommons.org/ns#" xmlns:dc="http://purl.org/dc/elements/1.1/" xmlns:rdf="http://www.w3.org/1999/02/22-rdf-syntax-ns#">
   <cc:Work>
    <dc:type rdf:resource="http://purl.org/dc/dcmitype/StillImage"/>
    <dc:date>2021-10-23T00:03:44.600209</dc:date>
    <dc:format>image/svg+xml</dc:format>
    <dc:creator>
     <cc:Agent>
      <dc:title>Matplotlib v3.3.2, https://matplotlib.org/</dc:title>
     </cc:Agent>
    </dc:creator>
   </cc:Work>
  </rdf:RDF>
 </metadata>
 <defs>
  <style type="text/css">*{stroke-linecap:butt;stroke-linejoin:round;}</style>
 </defs>
 <g id="figure_1">
  <g id="patch_1">
   <path d="M 0 345.6 
L 460.8 345.6 
L 460.8 0 
L 0 0 
z
" style="fill:#ffffff;"/>
  </g>
  <g id="axes_1">
   <g id="patch_2">
    <path d="M 57.6 307.584 
L 414.72 307.584 
L 414.72 41.472 
L 57.6 41.472 
z
" style="fill:#ffffff;"/>
   </g>
   <g id="matplotlib.axis_1">
    <g id="xtick_1">
     <g id="line2d_1">
      <defs>
       <path d="M 0 0 
L 0 3.5 
" id="m834ee82f0c" style="stroke:#000000;stroke-width:0.8;"/>
      </defs>
      <g>
       <use style="stroke:#000000;stroke-width:0.8;" x="112.791273" xlink:href="#m834ee82f0c" y="307.584"/>
      </g>
     </g>
     <g id="text_1">
      <!-- 5 -->
      <g transform="translate(109.610023 322.182437)scale(0.1 -0.1)">
       <defs>
        <path d="M 10.796875 72.90625 
L 49.515625 72.90625 
L 49.515625 64.59375 
L 19.828125 64.59375 
L 19.828125 46.734375 
Q 21.96875 47.46875 24.109375 47.828125 
Q 26.265625 48.1875 28.421875 48.1875 
Q 40.625 48.1875 47.75 41.5 
Q 54.890625 34.8125 54.890625 23.390625 
Q 54.890625 11.625 47.5625 5.09375 
Q 40.234375 -1.421875 26.90625 -1.421875 
Q 22.3125 -1.421875 17.546875 -0.640625 
Q 12.796875 0.140625 7.71875 1.703125 
L 7.71875 11.625 
Q 12.109375 9.234375 16.796875 8.0625 
Q 21.484375 6.890625 26.703125 6.890625 
Q 35.15625 6.890625 40.078125 11.328125 
Q 45.015625 15.765625 45.015625 23.390625 
Q 45.015625 31 40.078125 35.4375 
Q 35.15625 39.890625 26.703125 39.890625 
Q 22.75 39.890625 18.8125 39.015625 
Q 14.890625 38.140625 10.796875 36.28125 
z
" id="DejaVuSans-53"/>
       </defs>
       <use xlink:href="#DejaVuSans-53"/>
      </g>
     </g>
    </g>
    <g id="xtick_2">
     <g id="line2d_2">
      <g>
       <use style="stroke:#000000;stroke-width:0.8;" x="177.722182" xlink:href="#m834ee82f0c" y="307.584"/>
      </g>
     </g>
     <g id="text_2">
      <!-- 10 -->
      <g transform="translate(171.359682 322.182437)scale(0.1 -0.1)">
       <defs>
        <path d="M 12.40625 8.296875 
L 28.515625 8.296875 
L 28.515625 63.921875 
L 10.984375 60.40625 
L 10.984375 69.390625 
L 28.421875 72.90625 
L 38.28125 72.90625 
L 38.28125 8.296875 
L 54.390625 8.296875 
L 54.390625 0 
L 12.40625 0 
z
" id="DejaVuSans-49"/>
        <path d="M 31.78125 66.40625 
Q 24.171875 66.40625 20.328125 58.90625 
Q 16.5 51.421875 16.5 36.375 
Q 16.5 21.390625 20.328125 13.890625 
Q 24.171875 6.390625 31.78125 6.390625 
Q 39.453125 6.390625 43.28125 13.890625 
Q 47.125 21.390625 47.125 36.375 
Q 47.125 51.421875 43.28125 58.90625 
Q 39.453125 66.40625 31.78125 66.40625 
z
M 31.78125 74.21875 
Q 44.046875 74.21875 50.515625 64.515625 
Q 56.984375 54.828125 56.984375 36.375 
Q 56.984375 17.96875 50.515625 8.265625 
Q 44.046875 -1.421875 31.78125 -1.421875 
Q 19.53125 -1.421875 13.0625 8.265625 
Q 6.59375 17.96875 6.59375 36.375 
Q 6.59375 54.828125 13.0625 64.515625 
Q 19.53125 74.21875 31.78125 74.21875 
z
" id="DejaVuSans-48"/>
       </defs>
       <use xlink:href="#DejaVuSans-49"/>
       <use x="63.623047" xlink:href="#DejaVuSans-48"/>
      </g>
     </g>
    </g>
    <g id="xtick_3">
     <g id="line2d_3">
      <g>
       <use style="stroke:#000000;stroke-width:0.8;" x="242.653091" xlink:href="#m834ee82f0c" y="307.584"/>
      </g>
     </g>
     <g id="text_3">
      <!-- 15 -->
      <g transform="translate(236.290591 322.182437)scale(0.1 -0.1)">
       <use xlink:href="#DejaVuSans-49"/>
       <use x="63.623047" xlink:href="#DejaVuSans-53"/>
      </g>
     </g>
    </g>
    <g id="xtick_4">
     <g id="line2d_4">
      <g>
       <use style="stroke:#000000;stroke-width:0.8;" x="307.584" xlink:href="#m834ee82f0c" y="307.584"/>
      </g>
     </g>
     <g id="text_4">
      <!-- 20 -->
      <g transform="translate(301.2215 322.182437)scale(0.1 -0.1)">
       <defs>
        <path d="M 19.1875 8.296875 
L 53.609375 8.296875 
L 53.609375 0 
L 7.328125 0 
L 7.328125 8.296875 
Q 12.9375 14.109375 22.625 23.890625 
Q 32.328125 33.6875 34.8125 36.53125 
Q 39.546875 41.84375 41.421875 45.53125 
Q 43.3125 49.21875 43.3125 52.78125 
Q 43.3125 58.59375 39.234375 62.25 
Q 35.15625 65.921875 28.609375 65.921875 
Q 23.96875 65.921875 18.8125 64.3125 
Q 13.671875 62.703125 7.8125 59.421875 
L 7.8125 69.390625 
Q 13.765625 71.78125 18.9375 73 
Q 24.125 74.21875 28.421875 74.21875 
Q 39.75 74.21875 46.484375 68.546875 
Q 53.21875 62.890625 53.21875 53.421875 
Q 53.21875 48.921875 51.53125 44.890625 
Q 49.859375 40.875 45.40625 35.40625 
Q 44.1875 33.984375 37.640625 27.21875 
Q 31.109375 20.453125 19.1875 8.296875 
z
" id="DejaVuSans-50"/>
       </defs>
       <use xlink:href="#DejaVuSans-50"/>
       <use x="63.623047" xlink:href="#DejaVuSans-48"/>
      </g>
     </g>
    </g>
    <g id="xtick_5">
     <g id="line2d_5">
      <g>
       <use style="stroke:#000000;stroke-width:0.8;" x="372.514909" xlink:href="#m834ee82f0c" y="307.584"/>
      </g>
     </g>
     <g id="text_5">
      <!-- 25 -->
      <g transform="translate(366.152409 322.182437)scale(0.1 -0.1)">
       <use xlink:href="#DejaVuSans-50"/>
       <use x="63.623047" xlink:href="#DejaVuSans-53"/>
      </g>
     </g>
    </g>
    <g id="text_6">
     <!-- Longeurs de phrases considérées -->
     <g transform="translate(152.464687 336.260562)scale(0.1 -0.1)">
      <defs>
       <path d="M 9.8125 72.90625 
L 19.671875 72.90625 
L 19.671875 8.296875 
L 55.171875 8.296875 
L 55.171875 0 
L 9.8125 0 
z
" id="DejaVuSans-76"/>
       <path d="M 30.609375 48.390625 
Q 23.390625 48.390625 19.1875 42.75 
Q 14.984375 37.109375 14.984375 27.296875 
Q 14.984375 17.484375 19.15625 11.84375 
Q 23.34375 6.203125 30.609375 6.203125 
Q 37.796875 6.203125 41.984375 11.859375 
Q 46.1875 17.53125 46.1875 27.296875 
Q 46.1875 37.015625 41.984375 42.703125 
Q 37.796875 48.390625 30.609375 48.390625 
z
M 30.609375 56 
Q 42.328125 56 49.015625 48.375 
Q 55.71875 40.765625 55.71875 27.296875 
Q 55.71875 13.875 49.015625 6.21875 
Q 42.328125 -1.421875 30.609375 -1.421875 
Q 18.84375 -1.421875 12.171875 6.21875 
Q 5.515625 13.875 5.515625 27.296875 
Q 5.515625 40.765625 12.171875 48.375 
Q 18.84375 56 30.609375 56 
z
" id="DejaVuSans-111"/>
       <path d="M 54.890625 33.015625 
L 54.890625 0 
L 45.90625 0 
L 45.90625 32.71875 
Q 45.90625 40.484375 42.875 44.328125 
Q 39.84375 48.1875 33.796875 48.1875 
Q 26.515625 48.1875 22.3125 43.546875 
Q 18.109375 38.921875 18.109375 30.90625 
L 18.109375 0 
L 9.078125 0 
L 9.078125 54.6875 
L 18.109375 54.6875 
L 18.109375 46.1875 
Q 21.34375 51.125 25.703125 53.5625 
Q 30.078125 56 35.796875 56 
Q 45.21875 56 50.046875 50.171875 
Q 54.890625 44.34375 54.890625 33.015625 
z
" id="DejaVuSans-110"/>
       <path d="M 45.40625 27.984375 
Q 45.40625 37.75 41.375 43.109375 
Q 37.359375 48.484375 30.078125 48.484375 
Q 22.859375 48.484375 18.828125 43.109375 
Q 14.796875 37.75 14.796875 27.984375 
Q 14.796875 18.265625 18.828125 12.890625 
Q 22.859375 7.515625 30.078125 7.515625 
Q 37.359375 7.515625 41.375 12.890625 
Q 45.40625 18.265625 45.40625 27.984375 
z
M 54.390625 6.78125 
Q 54.390625 -7.171875 48.1875 -13.984375 
Q 42 -20.796875 29.203125 -20.796875 
Q 24.46875 -20.796875 20.265625 -20.09375 
Q 16.0625 -19.390625 12.109375 -17.921875 
L 12.109375 -9.1875 
Q 16.0625 -11.328125 19.921875 -12.34375 
Q 23.78125 -13.375 27.78125 -13.375 
Q 36.625 -13.375 41.015625 -8.765625 
Q 45.40625 -4.15625 45.40625 5.171875 
L 45.40625 9.625 
Q 42.625 4.78125 38.28125 2.390625 
Q 33.9375 0 27.875 0 
Q 17.828125 0 11.671875 7.65625 
Q 5.515625 15.328125 5.515625 27.984375 
Q 5.515625 40.671875 11.671875 48.328125 
Q 17.828125 56 27.875 56 
Q 33.9375 56 38.28125 53.609375 
Q 42.625 51.21875 45.40625 46.390625 
L 45.40625 54.6875 
L 54.390625 54.6875 
z
" id="DejaVuSans-103"/>
       <path d="M 56.203125 29.59375 
L 56.203125 25.203125 
L 14.890625 25.203125 
Q 15.484375 15.921875 20.484375 11.0625 
Q 25.484375 6.203125 34.421875 6.203125 
Q 39.59375 6.203125 44.453125 7.46875 
Q 49.3125 8.734375 54.109375 11.28125 
L 54.109375 2.78125 
Q 49.265625 0.734375 44.1875 -0.34375 
Q 39.109375 -1.421875 33.890625 -1.421875 
Q 20.796875 -1.421875 13.15625 6.1875 
Q 5.515625 13.8125 5.515625 26.8125 
Q 5.515625 40.234375 12.765625 48.109375 
Q 20.015625 56 32.328125 56 
Q 43.359375 56 49.78125 48.890625 
Q 56.203125 41.796875 56.203125 29.59375 
z
M 47.21875 32.234375 
Q 47.125 39.59375 43.09375 43.984375 
Q 39.0625 48.390625 32.421875 48.390625 
Q 24.90625 48.390625 20.390625 44.140625 
Q 15.875 39.890625 15.1875 32.171875 
z
" id="DejaVuSans-101"/>
       <path d="M 8.5 21.578125 
L 8.5 54.6875 
L 17.484375 54.6875 
L 17.484375 21.921875 
Q 17.484375 14.15625 20.5 10.265625 
Q 23.53125 6.390625 29.59375 6.390625 
Q 36.859375 6.390625 41.078125 11.03125 
Q 45.3125 15.671875 45.3125 23.6875 
L 45.3125 54.6875 
L 54.296875 54.6875 
L 54.296875 0 
L 45.3125 0 
L 45.3125 8.40625 
Q 42.046875 3.421875 37.71875 1 
Q 33.40625 -1.421875 27.6875 -1.421875 
Q 18.265625 -1.421875 13.375 4.4375 
Q 8.5 10.296875 8.5 21.578125 
z
M 31.109375 56 
z
" id="DejaVuSans-117"/>
       <path d="M 41.109375 46.296875 
Q 39.59375 47.171875 37.8125 47.578125 
Q 36.03125 48 33.890625 48 
Q 26.265625 48 22.1875 43.046875 
Q 18.109375 38.09375 18.109375 28.8125 
L 18.109375 0 
L 9.078125 0 
L 9.078125 54.6875 
L 18.109375 54.6875 
L 18.109375 46.1875 
Q 20.953125 51.171875 25.484375 53.578125 
Q 30.03125 56 36.53125 56 
Q 37.453125 56 38.578125 55.875 
Q 39.703125 55.765625 41.0625 55.515625 
z
" id="DejaVuSans-114"/>
       <path d="M 44.28125 53.078125 
L 44.28125 44.578125 
Q 40.484375 46.53125 36.375 47.5 
Q 32.28125 48.484375 27.875 48.484375 
Q 21.1875 48.484375 17.84375 46.4375 
Q 14.5 44.390625 14.5 40.28125 
Q 14.5 37.15625 16.890625 35.375 
Q 19.28125 33.59375 26.515625 31.984375 
L 29.59375 31.296875 
Q 39.15625 29.25 43.1875 25.515625 
Q 47.21875 21.78125 47.21875 15.09375 
Q 47.21875 7.46875 41.1875 3.015625 
Q 35.15625 -1.421875 24.609375 -1.421875 
Q 20.21875 -1.421875 15.453125 -0.5625 
Q 10.6875 0.296875 5.421875 2 
L 5.421875 11.28125 
Q 10.40625 8.6875 15.234375 7.390625 
Q 20.0625 6.109375 24.8125 6.109375 
Q 31.15625 6.109375 34.5625 8.28125 
Q 37.984375 10.453125 37.984375 14.40625 
Q 37.984375 18.0625 35.515625 20.015625 
Q 33.0625 21.96875 24.703125 23.78125 
L 21.578125 24.515625 
Q 13.234375 26.265625 9.515625 29.90625 
Q 5.8125 33.546875 5.8125 39.890625 
Q 5.8125 47.609375 11.28125 51.796875 
Q 16.75 56 26.8125 56 
Q 31.78125 56 36.171875 55.265625 
Q 40.578125 54.546875 44.28125 53.078125 
z
" id="DejaVuSans-115"/>
       <path id="DejaVuSans-32"/>
       <path d="M 45.40625 46.390625 
L 45.40625 75.984375 
L 54.390625 75.984375 
L 54.390625 0 
L 45.40625 0 
L 45.40625 8.203125 
Q 42.578125 3.328125 38.25 0.953125 
Q 33.9375 -1.421875 27.875 -1.421875 
Q 17.96875 -1.421875 11.734375 6.484375 
Q 5.515625 14.40625 5.515625 27.296875 
Q 5.515625 40.1875 11.734375 48.09375 
Q 17.96875 56 27.875 56 
Q 33.9375 56 38.25 53.625 
Q 42.578125 51.265625 45.40625 46.390625 
z
M 14.796875 27.296875 
Q 14.796875 17.390625 18.875 11.75 
Q 22.953125 6.109375 30.078125 6.109375 
Q 37.203125 6.109375 41.296875 11.75 
Q 45.40625 17.390625 45.40625 27.296875 
Q 45.40625 37.203125 41.296875 42.84375 
Q 37.203125 48.484375 30.078125 48.484375 
Q 22.953125 48.484375 18.875 42.84375 
Q 14.796875 37.203125 14.796875 27.296875 
z
" id="DejaVuSans-100"/>
       <path d="M 18.109375 8.203125 
L 18.109375 -20.796875 
L 9.078125 -20.796875 
L 9.078125 54.6875 
L 18.109375 54.6875 
L 18.109375 46.390625 
Q 20.953125 51.265625 25.265625 53.625 
Q 29.59375 56 35.59375 56 
Q 45.5625 56 51.78125 48.09375 
Q 58.015625 40.1875 58.015625 27.296875 
Q 58.015625 14.40625 51.78125 6.484375 
Q 45.5625 -1.421875 35.59375 -1.421875 
Q 29.59375 -1.421875 25.265625 0.953125 
Q 20.953125 3.328125 18.109375 8.203125 
z
M 48.6875 27.296875 
Q 48.6875 37.203125 44.609375 42.84375 
Q 40.53125 48.484375 33.40625 48.484375 
Q 26.265625 48.484375 22.1875 42.84375 
Q 18.109375 37.203125 18.109375 27.296875 
Q 18.109375 17.390625 22.1875 11.75 
Q 26.265625 6.109375 33.40625 6.109375 
Q 40.53125 6.109375 44.609375 11.75 
Q 48.6875 17.390625 48.6875 27.296875 
z
" id="DejaVuSans-112"/>
       <path d="M 54.890625 33.015625 
L 54.890625 0 
L 45.90625 0 
L 45.90625 32.71875 
Q 45.90625 40.484375 42.875 44.328125 
Q 39.84375 48.1875 33.796875 48.1875 
Q 26.515625 48.1875 22.3125 43.546875 
Q 18.109375 38.921875 18.109375 30.90625 
L 18.109375 0 
L 9.078125 0 
L 9.078125 75.984375 
L 18.109375 75.984375 
L 18.109375 46.1875 
Q 21.34375 51.125 25.703125 53.5625 
Q 30.078125 56 35.796875 56 
Q 45.21875 56 50.046875 50.171875 
Q 54.890625 44.34375 54.890625 33.015625 
z
" id="DejaVuSans-104"/>
       <path d="M 34.28125 27.484375 
Q 23.390625 27.484375 19.1875 25 
Q 14.984375 22.515625 14.984375 16.5 
Q 14.984375 11.71875 18.140625 8.90625 
Q 21.296875 6.109375 26.703125 6.109375 
Q 34.1875 6.109375 38.703125 11.40625 
Q 43.21875 16.703125 43.21875 25.484375 
L 43.21875 27.484375 
z
M 52.203125 31.203125 
L 52.203125 0 
L 43.21875 0 
L 43.21875 8.296875 
Q 40.140625 3.328125 35.546875 0.953125 
Q 30.953125 -1.421875 24.3125 -1.421875 
Q 15.921875 -1.421875 10.953125 3.296875 
Q 6 8.015625 6 15.921875 
Q 6 25.140625 12.171875 29.828125 
Q 18.359375 34.515625 30.609375 34.515625 
L 43.21875 34.515625 
L 43.21875 35.40625 
Q 43.21875 41.609375 39.140625 45 
Q 35.0625 48.390625 27.6875 48.390625 
Q 23 48.390625 18.546875 47.265625 
Q 14.109375 46.140625 10.015625 43.890625 
L 10.015625 52.203125 
Q 14.9375 54.109375 19.578125 55.046875 
Q 24.21875 56 28.609375 56 
Q 40.484375 56 46.34375 49.84375 
Q 52.203125 43.703125 52.203125 31.203125 
z
" id="DejaVuSans-97"/>
       <path d="M 48.78125 52.59375 
L 48.78125 44.1875 
Q 44.96875 46.296875 41.140625 47.34375 
Q 37.3125 48.390625 33.40625 48.390625 
Q 24.65625 48.390625 19.8125 42.84375 
Q 14.984375 37.3125 14.984375 27.296875 
Q 14.984375 17.28125 19.8125 11.734375 
Q 24.65625 6.203125 33.40625 6.203125 
Q 37.3125 6.203125 41.140625 7.25 
Q 44.96875 8.296875 48.78125 10.40625 
L 48.78125 2.09375 
Q 45.015625 0.34375 40.984375 -0.53125 
Q 36.96875 -1.421875 32.421875 -1.421875 
Q 20.0625 -1.421875 12.78125 6.34375 
Q 5.515625 14.109375 5.515625 27.296875 
Q 5.515625 40.671875 12.859375 48.328125 
Q 20.21875 56 33.015625 56 
Q 37.15625 56 41.109375 55.140625 
Q 45.0625 54.296875 48.78125 52.59375 
z
" id="DejaVuSans-99"/>
       <path d="M 9.421875 54.6875 
L 18.40625 54.6875 
L 18.40625 0 
L 9.421875 0 
z
M 9.421875 75.984375 
L 18.40625 75.984375 
L 18.40625 64.59375 
L 9.421875 64.59375 
z
" id="DejaVuSans-105"/>
       <path d="M 56.203125 29.59375 
L 56.203125 25.203125 
L 14.890625 25.203125 
Q 15.484375 15.921875 20.484375 11.0625 
Q 25.484375 6.203125 34.421875 6.203125 
Q 39.59375 6.203125 44.453125 7.46875 
Q 49.3125 8.734375 54.109375 11.28125 
L 54.109375 2.78125 
Q 49.265625 0.734375 44.1875 -0.34375 
Q 39.109375 -1.421875 33.890625 -1.421875 
Q 20.796875 -1.421875 13.15625 6.1875 
Q 5.515625 13.8125 5.515625 26.8125 
Q 5.515625 40.234375 12.765625 48.109375 
Q 20.015625 56 32.328125 56 
Q 43.359375 56 49.78125 48.890625 
Q 56.203125 41.796875 56.203125 29.59375 
z
M 47.21875 32.234375 
Q 47.125 39.59375 43.09375 43.984375 
Q 39.0625 48.390625 32.421875 48.390625 
Q 24.90625 48.390625 20.390625 44.140625 
Q 15.875 39.890625 15.1875 32.171875 
z
M 38.578125 79.984375 
L 48.296875 79.984375 
L 32.375 61.625 
L 24.90625 61.625 
z
" id="DejaVuSans-233"/>
      </defs>
      <use xlink:href="#DejaVuSans-76"/>
      <use x="53.962891" xlink:href="#DejaVuSans-111"/>
      <use x="115.144531" xlink:href="#DejaVuSans-110"/>
      <use x="178.523438" xlink:href="#DejaVuSans-103"/>
      <use x="242" xlink:href="#DejaVuSans-101"/>
      <use x="303.523438" xlink:href="#DejaVuSans-117"/>
      <use x="366.902344" xlink:href="#DejaVuSans-114"/>
      <use x="408.015625" xlink:href="#DejaVuSans-115"/>
      <use x="460.115234" xlink:href="#DejaVuSans-32"/>
      <use x="491.902344" xlink:href="#DejaVuSans-100"/>
      <use x="555.378906" xlink:href="#DejaVuSans-101"/>
      <use x="616.902344" xlink:href="#DejaVuSans-32"/>
      <use x="648.689453" xlink:href="#DejaVuSans-112"/>
      <use x="712.166016" xlink:href="#DejaVuSans-104"/>
      <use x="775.544922" xlink:href="#DejaVuSans-114"/>
      <use x="816.658203" xlink:href="#DejaVuSans-97"/>
      <use x="877.9375" xlink:href="#DejaVuSans-115"/>
      <use x="930.037109" xlink:href="#DejaVuSans-101"/>
      <use x="991.560547" xlink:href="#DejaVuSans-115"/>
      <use x="1043.660156" xlink:href="#DejaVuSans-32"/>
      <use x="1075.447266" xlink:href="#DejaVuSans-99"/>
      <use x="1130.427734" xlink:href="#DejaVuSans-111"/>
      <use x="1191.609375" xlink:href="#DejaVuSans-110"/>
      <use x="1254.988281" xlink:href="#DejaVuSans-115"/>
      <use x="1307.087891" xlink:href="#DejaVuSans-105"/>
      <use x="1334.871094" xlink:href="#DejaVuSans-100"/>
      <use x="1398.347656" xlink:href="#DejaVuSans-233"/>
      <use x="1459.871094" xlink:href="#DejaVuSans-114"/>
      <use x="1498.734375" xlink:href="#DejaVuSans-233"/>
      <use x="1560.257812" xlink:href="#DejaVuSans-101"/>
      <use x="1621.78125" xlink:href="#DejaVuSans-115"/>
     </g>
    </g>
   </g>
   <g id="matplotlib.axis_2">
    <g id="ytick_1">
     <g id="line2d_6">
      <defs>
       <path d="M 0 0 
L -3.5 0 
" id="m3f7a55e7f2" style="stroke:#000000;stroke-width:0.8;"/>
      </defs>
      <g>
       <use style="stroke:#000000;stroke-width:0.8;" x="57.6" xlink:href="#m3f7a55e7f2" y="295.919207"/>
      </g>
     </g>
     <g id="text_7">
      <!-- 0.0 -->
      <g transform="translate(34.696875 299.718425)scale(0.1 -0.1)">
       <defs>
        <path d="M 10.6875 12.40625 
L 21 12.40625 
L 21 0 
L 10.6875 0 
z
" id="DejaVuSans-46"/>
       </defs>
       <use xlink:href="#DejaVuSans-48"/>
       <use x="63.623047" xlink:href="#DejaVuSans-46"/>
       <use x="95.410156" xlink:href="#DejaVuSans-48"/>
      </g>
     </g>
    </g>
    <g id="ytick_2">
     <g id="line2d_7">
      <g>
       <use style="stroke:#000000;stroke-width:0.8;" x="57.6" xlink:href="#m3f7a55e7f2" y="252.474289"/>
      </g>
     </g>
     <g id="text_8">
      <!-- 0.1 -->
      <g transform="translate(34.696875 256.273508)scale(0.1 -0.1)">
       <use xlink:href="#DejaVuSans-48"/>
       <use x="63.623047" xlink:href="#DejaVuSans-46"/>
       <use x="95.410156" xlink:href="#DejaVuSans-49"/>
      </g>
     </g>
    </g>
    <g id="ytick_3">
     <g id="line2d_8">
      <g>
       <use style="stroke:#000000;stroke-width:0.8;" x="57.6" xlink:href="#m3f7a55e7f2" y="209.029372"/>
      </g>
     </g>
     <g id="text_9">
      <!-- 0.2 -->
      <g transform="translate(34.696875 212.828591)scale(0.1 -0.1)">
       <use xlink:href="#DejaVuSans-48"/>
       <use x="63.623047" xlink:href="#DejaVuSans-46"/>
       <use x="95.410156" xlink:href="#DejaVuSans-50"/>
      </g>
     </g>
    </g>
    <g id="ytick_4">
     <g id="line2d_9">
      <g>
       <use style="stroke:#000000;stroke-width:0.8;" x="57.6" xlink:href="#m3f7a55e7f2" y="165.584454"/>
      </g>
     </g>
     <g id="text_10">
      <!-- 0.3 -->
      <g transform="translate(34.696875 169.383673)scale(0.1 -0.1)">
       <defs>
        <path d="M 40.578125 39.3125 
Q 47.65625 37.796875 51.625 33 
Q 55.609375 28.21875 55.609375 21.1875 
Q 55.609375 10.40625 48.1875 4.484375 
Q 40.765625 -1.421875 27.09375 -1.421875 
Q 22.515625 -1.421875 17.65625 -0.515625 
Q 12.796875 0.390625 7.625 2.203125 
L 7.625 11.71875 
Q 11.71875 9.328125 16.59375 8.109375 
Q 21.484375 6.890625 26.8125 6.890625 
Q 36.078125 6.890625 40.9375 10.546875 
Q 45.796875 14.203125 45.796875 21.1875 
Q 45.796875 27.640625 41.28125 31.265625 
Q 36.765625 34.90625 28.71875 34.90625 
L 20.21875 34.90625 
L 20.21875 43.015625 
L 29.109375 43.015625 
Q 36.375 43.015625 40.234375 45.921875 
Q 44.09375 48.828125 44.09375 54.296875 
Q 44.09375 59.90625 40.109375 62.90625 
Q 36.140625 65.921875 28.71875 65.921875 
Q 24.65625 65.921875 20.015625 65.03125 
Q 15.375 64.15625 9.8125 62.3125 
L 9.8125 71.09375 
Q 15.4375 72.65625 20.34375 73.4375 
Q 25.25 74.21875 29.59375 74.21875 
Q 40.828125 74.21875 47.359375 69.109375 
Q 53.90625 64.015625 53.90625 55.328125 
Q 53.90625 49.265625 50.4375 45.09375 
Q 46.96875 40.921875 40.578125 39.3125 
z
" id="DejaVuSans-51"/>
       </defs>
       <use xlink:href="#DejaVuSans-48"/>
       <use x="63.623047" xlink:href="#DejaVuSans-46"/>
       <use x="95.410156" xlink:href="#DejaVuSans-51"/>
      </g>
     </g>
    </g>
    <g id="ytick_5">
     <g id="line2d_10">
      <g>
       <use style="stroke:#000000;stroke-width:0.8;" x="57.6" xlink:href="#m3f7a55e7f2" y="122.139537"/>
      </g>
     </g>
     <g id="text_11">
      <!-- 0.4 -->
      <g transform="translate(34.696875 125.938756)scale(0.1 -0.1)">
       <defs>
        <path d="M 37.796875 64.3125 
L 12.890625 25.390625 
L 37.796875 25.390625 
z
M 35.203125 72.90625 
L 47.609375 72.90625 
L 47.609375 25.390625 
L 58.015625 25.390625 
L 58.015625 17.1875 
L 47.609375 17.1875 
L 47.609375 0 
L 37.796875 0 
L 37.796875 17.1875 
L 4.890625 17.1875 
L 4.890625 26.703125 
z
" id="DejaVuSans-52"/>
       </defs>
       <use xlink:href="#DejaVuSans-48"/>
       <use x="63.623047" xlink:href="#DejaVuSans-46"/>
       <use x="95.410156" xlink:href="#DejaVuSans-52"/>
      </g>
     </g>
    </g>
    <g id="ytick_6">
     <g id="line2d_11">
      <g>
       <use style="stroke:#000000;stroke-width:0.8;" x="57.6" xlink:href="#m3f7a55e7f2" y="78.69462"/>
      </g>
     </g>
     <g id="text_12">
      <!-- 0.5 -->
      <g transform="translate(34.696875 82.493838)scale(0.1 -0.1)">
       <use xlink:href="#DejaVuSans-48"/>
       <use x="63.623047" xlink:href="#DejaVuSans-46"/>
       <use x="95.410156" xlink:href="#DejaVuSans-53"/>
      </g>
     </g>
    </g>
    <g id="text_13">
     <!-- Le temps d'analyse (en sec) -->
     <g transform="translate(28.617187 244.797531)rotate(-90)scale(0.1 -0.1)">
      <defs>
       <path d="M 18.3125 70.21875 
L 18.3125 54.6875 
L 36.8125 54.6875 
L 36.8125 47.703125 
L 18.3125 47.703125 
L 18.3125 18.015625 
Q 18.3125 11.328125 20.140625 9.421875 
Q 21.96875 7.515625 27.59375 7.515625 
L 36.8125 7.515625 
L 36.8125 0 
L 27.59375 0 
Q 17.1875 0 13.234375 3.875 
Q 9.28125 7.765625 9.28125 18.015625 
L 9.28125 47.703125 
L 2.6875 47.703125 
L 2.6875 54.6875 
L 9.28125 54.6875 
L 9.28125 70.21875 
z
" id="DejaVuSans-116"/>
       <path d="M 52 44.1875 
Q 55.375 50.25 60.0625 53.125 
Q 64.75 56 71.09375 56 
Q 79.640625 56 84.28125 50.015625 
Q 88.921875 44.046875 88.921875 33.015625 
L 88.921875 0 
L 79.890625 0 
L 79.890625 32.71875 
Q 79.890625 40.578125 77.09375 44.375 
Q 74.3125 48.1875 68.609375 48.1875 
Q 61.625 48.1875 57.5625 43.546875 
Q 53.515625 38.921875 53.515625 30.90625 
L 53.515625 0 
L 44.484375 0 
L 44.484375 32.71875 
Q 44.484375 40.625 41.703125 44.40625 
Q 38.921875 48.1875 33.109375 48.1875 
Q 26.21875 48.1875 22.15625 43.53125 
Q 18.109375 38.875 18.109375 30.90625 
L 18.109375 0 
L 9.078125 0 
L 9.078125 54.6875 
L 18.109375 54.6875 
L 18.109375 46.1875 
Q 21.1875 51.21875 25.484375 53.609375 
Q 29.78125 56 35.6875 56 
Q 41.65625 56 45.828125 52.96875 
Q 50 49.953125 52 44.1875 
z
" id="DejaVuSans-109"/>
       <path d="M 17.921875 72.90625 
L 17.921875 45.796875 
L 9.625 45.796875 
L 9.625 72.90625 
z
" id="DejaVuSans-39"/>
       <path d="M 9.421875 75.984375 
L 18.40625 75.984375 
L 18.40625 0 
L 9.421875 0 
z
" id="DejaVuSans-108"/>
       <path d="M 32.171875 -5.078125 
Q 28.375 -14.84375 24.75 -17.8125 
Q 21.140625 -20.796875 15.09375 -20.796875 
L 7.90625 -20.796875 
L 7.90625 -13.28125 
L 13.1875 -13.28125 
Q 16.890625 -13.28125 18.9375 -11.515625 
Q 21 -9.765625 23.484375 -3.21875 
L 25.09375 0.875 
L 2.984375 54.6875 
L 12.5 54.6875 
L 29.59375 11.921875 
L 46.6875 54.6875 
L 56.203125 54.6875 
z
" id="DejaVuSans-121"/>
       <path d="M 31 75.875 
Q 24.46875 64.65625 21.28125 53.65625 
Q 18.109375 42.671875 18.109375 31.390625 
Q 18.109375 20.125 21.3125 9.0625 
Q 24.515625 -2 31 -13.1875 
L 23.1875 -13.1875 
Q 15.875 -1.703125 12.234375 9.375 
Q 8.59375 20.453125 8.59375 31.390625 
Q 8.59375 42.28125 12.203125 53.3125 
Q 15.828125 64.359375 23.1875 75.875 
z
" id="DejaVuSans-40"/>
       <path d="M 8.015625 75.875 
L 15.828125 75.875 
Q 23.140625 64.359375 26.78125 53.3125 
Q 30.421875 42.28125 30.421875 31.390625 
Q 30.421875 20.453125 26.78125 9.375 
Q 23.140625 -1.703125 15.828125 -13.1875 
L 8.015625 -13.1875 
Q 14.5 -2 17.703125 9.0625 
Q 20.90625 20.125 20.90625 31.390625 
Q 20.90625 42.671875 17.703125 53.65625 
Q 14.5 64.65625 8.015625 75.875 
z
" id="DejaVuSans-41"/>
      </defs>
      <use xlink:href="#DejaVuSans-76"/>
      <use x="53.962891" xlink:href="#DejaVuSans-101"/>
      <use x="115.486328" xlink:href="#DejaVuSans-32"/>
      <use x="147.273438" xlink:href="#DejaVuSans-116"/>
      <use x="186.482422" xlink:href="#DejaVuSans-101"/>
      <use x="248.005859" xlink:href="#DejaVuSans-109"/>
      <use x="345.417969" xlink:href="#DejaVuSans-112"/>
      <use x="408.894531" xlink:href="#DejaVuSans-115"/>
      <use x="460.994141" xlink:href="#DejaVuSans-32"/>
      <use x="492.78125" xlink:href="#DejaVuSans-100"/>
      <use x="556.257812" xlink:href="#DejaVuSans-39"/>
      <use x="583.748047" xlink:href="#DejaVuSans-97"/>
      <use x="645.027344" xlink:href="#DejaVuSans-110"/>
      <use x="708.40625" xlink:href="#DejaVuSans-97"/>
      <use x="769.685547" xlink:href="#DejaVuSans-108"/>
      <use x="797.46875" xlink:href="#DejaVuSans-121"/>
      <use x="856.648438" xlink:href="#DejaVuSans-115"/>
      <use x="908.748047" xlink:href="#DejaVuSans-101"/>
      <use x="970.271484" xlink:href="#DejaVuSans-32"/>
      <use x="1002.058594" xlink:href="#DejaVuSans-40"/>
      <use x="1041.072266" xlink:href="#DejaVuSans-101"/>
      <use x="1102.595703" xlink:href="#DejaVuSans-110"/>
      <use x="1165.974609" xlink:href="#DejaVuSans-32"/>
      <use x="1197.761719" xlink:href="#DejaVuSans-115"/>
      <use x="1249.861328" xlink:href="#DejaVuSans-101"/>
      <use x="1311.384766" xlink:href="#DejaVuSans-99"/>
      <use x="1366.365234" xlink:href="#DejaVuSans-41"/>
     </g>
    </g>
   </g>
   <g id="line2d_12">
    <path clip-path="url(#pafe4b26197)" d="M 164.736 272.891755 
L 177.722182 279.844613 
L 190.708364 278.541256 
L 177.722182 279.410092 
L 99.805091 293.747118 
L 151.749818 287.197396 
L 125.777455 292.344324 
L 177.722182 284.615232 
L 190.708364 279.883766 
L 112.791273 292.443347 
L 125.777455 289.373835 
L 190.708364 278.984064 
L 86.818909 294.612639 
L 125.777455 289.406049 
L 190.708364 265.504065 
L 229.666909 269.007994 
L 268.625455 227.685281 
L 268.625455 265.073169 
L 255.639273 244.631092 
L 99.805091 293.315808 
L 164.736 286.787527 
L 229.666909 268.141748 
L 255.639273 248.999611 
L 164.736 282.016598 
L 164.736 285.057936 
L 190.708364 282.449876 
L 112.791273 293.314151 
L 151.749818 290.694179 
L 190.708364 281.59316 
L 151.749818 283.754579 
L 294.597818 222.845988 
L 255.639273 255.078351 
L 164.736 279.410299 
L 164.736 282.884087 
L 112.791273 291.576169 
L 203.694545 268.986242 
L 242.653091 250.301103 
L 216.680727 249.241368 
L 164.736 282.886573 
L 229.666909 269.178903 
L 164.736 288.12952 
L 177.722182 281.577726 
L 151.749818 287.746271 
L 151.749818 289.836634 
L 151.749818 282.476289 
L 138.763636 288.512458 
L 138.763636 288.984268 
L 125.777455 289.231205 
L 99.805091 293.7466 
L 138.763636 290.270534 
L 138.763636 290.273434 
L 138.763636 288.5426 
L 125.777455 290.724943 
L 125.777455 291.113888 
L 112.791273 292.881494 
L 112.791273 292.872379 
L 125.777455 289.842124 
L 86.818909 294.616368 
L 138.763636 290.700083 
L 138.763636 292.015559 
L 138.763636 290.705677 
L 151.749818 287.230439 
L 99.805091 294.177703 
L 86.818909 294.185783 
L 125.777455 291.13678 
L 73.832727 295.051821 
L 99.805091 293.313944 
L 112.791273 293.747429 
L 99.805091 293.519344 
L 125.777455 289.270565 
L 138.763636 288.462221 
L 99.805091 294.202149 
L 99.805091 293.200108 
L 73.832727 294.626105 
L 99.805091 293.314669 
L 125.777455 289.401077 
L 229.666909 264.205058 
L 125.777455 291.574098 
L 86.818909 294.204531 
L 164.736 286.361396 
L 112.791273 293.312597 
L 99.805091 292.429985 
L 112.791273 292.891541 
L 125.777455 292.44314 
L 125.777455 291.140612 
L 190.708364 271.029891 
L 99.805091 293.766799 
L 112.791273 292.877558 
L 86.818909 294.616161 
L 125.777455 291.567468 
L 112.791273 292.00893 
L 177.722182 282.012972 
L 125.777455 291.57503 
L 164.736 286.360982 
L 138.763636 287.640308 
L 99.805091 294.622065 
L 125.777455 291.571301 
L 138.763636 289.840156 
L 138.763636 292.00924 
L 151.749818 282.451637 
L 125.777455 289.425108 
L 190.708364 275.500436 
L 177.722182 274.630565 
L 138.763636 292.005511 
L 125.777455 292.447491 
L 151.749818 289.836945 
L 190.708364 271.949481 
L 138.763636 289.837877 
L 86.818909 294.615746 
L 151.749818 286.337055 
L 138.763636 288.095442 
L 229.666909 273.770327 
L 125.777455 292.872482 
L 138.763636 292.448733 
L 177.722182 273.759244 
L 99.805091 293.309697 
L 190.708364 276.808765 
L 73.832727 295.477746 
L 125.777455 289.40926 
L 112.791273 291.141026 
L 190.708364 270.740175 
L 190.708364 277.155242 
L 138.763636 290.293218 
L 151.749818 283.321094 
L 125.777455 291.981481 
L 112.791273 292.880044 
L 398.487273 168.00785 
L 307.584 254.646005 
L 99.805091 293.31239 
L 125.777455 292.00924 
L 86.818909 295.484582 
L 99.805091 293.312701 
L 99.805091 293.746911 
L 125.777455 290.271362 
L 112.791273 292.443658 
L 112.791273 291.574719 
L 190.708364 278.08664 
L 151.749818 282.448944 
L 151.749818 289.393826 
L 73.832727 294.617818 
L 112.791273 292.883669 
L 73.832727 295.488 
L 138.763636 285.048199 
L 151.749818 285.522599 
L 125.777455 291.574823 
L 125.777455 292.877972 
L 125.777455 292.00924 
L 112.791273 291.575444 
L 125.777455 289.836738 
L 99.805091 294.615954 
L 99.805091 294.181432 
L 151.749818 283.754579 
L 125.777455 290.271362 
L 125.777455 292.878076 
L 86.818909 294.615954 
L 151.749818 284.188997 
L 190.708364 271.127774 
L 164.736 282.885537 
L 112.791273 291.149002 
L 125.777455 291.015694 
L 164.736 276.235549 
L 190.708364 273.762455 
L 177.722182 280.277063 
L 203.694545 254.286994 
L 216.680727 247.239049 
L 203.694545 259.317393 
L 268.625455 208.644859 
L 203.694545 258.557939 
L 216.680727 250.301724 
L 216.680727 255.966245 
L 203.694545 265.910515 
L 216.680727 250.153811 
L 216.680727 245.520955 
L 346.542545 111.020619 
L 190.708364 276.368961 
L 242.653091 257.689518 
L 242.653091 252.138211 
L 307.584 114.923024 
L 307.584 247.111644 
L 281.611636 212.735574 
L 138.763636 285.92356 
L 151.749818 283.322751 
L 190.708364 265.915902 
L 229.666909 249.634561 
L 112.791273 291.140094 
L 125.777455 292.878386 
L 151.749818 289.836841 
L 138.763636 290.271362 
L 112.791273 293.737278 
L 138.763636 290.245674 
L 138.763636 290.710234 
L 151.749818 282.789828 
L 177.722182 277.668692 
L 216.680727 265.934132 
L 216.680727 267.687858 
L 151.749818 288.099378 
L 164.736 288.239212 
L 177.722182 288.582167 
L 294.597818 222.342586 
L 138.763636 289.400248 
L 242.653091 274.691781 
L 203.694545 282.44998 
L 138.763636 288.961791 
L 177.722182 285.491732 
L 359.528727 150.833022 
L 281.611636 244.429524 
L 177.722182 274.129441 
L 268.625455 231.619692 
L 151.749818 286.362639 
L 125.777455 291.594503 
L 190.708364 278.106839 
L 112.791273 292.009137 
L 177.722182 273.761522 
L 216.680727 277.238107 
L 216.680727 268.548924 
L 164.736 282.886365 
L 203.694545 261.918306 
L 164.736 278.738267 
L 125.777455 289.311376 
L 138.763636 285.802785 
L 177.722182 277.303156 
L 216.680727 244.947635 
L 164.736 284.924731 
L 255.639273 262.800814 
L 203.694545 261.566753 
L 164.736 277.598154 
L 203.694545 277.2379 
L 86.818909 294.614296 
L 86.818909 294.18454 
L 125.777455 290.270534 
L 112.791273 291.572233 
L 112.791273 291.140819 
L 125.777455 289.40232 
L 164.736 280.71697 
L 86.818909 293.740593 
L 151.749818 282.759272 
L 99.805091 293.336421 
L 177.722182 287.230231 
L 86.818909 294.61585 
L 229.666909 259.858499 
L 112.791273 292.444176 
L 112.791273 293.312597 
L 86.818909 292.856324 
L 73.832727 295.047367 
L 138.763636 290.701844 
L 73.832727 295.050786 
L 99.805091 292.882323 
L 125.777455 292.872275 
L 112.791273 292.012348 
L 112.791273 293.312183 
L 86.818909 294.001616 
L 86.818909 294.59648 
L 99.805091 292.879008 
L 138.763636 288.97132 
L 151.749818 283.339635 
L 164.736 279.844613 
L 138.763636 289.402527 
L 164.736 284.593894 
L 125.777455 290.710959 
L 86.818909 294.615332 
L 73.832727 295.048714 
L 86.818909 294.206395 
L 86.818909 294.615954 
L 99.805091 293.747118 
L 125.777455 290.705055 
L 125.777455 291.139783 
L 86.818909 294.615954 
L 73.832727 295.050371 
L 86.818909 294.18164 
L 112.791273 292.849384 
L 112.791273 293.320055 
L 112.791273 293.312597 
L 138.763636 290.293114 
L 125.777455 292.878386 
L 125.777455 293.312597 
L 164.736 288.075243 
L 151.749818 289.400973 
L 125.777455 292.877558 
L 177.722182 273.768255 
L 99.805091 294.608185 
L 86.818909 295.053582 
L 99.805091 292.873622 
L 138.763636 289.408638 
L 99.805091 294.181847 
L 151.749818 289.422932 
L 86.818909 294.181432 
L 125.777455 286.777273 
L 112.791273 290.526275 
L 86.818909 294.159059 
L 138.763636 288.551715 
L 125.777455 288.972149 
L 138.763636 290.732608 
L 112.791273 293.747015 
L 138.763636 291.140301 
L 138.763636 289.836427 
L 138.763636 290.242567 
L 151.749818 285.496497 
L 138.763636 288.963863 
L 138.763636 289.841502 
L 151.749818 286.366264 
L 164.736 287.552368 
L 138.763636 288.52758 
L 138.763636 287.799926 
L 112.791273 292.900346 
L 151.749818 290.706298 
L 138.763636 288.868672 
L 190.708364 273.762351 
L 138.763636 288.533692 
L 138.763636 286.360982 
L 164.736 279.589908 
L 164.736 279.589908 
" style="fill:none;stroke:#1f77b4;stroke-linecap:square;stroke-width:1.5;"/>
   </g>
   <g id="line2d_13">
    <path clip-path="url(#pafe4b26197)" d="M 164.736 284.453646 
L 177.722182 276.944248 
L 190.708364 274.984086 
L 177.722182 278.949157 
L 151.749818 283.755926 
L 99.805091 293.748672 
L 151.749818 287.228678 
L 125.777455 289.838084 
L 177.722182 280.714588 
L 190.708364 276.224258 
L 112.791273 292.445005 
L 125.777455 291.129011 
L 190.708364 278.113053 
L 86.818909 294.612535 
L 125.777455 289.839949 
L 190.708364 264.202158 
L 229.666909 234.691172 
L 268.625455 189.628469 
L 268.625455 229.40845 
L 255.639273 202.822792 
L 99.805091 292.463753 
L 164.736 278.107771 
L 229.666909 250.385521 
L 255.639273 234.885697 
L 164.736 281.151388 
L 164.736 283.321819 
L 190.708364 274.65646 
L 112.791273 291.574719 
L 151.749818 283.754579 
L 190.708364 274.63129 
L 151.749818 282.885537 
L 294.597818 191.63141 
L 255.639273 241.007009 
L 164.736 278.910315 
L 164.736 279.408849 
L 112.791273 292.011105 
L 203.694545 268.112021 
L 242.653091 235.436643 
L 216.680727 247.582108 
L 164.736 276.806797 
L 229.666909 256.524753 
L 164.736 282.449047 
L 177.722182 282.3551 
L 151.749818 282.885744 
L 151.749818 281.95911 
L 151.749818 289.403149 
L 151.749818 282.88564 
L 138.763636 289.402423 
L 138.763636 289.400663 
L 125.777455 291.576584 
L 99.805091 293.747015 
L 138.763636 291.140301 
L 138.763636 291.140509 
L 138.763636 289.402423 
L 125.777455 291.140198 
L 125.777455 291.574616 
L 112.791273 292.878179 
L 112.791273 293.312597 
L 125.777455 288.967902 
L 86.818909 293.738832 
L 86.818909 294.617197 
L 138.763636 288.527477 
L 138.763636 288.974117 
L 138.763636 284.622172 
L 151.749818 285.492871 
L 99.805091 294.18164 
L 86.818909 294.10354 
L 125.777455 291.12145 
L 73.832727 295.052961 
L 99.805091 293.551454 
L 112.791273 292.009033 
L 99.805091 293.641259 
L 125.777455 289.832076 
L 138.763636 289.426558 
L 99.805091 293.747429 
L 99.805091 293.312597 
L 73.832727 295.050268 
L 99.805091 293.746808 
L 125.777455 289.837048 
L 229.666909 251.870248 
L 125.777455 289.428112 
L 86.818909 294.146526 
L 164.736 277.622184 
L 112.791273 292.443554 
L 99.805091 293.313426 
L 112.791273 292.877765 
L 125.777455 289.836841 
L 125.777455 290.387476 
L 190.708364 271.057132 
L 99.805091 293.719359 
L 112.791273 292.877765 
L 86.818909 294.608289 
L 125.777455 289.414232 
L 112.791273 291.398839 
L 177.722182 277.311649 
L 125.777455 290.618358 
L 164.736 279.343489 
L 138.763636 284.580429 
L 99.805091 293.309179 
L 125.777455 288.541253 
L 138.763636 289.860458 
L 138.763636 287.639893 
L 151.749818 282.477325 
L 125.777455 288.941593 
L 190.708364 268.656338 
L 177.722182 272.029445 
L 138.763636 288.505621 
L 125.777455 288.722934 
L 151.749818 288.10611 
L 190.708364 263.358596 
L 138.763636 285.724374 
L 86.818909 294.615954 
L 151.749818 281.829531 
L 138.763636 287.205269 
L 229.666909 261.835959 
L 125.777455 291.575651 
L 138.763636 290.727739 
L 177.722182 270.64571 
L 99.805091 293.317983 
L 190.708364 275.495153 
L 73.832727 294.592855 
L 125.777455 289.448724 
L 112.791273 291.991424 
L 190.708364 272.455162 
L 190.708364 268.137398 
L 138.763636 286.123678 
L 151.749818 282.887919 
L 125.777455 288.944804 
L 112.791273 291.132326 
L 398.487273 55.406662 
L 307.584 211.14737 
L 99.805091 293.312286 
L 125.777455 287.886312 
L 86.818909 294.180397 
L 99.805091 293.314565 
L 99.805091 292.644398 
L 112.791273 292.009965 
L 125.777455 288.968006 
L 112.791273 291.140819 
L 112.791273 290.999328 
L 190.708364 271.565921 
L 151.749818 283.322233 
L 151.749818 285.150744 
L 73.832727 295.484478 
L 112.791273 292.443969 
L 73.832727 295.050061 
L 138.763636 287.230439 
L 151.749818 286.362018 
L 125.777455 288.968006 
L 125.777455 288.470818 
L 125.777455 288.969042 
L 112.791273 290.894815 
L 125.777455 289.837256 
L 99.805091 293.747015 
L 99.805091 293.746704 
L 151.749818 283.75489 
L 125.777455 289.836738 
L 125.777455 290.618772 
L 86.818909 294.618647 
L 151.749818 283.320162 
L 190.708364 272.416423 
L 164.736 277.336094 
L 112.791273 291.575548 
L 125.777455 289.153312 
L 164.736 276.368236 
L 190.708364 273.762455 
L 177.722182 272.458891 
L 203.694545 252.741362 
L 216.680727 243.546291 
L 203.694545 251.031969 
L 268.625455 205.251657 
L 203.694545 256.823065 
L 216.680727 248.661109 
L 216.680727 253.762047 
L 203.694545 262.746123 
L 216.680727 247.79362 
L 216.680727 243.016579 
L 346.542545 53.580223 
L 190.708364 266.718549 
L 242.653091 217.503603 
L 242.653091 218.864447 
L 307.584 53.568 
L 307.584 166.361952 
L 281.611636 167.867602 
L 138.763636 286.770747 
L 151.749818 282.91081 
L 190.708364 265.458282 
L 229.666909 243.126478 
L 112.791273 291.140198 
L 125.777455 286.9603 
L 151.749818 285.034319 
L 138.763636 285.831166 
L 125.777455 289.407706 
L 112.791273 293.306279 
L 125.777455 289.836634 
L 138.763636 287.237068 
L 138.763636 287.92329 
L 151.749818 283.735728 
L 177.722182 276.27957 
L 216.680727 214.451389 
L 216.680727 252.889068 
L 151.749818 287.22671 
L 164.736 285.078031 
L 177.722182 282.019602 
L 294.597818 184.065768 
L 138.763636 285.926875 
L 242.653091 262.902012 
L 203.694545 279.40947 
L 138.763636 289.402423 
L 177.722182 277.162493 
L 359.528727 105.229627 
L 281.611636 215.261391 
L 177.722182 270.743386 
L 268.625455 230.989818 
L 151.749818 281.828495 
L 125.777455 291.138851 
L 190.708364 275.933818 
L 112.791273 291.575858 
L 177.722182 270.987215 
L 216.680727 245.089334 
L 216.680727 243.97149 
L 164.736 278.418099 
L 203.694545 264.639683 
L 164.736 278.541153 
L 125.777455 289.382432 
L 138.763636 286.794364 
L 177.722182 277.692723 
L 216.680727 243.242282 
L 164.736 278.847234 
L 255.639273 204.424358 
L 203.694545 264.654599 
L 164.736 279.417653 
L 164.736 278.540324 
L 203.694545 264.639683 
L 86.818909 294.61585 
L 86.818909 293.744322 
L 99.805091 293.314461 
L 125.777455 290.705366 
L 112.791273 292.009551 
L 112.791273 290.900201 
L 125.777455 288.535453 
L 164.736 281.145173 
L 86.818909 294.153673 
L 151.749818 283.328034 
L 99.805091 293.312286 
L 177.722182 272.45278 
L 86.818909 294.54904 
L 229.666909 240.393604 
L 112.791273 292.881494 
L 112.791273 292.875072 
L 86.818909 294.615332 
L 73.832727 295.049128 
L 138.763636 291.13709 
L 138.763636 290.82583 
L 73.832727 294.620926 
L 125.777455 291.144445 
L 112.791273 292.867614 
L 112.791273 292.448423 
L 86.818909 294.617818 
L 86.818909 294.176978 
L 86.818909 294.61875 
L 99.805091 293.740282 
L 138.763636 287.679565 
L 151.749818 286.804204 
L 164.736 279.843784 
L 138.763636 288.914247 
L 164.736 276.369996 
L 125.777455 290.692729 
L 86.818909 292.851973 
L 73.832727 295.024373 
L 86.818909 294.182365 
L 86.818909 293.747429 
L 99.805091 292.444487 
L 125.777455 288.960444 
L 125.777455 288.537421 
L 86.818909 294.613053 
L 73.832727 294.645371 
L 86.818909 294.156677 
L 112.791273 291.119378 
L 112.791273 293.308557 
L 138.763636 290.274573 
L 125.777455 290.702051 
L 125.777455 291.147966 
L 164.736 285.053275 
L 151.749818 286.362432 
L 125.777455 291.154906 
L 177.722182 269.837365 
L 99.805091 291.561668 
L 86.818909 294.178843 
L 99.805091 292.87155 
L 138.763636 288.094302 
L 99.805091 292.87849 
L 151.749818 285.057936 
L 86.818909 294.616989 
L 125.777455 288.96697 
L 112.791273 291.140509 
L 86.818909 294.182365 
L 138.763636 289.339654 
L 125.777455 289.814468 
L 138.763636 286.360775 
L 112.791273 291.138541 
L 138.763636 286.365021 
L 138.763636 285.291303 
L 151.749818 284.059728 
L 138.763636 288.546743 
L 138.763636 289.837048 
L 138.763636 286.956985 
L 151.749818 283.700096 
L 164.736 281.940155 
L 138.763636 286.824609 
L 138.763636 285.03318 
L 112.791273 291.14517 
L 151.749818 285.050167 
L 138.763636 286.794882 
L 190.708364 265.141532 
L 138.763636 288.556583 
L 138.763636 286.796539 
L 164.736 281.158846 
L 164.736 281.158846 
" style="fill:none;stroke:#ff7f0e;stroke-linecap:square;stroke-width:1.5;"/>
   </g>
   <g id="patch_3">
    <path d="M 57.6 307.584 
L 57.6 41.472 
" style="fill:none;stroke:#000000;stroke-linecap:square;stroke-linejoin:miter;stroke-width:0.8;"/>
   </g>
   <g id="patch_4">
    <path d="M 414.72 307.584 
L 414.72 41.472 
" style="fill:none;stroke:#000000;stroke-linecap:square;stroke-linejoin:miter;stroke-width:0.8;"/>
   </g>
   <g id="patch_5">
    <path d="M 57.6 307.584 
L 414.72 307.584 
" style="fill:none;stroke:#000000;stroke-linecap:square;stroke-linejoin:miter;stroke-width:0.8;"/>
   </g>
   <g id="patch_6">
    <path d="M 57.6 41.472 
L 414.72 41.472 
" style="fill:none;stroke:#000000;stroke-linecap:square;stroke-linejoin:miter;stroke-width:0.8;"/>
   </g>
   <g id="text_14">
    <!-- Le temps d'analyse en -->
    <g transform="translate(168.541875 21.458625)scale(0.12 -0.12)">
     <use xlink:href="#DejaVuSans-76"/>
     <use x="53.962891" xlink:href="#DejaVuSans-101"/>
     <use x="115.486328" xlink:href="#DejaVuSans-32"/>
     <use x="147.273438" xlink:href="#DejaVuSans-116"/>
     <use x="186.482422" xlink:href="#DejaVuSans-101"/>
     <use x="248.005859" xlink:href="#DejaVuSans-109"/>
     <use x="345.417969" xlink:href="#DejaVuSans-112"/>
     <use x="408.894531" xlink:href="#DejaVuSans-115"/>
     <use x="460.994141" xlink:href="#DejaVuSans-32"/>
     <use x="492.78125" xlink:href="#DejaVuSans-100"/>
     <use x="556.257812" xlink:href="#DejaVuSans-39"/>
     <use x="583.748047" xlink:href="#DejaVuSans-97"/>
     <use x="645.027344" xlink:href="#DejaVuSans-110"/>
     <use x="708.40625" xlink:href="#DejaVuSans-97"/>
     <use x="769.685547" xlink:href="#DejaVuSans-108"/>
     <use x="797.46875" xlink:href="#DejaVuSans-121"/>
     <use x="856.648438" xlink:href="#DejaVuSans-115"/>
     <use x="908.748047" xlink:href="#DejaVuSans-101"/>
     <use x="970.271484" xlink:href="#DejaVuSans-32"/>
     <use x="1002.058594" xlink:href="#DejaVuSans-101"/>
     <use x="1063.582031" xlink:href="#DejaVuSans-110"/>
    </g>
    <!-- fonction des longeurs des phrases considérées -->
    <g transform="translate(95.353125 35.472)scale(0.12 -0.12)">
     <defs>
      <path d="M 37.109375 75.984375 
L 37.109375 68.5 
L 28.515625 68.5 
Q 23.6875 68.5 21.796875 66.546875 
Q 19.921875 64.59375 19.921875 59.515625 
L 19.921875 54.6875 
L 34.71875 54.6875 
L 34.71875 47.703125 
L 19.921875 47.703125 
L 19.921875 0 
L 10.890625 0 
L 10.890625 47.703125 
L 2.296875 47.703125 
L 2.296875 54.6875 
L 10.890625 54.6875 
L 10.890625 58.5 
Q 10.890625 67.625 15.140625 71.796875 
Q 19.390625 75.984375 28.609375 75.984375 
z
" id="DejaVuSans-102"/>
     </defs>
     <use xlink:href="#DejaVuSans-102"/>
     <use x="35.205078" xlink:href="#DejaVuSans-111"/>
     <use x="96.386719" xlink:href="#DejaVuSans-110"/>
     <use x="159.765625" xlink:href="#DejaVuSans-99"/>
     <use x="214.746094" xlink:href="#DejaVuSans-116"/>
     <use x="253.955078" xlink:href="#DejaVuSans-105"/>
     <use x="281.738281" xlink:href="#DejaVuSans-111"/>
     <use x="342.919922" xlink:href="#DejaVuSans-110"/>
     <use x="406.298828" xlink:href="#DejaVuSans-32"/>
     <use x="438.085938" xlink:href="#DejaVuSans-100"/>
     <use x="501.5625" xlink:href="#DejaVuSans-101"/>
     <use x="563.085938" xlink:href="#DejaVuSans-115"/>
     <use x="615.185547" xlink:href="#DejaVuSans-32"/>
     <use x="646.972656" xlink:href="#DejaVuSans-108"/>
     <use x="674.755859" xlink:href="#DejaVuSans-111"/>
     <use x="735.9375" xlink:href="#DejaVuSans-110"/>
     <use x="799.316406" xlink:href="#DejaVuSans-103"/>
     <use x="862.792969" xlink:href="#DejaVuSans-101"/>
     <use x="924.316406" xlink:href="#DejaVuSans-117"/>
     <use x="987.695312" xlink:href="#DejaVuSans-114"/>
     <use x="1028.808594" xlink:href="#DejaVuSans-115"/>
     <use x="1080.908203" xlink:href="#DejaVuSans-32"/>
     <use x="1112.695312" xlink:href="#DejaVuSans-100"/>
     <use x="1176.171875" xlink:href="#DejaVuSans-101"/>
     <use x="1237.695312" xlink:href="#DejaVuSans-115"/>
     <use x="1289.794922" xlink:href="#DejaVuSans-32"/>
     <use x="1321.582031" xlink:href="#DejaVuSans-112"/>
     <use x="1385.058594" xlink:href="#DejaVuSans-104"/>
     <use x="1448.4375" xlink:href="#DejaVuSans-114"/>
     <use x="1489.550781" xlink:href="#DejaVuSans-97"/>
     <use x="1550.830078" xlink:href="#DejaVuSans-115"/>
     <use x="1602.929688" xlink:href="#DejaVuSans-101"/>
     <use x="1664.453125" xlink:href="#DejaVuSans-115"/>
     <use x="1716.552734" xlink:href="#DejaVuSans-32"/>
     <use x="1748.339844" xlink:href="#DejaVuSans-99"/>
     <use x="1803.320312" xlink:href="#DejaVuSans-111"/>
     <use x="1864.501953" xlink:href="#DejaVuSans-110"/>
     <use x="1927.880859" xlink:href="#DejaVuSans-115"/>
     <use x="1979.980469" xlink:href="#DejaVuSans-105"/>
     <use x="2007.763672" xlink:href="#DejaVuSans-100"/>
     <use x="2071.240234" xlink:href="#DejaVuSans-233"/>
     <use x="2132.763672" xlink:href="#DejaVuSans-114"/>
     <use x="2171.626953" xlink:href="#DejaVuSans-233"/>
     <use x="2233.150391" xlink:href="#DejaVuSans-101"/>
     <use x="2294.673828" xlink:href="#DejaVuSans-115"/>
    </g>
   </g>
   <g id="legend_1">
    <g id="patch_7">
     <path d="M 64.6 78.82825 
L 168.88125 78.82825 
Q 170.88125 78.82825 170.88125 76.82825 
L 170.88125 48.472 
Q 170.88125 46.472 168.88125 46.472 
L 64.6 46.472 
Q 62.6 46.472 62.6 48.472 
L 62.6 76.82825 
Q 62.6 78.82825 64.6 78.82825 
z
" style="fill:#ffffff;opacity:0.8;stroke:#cccccc;stroke-linejoin:miter;"/>
    </g>
    <g id="line2d_14">
     <path d="M 66.6 54.570437 
L 86.6 54.570437 
" style="fill:none;stroke:#1f77b4;stroke-linecap:square;stroke-width:1.5;"/>
    </g>
    <g id="line2d_15"/>
    <g id="text_15">
     <!-- pas de filtrage -->
     <g transform="translate(94.6 58.070437)scale(0.1 -0.1)">
      <use xlink:href="#DejaVuSans-112"/>
      <use x="63.476562" xlink:href="#DejaVuSans-97"/>
      <use x="124.755859" xlink:href="#DejaVuSans-115"/>
      <use x="176.855469" xlink:href="#DejaVuSans-32"/>
      <use x="208.642578" xlink:href="#DejaVuSans-100"/>
      <use x="272.119141" xlink:href="#DejaVuSans-101"/>
      <use x="333.642578" xlink:href="#DejaVuSans-32"/>
      <use x="365.429688" xlink:href="#DejaVuSans-102"/>
      <use x="400.634766" xlink:href="#DejaVuSans-105"/>
      <use x="428.417969" xlink:href="#DejaVuSans-108"/>
      <use x="456.201172" xlink:href="#DejaVuSans-116"/>
      <use x="495.410156" xlink:href="#DejaVuSans-114"/>
      <use x="536.523438" xlink:href="#DejaVuSans-97"/>
      <use x="597.802734" xlink:href="#DejaVuSans-103"/>
      <use x="661.279297" xlink:href="#DejaVuSans-101"/>
     </g>
    </g>
    <g id="line2d_16">
     <path d="M 66.6 69.248562 
L 86.6 69.248562 
" style="fill:none;stroke:#ff7f0e;stroke-linecap:square;stroke-width:1.5;"/>
    </g>
    <g id="line2d_17"/>
    <g id="text_16">
     <!-- avec filtrage -->
     <g transform="translate(94.6 72.748562)scale(0.1 -0.1)">
      <defs>
       <path d="M 2.984375 54.6875 
L 12.5 54.6875 
L 29.59375 8.796875 
L 46.6875 54.6875 
L 56.203125 54.6875 
L 35.6875 0 
L 23.484375 0 
z
" id="DejaVuSans-118"/>
      </defs>
      <use xlink:href="#DejaVuSans-97"/>
      <use x="61.279297" xlink:href="#DejaVuSans-118"/>
      <use x="120.458984" xlink:href="#DejaVuSans-101"/>
      <use x="181.982422" xlink:href="#DejaVuSans-99"/>
      <use x="236.962891" xlink:href="#DejaVuSans-32"/>
      <use x="268.75" xlink:href="#DejaVuSans-102"/>
      <use x="303.955078" xlink:href="#DejaVuSans-105"/>
      <use x="331.738281" xlink:href="#DejaVuSans-108"/>
      <use x="359.521484" xlink:href="#DejaVuSans-116"/>
      <use x="398.730469" xlink:href="#DejaVuSans-114"/>
      <use x="439.84375" xlink:href="#DejaVuSans-97"/>
      <use x="501.123047" xlink:href="#DejaVuSans-103"/>
      <use x="564.599609" xlink:href="#DejaVuSans-101"/>
     </g>
    </g>
   </g>
  </g>
 </g>
 <defs>
  <clipPath id="pafe4b26197">
   <rect height="266.112" width="357.12" x="57.6" y="41.472"/>
  </clipPath>
 </defs>
</svg>
